/* XPM */
static char *_a69d9de7dbb4a07abc8fd954a4966e8[] = {
/* columns rows colors chars-per-pixel */
"64 64 231 2 ",
"   c #17141D",
".  c #100C13",
"X  c #1E1B21",
"o  c #1A1720",
"O  c #211E24",
"+  c #232126",
"@  c #26232A",
"#  c #2A262C",
"$  c #2C292E",
"%  c #2B2825",
"&  c #2D2C32",
"*  c #2B2934",
"=  c #312E33",
"-  c #333135",
";  c #363439",
":  c #39363B",
">  c #3C3A3D",
",  c #373738",
"<  c #33322F",
"1  c #2D211E",
"2  c #433C3C",
"3  c #513227",
"4  c #693B2E",
"5  c #374B37",
"6  c #34613E",
"7  c #535839",
"8  c #4A523A",
"9  c #684639",
"0  c #754934",
"q  c #7A533C",
"w  c #665E3B",
"e  c #576A3B",
"r  c #49643E",
"t  c #71703B",
"y  c #3D3C42",
"u  c #373B44",
"i  c #413E43",
"p  c #3D4144",
"a  c #444245",
"s  c #494546",
"d  c #454449",
"f  c #4A464A",
"g  c #464A4D",
"h  c #4C4A4C",
"j  c #494946",
"k  c #514D4D",
"l  c #4D534C",
"z  c #52514E",
"x  c #57574A",
"c  c #4D4D52",
"v  c #444751",
"b  c #514E52",
"n  c #4D5254",
"m  c #4F565B",
"M  c #535355",
"N  c #535559",
"B  c #555A5B",
"V  c #595C5C",
"C  c #595856",
"Z  c #755D4E",
"A  c #4B6642",
"S  c #5C6B44",
"D  c #4B7546",
"F  c #5A7A48",
"G  c #5B615E",
"H  c #56615E",
"J  c #6E714D",
"K  c #555B62",
"L  c #5A5D62",
"P  c #585A65",
"I  c #566464",
"U  c #5C6363",
"Y  c #5C6966",
"T  c #5D636A",
"R  c #586A69",
"E  c #5F6771",
"W  c #616564",
"Q  c #646B65",
"!  c #62666A",
"~  c #656A6B",
"^  c #6B6B66",
"/  c #6B726C",
"(  c #626971",
")  c #6A7777",
"_  c #737471",
"`  c #85563A",
"'  c #954F32",
"]  c #B35736",
"[  c #BC643C",
"{  c #C45D35",
"}  c #CB6439",
"|  c #D4683B",
" . c #895C42",
".. c #8C6644",
"X. c #986945",
"o. c #9A764B",
"O. c #937550",
"+. c #A97550",
"@. c #877968",
"#. c #CE704C",
"$. c #5B8B45",
"%. c #77894A",
"&. c #669949",
"*. c #73984D",
"=. c #6D8D4F",
"-. c #77A74A",
";. c #78A551",
":. c #70A74F",
">. c #798669",
",. c #BDCA39",
"<. c #C5CE38",
"1. c #C5D23D",
"2. c #8A9149",
"3. c #AD8859",
"4. c #97AB47",
"5. c #86A956",
"6. c #94B255",
"7. c #8AB151",
"8. c #A8BD4A",
"9. c #A3B64D",
"0. c #878E73",
"q. c #AC906A",
"w. c #92A46D",
"e. c #AFB668",
"r. c #D18E70",
"t. c #D1AD74",
"y. c #CA9F57",
"u. c #BAC946",
"i. c #A9C04B",
"p. c #C5CD42",
"a. c #C9D546",
"s. c #D7D66F",
"d. c #697D80",
"f. c #788586",
"g. c #6F878B",
"h. c #898B85",
"j. c #889899",
"k. c #8D9492",
"l. c #A09D92",
"z. c #99A68F",
"x. c #B1AD97",
"c. c #8DA2A3",
"v. c #96A6A7",
"b. c #9DB4B4",
"n. c #A4B9B6",
"m. c #B2B7AC",
"M. c #CFB391",
"N. c #CFBEA3",
"B. c #B5C3BA",
"V. c #9EC2BF",
"C. c #D6C697",
"Z. c #D8CE84",
"A. c #E5C589",
"S. c #E8CA95",
"D. c #F7D298",
"F. c #F1CF9A",
"G. c #CFCAB7",
"H. c #F7D7A6",
"J. c #F8DDB3",
"K. c #E9D0B2",
"L. c #FDE1B6",
"P. c #D6EA88",
"I. c #A5CDCD",
"U. c #AACDCB",
"Y. c #A7C8C5",
"T. c #B7C7C7",
"R. c #ABD1CE",
"E. c #A7D1CD",
"W. c #B8D2CE",
"Q. c #ACCFD0",
"!. c #ADD3D2",
"~. c #B3D5D4",
"^. c #BDD5D2",
"/. c #B5D9D5",
"(. c #BADBD6",
"). c #B6DADA",
"_. c #BBDDDA",
"`. c #BEE1DE",
"'. c #BEE1E1",
"]. c #9CC4C0",
"[. c #DADDCA",
"{. c #C4DCD6",
"}. c #C3DEDA",
"|. c #CADEDB",
" X c #C7DAD6",
".X c #CDD6CC",
"XX c #E7DDC9",
"oX c #C4E2DD",
"OX c #CCE3DD",
"+X c #CCE5DA",
"@X c #D2E5DE",
"#X c #D5EADD",
"$X c #DDE4CB",
"%X c #E8E9D7",
"&X c #F1F3DD",
"*X c #EEE7CF",
"=X c #C5E5E1",
"-X c #CCE5E2",
";X c #CCEAE4",
":X c #CDEDE9",
">X c #C7E9E4",
",X c #D2E6E1",
"<X c #D4EAE4",
"1X c #DAEDE4",
"2X c #D4EDEA",
"3X c #DAEEEA",
"4X c #DBE5E6",
"5X c #D4F1EC",
"6X c #DBF2ED",
"7X c #DCF0E6",
"8X c #D5F2F3",
"9X c #DCF3F3",
"0X c #DDF5FA",
"qX c #DBF8F5",
"wX c #D5EFF0",
"eX c #E3ECE6",
"rX c #E2F3EC",
"tX c #E7F4E9",
"yX c #F6F8E9",
"uX c #E3F5F4",
"iX c #E9F6F5",
"pX c #E3FAF4",
"aX c #EBFBF6",
"sX c #E3F6F9",
"dX c #EAF7F9",
"fX c #E5F9FA",
"gX c #EBFAFB",
"hX c #FCFEF5",
"jX c #F4FEFD",
"kX c #FBFFFC",
"lX c #F4F8F3",
/* pixels */
"8X5X2X2X:X;X>X;X;X;X;X;X>X;X;X;X-X-X;X;X2X2X<X<X2X<X-X,X2X<X1X7X1X<X@X+X|.{.{.|.|.OXOXOX-X+X+X+XOXOX|.@X,X,X|.,X<X@X,X,XOXOXOX}.",
"5X5X:X>XoX>X-X-X>X=X-X-X;X;X-X,X<X;X<X2X2X3X2X2X2X2X6X<XW.n.v.c.j.j.c.n. X,X|.|.OX+X+X-X+X+X+X+X+X+X+X+X@XOX|.OX,X,X,X,XOXOXOXOX",
"2X5X5X;XOXOX<X>XoXoXoXoXoXoXoX-X<X2X2X2X2X2X3X2X7XrXY.f.) E T P P K N b K j.@X@X@X<X<X<X<X@X,X@X@X+X|.|.@XOX+X|.-X<X<X<X+XOX-XOX",
":X:X:X2X<X=X>X=XoXoXoXoXoX}.}.oX;X<X2X2X2X3X3X1XrXn.( ~ T T T P L V M f 2 $ ! eX1X<X<X<X<X<X,X@X@X+X+X+X@X@X@X,X+X<X<X<X<X-X-X-X",
"2X;X>X;X>X=X=XoXoX}.oX=X-X}.oXoX;X<X2X2X3X3X6X6X^.( ~ T P P K c f y : - $ $ o h.tX@X<X<X<X<X,X@X@XOX+XOX,X@X+X<X,X,X<X2X<X-X,X,X",
":X;XoXoXoX_._.oXoX}._.oXoXoXoXoX;X<X5X6X2X<X<XrXf.K K K N c d y - $ @ + + + + > [.1X<X@X@X,X@X@X@X@X+X+X@X,XOX,X<X<X<X2X2X<X;X;X",
"`.oXoXoX(./.(._._._._.}.}._._.OX;X<X<X<X@X+X#X{.T c c c v y ; = # O + + O O + + m.eX@X@X@X@X@X,X,X,X@X+X@X@XOXOX-X-X<X<X2X-X;X<X",
"(._._././././.(.(.(./.(.(._._.}.oX;X;X+X+X+X#XB.c c d i : = $ # + O + X X O + O z.1X@X@X@X@X#X,X,X<X<X,X+XOXOX-X-X-X-X;X;X-X<X<X",
"_._.~./.(._./.(.(.~.).)./.(._.(.}.OX#X+X+X+X<Xn.y d y : - & # + + O X X X O + O l.#X@X1X3X<X<X<X2X3X3X,X-XOX}.}.OX}.OX-X-X;X2X,X",
"/./.~./.(.(.(._._.~.~./.(.(._.}.}.oX+X+X+X+X<Xn.u j : * & $ @ + + X O     X +   l.aX#XeX1X<X<X<X<X<X3X<X;X-X}.}.}.}.-X-X=X;X;X-X",
"!././.~.~.~.~.(.(.~.~./._.(._._.{.oXoX{.+X+X#Xn.p *.=.A - @ + X O + o < t 2.2.t w.#XrXeX<X<X<X<X<X<X3X3X<X-XOX}.-X-X;X;X-X;X-X-X",
"U.R.!.U.~.!.~.~.~./.(.(._._._.(.{.oXoX+X{.{.#Xn.* S :.;.F $ $ # 7 < < *.-.-.7.;.5.$XiXeX1X1X<X,X<X<X3X2X<X-X-XOX-X;X;X2X;X2X<X2X",
"I.U.U.R.R.R.!.!.!.~./.~.).).(._.}.}.oXOX+X+X#Xn.U 0.;.&.;.*.>.>.2.t %.$.D $.e 5 x.kX3X@XrXrX1X<X<X3X3X3X<X<X-X-X;X2X<X2X2X2X3X2X",
"Y.Y.R.U.R.!.I.!.!.!.~.!././.).(.).(.oXg.g.b.n.b.v.b.z.&.&.7.5.0.>.2.%.=.S j u * n I v * V eX3X<X<X2X<X2X2X<X<X2X2X2X<X2X3X9X9X6X",
"].Y.Y.U.R.I.I.!.!.!./.~./.(.)._././.}.v.,   X * u p g 8 e S %.x x J 5.5.*.F , +   . . % 0.1X,X,X<X,XOX<X2X2X2X3X2X2X<X2X6X9X9X9X",
"U.U.V.U.!.I.I.I.!.!.~././././.(.(._.{.+X{.k.M = 1 q X.o.J $.6.o.e J *.&.:.&.$.% 8 ^ h.G.rXOX+X}.+X+X,X<X2X3X6X9X9X3X2X8X9XuXuX9X",
"/.(.U.R.R.!.!.I.I.R.~.(.(.).).).(.}.}._._.^..Xz.3.D.S.5.$.:.e.x.A F e.-.-.-.:.e l.eX7X,X+X+X|.|.+X<X<X<X<X6XuXuX9X9X9X9X9XuXuXuX",
"(._.(.~.(.~.~.~.U.I.~.~.).).)._._._._././.Y.N.M.M.J.5.&.7.7.e.>.6 D 3.2.O.w t w Z @.@X+X{.|.|.|.OX,X-X2X3X2X3XuX9XuXdXuXuXuXuXuX",
"_._._.~.(./.).~.!.!.!.~.)._.).~.).(././.~.!.x.t.D.C.-.6.6.=.7 8 F $.2.t.X.4 9 9 3 0.+X{.{.|.+X+X-X+XOX<X2X<X3X9XuXuXfXdXsXsXuX9X",
"!.~.!.!././.).~.!.~.)._._.).!.!.).).~.~.~.Q.B.t.D.Z.u.e.4.4.4.4.4.7.=.F O.9 q q 9 m.^.T.W.{.}.-X-X-X-X<X2X6X9XsXdXdXsXdXsXsX9X6X",
"R.R.R.R.!.!.~.).)._._.'.'._.).).).).~.U.Q.U.^.S.D.L.A.p.s.a.1.1.u.8.4.F %.Z q ` 3..X{.^.W.^.}.OX,X<X;X<X6X9X9XsXfXfXdXsXuXsX9X9X",
"!.R.R.I.I.!.!.).).)._.'.=X`.=X'.)._./.~.Q.~._.K.D.L.s.a.P.u.u.,.u.i.6.=.e ..q ` q.<X+XOX}.^.|.OX<X2X;X<X8X9X0XsXdXdXdXsXuXuX9X6X",
"R.E.I.I.!.!.~.).).`.'.=X;X>X;X;X=X_.oX=X).}.=X[.D.L.s.<.1.<.p.u.u.8.7.=.A o.q ` N.9X<X<XOX+X-X<X5X6X<X2X5X8XsXsXdXdXdXuXuX9X9X6X",
"E.!.!.!.!.~._._.`.`.>X;X:X:X:X5X5X:X2X5X:X2X:X%XH.L.Z.,.<.1.1.u.i.9.5.F l o. .` M.gX3X3X3X3X<X<X3X8X8X8X8X9XfXdXdXsXsXuXuX9X9X9X",
"!.!.I.!.~.)._._.oX>X;X>X:X5X:X:X:X8XqX8X8X8X8X%XF.L.C.8.<.<.u.u.8.6.*.A 7 +.q O.[.gXuXuXuX6X6X3X8X9X9X9X9XdXfXdXsXsXuXsXuXuX9X8X",
"!.!.R././._.`.`.oX=X;X;X:X5X5X8X:X8X8X8X8X8X8X8X$XJ.J.w.8.u.8.9.6.*.F 5 Z X.0 N.gXuXuXuXuX9X8X8X9XsXsXsXsXsXdXsXsXuX9XsXuX9X8X6X",
"!./.(./._._.oX=X`.oX=X:X5X5X5X8X8X8X8X8X8X8X8XqX9XJ.J.C.%.=.;.;.=.D 5 7 X.` ` %XfXdXdXuXuXuX9X0X0XsXsXdXsXsXsX9X8X9XsXsX9X8X3X2X",
"_.`.oXoX_._.oX=X>X>X;X;X5X8X5X8X8X0X0X0X0X0X0XqX0XXXH.H.M.J A r 8 8 7 +...0 q.jXdXdXdXdXsXuX9X0X0XsX0XsXsXsX9XwX2X9XsX8X8X2X5X2X",
"oXoX>XoX_._.=X=X;X;X;X;X:X5X5X8XqX0X0X0X0X0X0X0X8X1XH.H.H.S.t.q.3.o.X.X. .0 x.jXiXdXdXdXdXsXsX9XsXsX0X0XsX0X8XwX2X8X9X2X2X2X;X;X",
">XoX=X=XoXoXoX-X>X>X;X;X;X2X5X8XqX0X0X0X0X0X0X0XqX^.M.F.H.H.H.F.A.3.` ` q ` _ 4XgXdXdXdXuX9X0X9XsXsXsX0X0X0X8X8X8X8XwX2X<X<X-X-X",
";X>X>X;X-X=X=XoX>X=X;X;X:X2X5X8XqX0X0X0X0X0X0XqX8Xf.C.S.S.H.H.A.t.X.` q 0 +._ k.kXuXdXdXuX8X8X9X9X9X9X9X9X9X8X9X8X8X2X2X<X<X-X-X",
";X;X;X;X>X-X>X;X;X>X;X:X2X2X5X8XqXqX0XqXqX9X8XpXn.W XXK.A.M.t.q...9 q 9 0 K.h.; eXgXdXdXuX9X6X9X3X9X3X9X9X8X8X9X6X5X;X-X,X-XOXOX",
"2X:X5X;X;X;X;X2X;X2X5X5X5X5X6X8XqX9X9X9X9X9XaX^.) G *XyXJ.S.t.3.....` ..N.yX_ o / jXdXuXsX9X6X9X3XrX6X9X9X9X9X8X2X<X-X-XOX-XOX+X",
"5X5X5X5X5X2X<X;X2X5X5X6X8XqX9X8X9X9XuX9X9XaX+Xf._ M [.kXlX*XJ.F.A.A.S.*X&X%X! # & _ iXgX9X9X9X9X6X6X6X6X9X9X8X3X2X2X;XOXOX-XOXOX",
"5X5X5X5X5X5X;X<X5X5X5X6X8XqX9X9X9XuXuXaXgX^.f./ _ z G.kXlXlXlX%XyXlXhXyX&X%XN $ : $ L eXjX9X9X9XrXuX9X9X6X3X3X6X2X2X<XOXOX+X+X+X",
"6X8X5X5X6X5X2X5X5X5X6X9X9X9X9X9XfXgXaX-Xc.H ^ / / n x.kXlXlXlXM.K.jXlXyXyX[.y & - > , c T.gXdXrX3X9X6X9X9X9X9X9X3X3X2X<XOXOX+X@X",
"6X8X5X6X6X5X5X6X5X5X6X6X6XuXaXgX2XB.j.( M G ~ W ^ n 0.kXlXjXeX#.#.lXlXyXhXB.& - - , a > a j.,XgXjXiX6X9XuXuXsXsXuX9X3X3X<X<X,X,X",
"6X8XqX9X9X6X6X6X6X2X6XpXpX6XW.j.) Q Q W M G W G G V C %XhXkX[.#.#.XXkXyXhXl.$ - - > j a M M ! k.T.rXjXgXuXuXdXuXuXuXrX7X3X<X,X<X",
"6XqXqXqXqX9X6X6X6XpX<XY.j.) U G U / / V z W G G V V a m.hXjXG.| ] G.kXeX&X>.# - - 2 s : M L L P ! ) v. XgXjXdXuXuXiXrXrX3X<X<X<X",
"6X6X5X8X8X6X6X6XpXV.) B B U Q Q W Q W M z ^ G V B V f m.hXyX*X#.+.%XyXyXyXU $ - - s i : b B U ~ _ ~ U ~ k.T.dXgXuXiXrX7X3X<X<X1X",
"6X6X5X5X6X6X6XpXc.m G U U U Y U U G B M y C ^ V C V d l.kXlXyX#.r.yXlXhX[.y & = : s h i f N U ~ ~ ~ ~ ~ L P f.|.dX3X3X1X1X1X1X3X",
"6X5X5X6X6X6XaXY.I B I U V G G G G B B M a M W V C V g ^ yXkXK.| #.K.jXhXm.* - - > h M g f M L ! ! ! ! ! U T K B .XtX<X1X1X1X1X1X",
"qXqX5X6X8X6X6Xg.K g H U B N B G V B B l h G V V M C n h %XkXr.| } M.lXhXf.# - - i h c > g N L U Y Y Y Y B B ~ c ^ eX<X3X<X2X3X3X",
"qXpXpXqX8XpXW.R I a B U U n n H B B N M a M C V M N N a G.kXr.} | r.yXtXn $ - - a b d : N N V U U U U V h V ! V i B.6X<X<X2X2X3X",
"pXpXpXpX9XaXc.R B y n Y U B c B B B N N f a V C M M B > x.hX#.| #.+.&XT.& - - : a h : a N N L U U U L M g ! L L : k.pX,X<X<X2X3X",
"pXpXfXfXpXpXf.R n : g Y G B n n N B N N M > h C M M M > 0.yX#.| } ] XXk.@ - - > a a - c M N V U L L L d M U L B u ^ tX<X,X<X1X7X",
"pXfXfXfXgX6Xd.I n : p Y U U N g n N N N M a y C n g h p C *X#.} ] ] M.m # = - y h : y M N N V L L L N y b M V M y a @X1X<X2X1X3X",
"fXfXgXgXgX<X) R n > & U Y I m g n N N B B c : l h f g a j N.} } ] { o.u $ = : s a = g n M M V U L V g i c b V M a $ m.rX<X1X3X7X",
"fXgXgXdXjX|.E I n p @ d Y I B g c N m B B M i y n j f a : +.| } ] | Z - & - > h & > M c c M N V B N y a d c N c d @ x.aX3X3X7X7X",
"fXgXgXgXjX XR I n p @ & U I B c g N N N B B c ; f f s a ; 0 | } { #.z & & : a y # f c c b M B B B d - f y h M f i + h.aX3X6XrXrX",
"fXgXgXgXjXW.R I n d # + B Y B n c N N B B B M i a f a a y 2 } { } +.u $ = > h & : c c c M M B N n ; ; d : h M d > + ^ aX3X7XrXrX",
"gXfXgXdXjXT.R I g d $ O n Y V M c M B B V V B h > h a a p & ' } } Z - $ ; s a $ f c c b M b N N d $ > a ; b M i : @ C tX3X3XrXrX",
"gXfXgXgXjXT.R B d a & X a Y V N c n B V V V B M a a f y > & 4 | [ z & = > z - : h h c h c c M M y $ i y ; b M y - @ j tXiXrXiXiX",
"gXgXgXgXjXT.I B a > & X : ! B N n M B V U V V B M y f y > - < { +.p $ - f a $ f h h c c h c M g : # a : - b M y ; & , @XgXuXuXiX",
"gXgXdXdXjXT.I B y - = O # G V N c M B B U V G V B g a f : : # ' X.; & > z $ > h g c b c g h M a = # a : - M M y : & % G.jXiXuXiX",
"gXgXdXdXkXn.I B : $ & O O M U B n M N B U U U V C M y a : - * 4 Z ; = k : & f f h b h g f g c > $ $ i ; : C b > : = O x.jXuXuXiX",
"gXgXgXdXkXn.I B > # $ + X a U B n b B B U U U V M N g : y = = < x - a a # a f f g h h g d f d - # $ i - > B b a : = O l.kXuXuXuX",
"gXgXdXdXkXn.I L > @ # + X : U V M M N B W W U V N M M y > : & , z > f # : h f f f h h d a d y = # $ i - > M b f : - X h.kXuXuXuX",
"dXdXdXdXkXv.I V y + @ + X $ G U N M B B W ! U V N M M d - > & > h f - $ s f f h h k f a i a > = # $ y = 2 B k s > - O ^ jXiXuXuX",
"dXdXdXdXjXj.U V a + @ @ X @ V ! N c M M V W W V V N N c : ; & 2 h a + > f h f f k k f a y > ; & $ $ > = a C h f a ; O C lXiXuXiX",
"gXdXdXjXjXj.R H d + + + X + M Y N c M M V G G V V M b h d & # s z # & s f h f k k h d y > : - = $ $ > = s V g h d - O C lXiXiXiX",
"gXdXgXgXdXf.Y H g @ + + X O M ! N c M C L L V V V N b c f > @ k > O i a h f f k h h a y : - = = # $ : = k V f b f ; @ a tXdXiXdX",
"gXgXgXgXiX) R H g @ O O X O n Y B b b M V U L V B B M c f i - g @ = a s s f h f h f a > : - = = # $ : = k C h b d - # - @XgXuXuX",
"fXfXfXgX3X) Y U g @ X X X O l U B b b M V U L V B B N b f y > a X > a s s f k h k f a > : = = = # # - - b C k b a = # $ .XuX6X6X"
};
