/* XPM */
static char *_e7b75bc2a554da8c681d771cf2e1660UWKcNTsfzhhW6MeZ[] = {
/* columns rows colors chars-per-pixel */
"64 64 256 2 ",
"   c #120E0D",
".  c #1A0F0E",
"X  c #0A190B",
"o  c #13120E",
"O  c #19170E",
"+  c #1A190E",
"@  c #161A0B",
"#  c #090B19",
"$  c #140E13",
"%  c #091719",
"&  c #0A1919",
"*  c #091817",
"=  c #141211",
"-  c #161817",
";  c #191813",
":  c #161919",
">  c #181B1A",
",  c #171716",
"<  c #0D0C0C",
"1  c #192B1A",
"2  c #162818",
"3  c #1A2B14",
"4  c #26321A",
"5  c #252F17",
"6  c #091726",
"7  c #091826",
"8  c #091929",
"9  c #05172A",
"0  c #161A29",
"q  c #171826",
"w  c #091A3A",
"e  c #071837",
"r  c #101430",
"t  c #261C2D",
"y  c #182828",
"u  c #193828",
"i  c #092739",
"p  c #19293A",
"a  c #172738",
"s  c #0F2D2D",
"d  c #272826",
"f  c #253526",
"g  c #283928",
"h  c #252837",
"j  c #283436",
"k  c #383739",
"l  c #342A32",
"z  c #463431",
"x  c #73372A",
"c  c #1A4E29",
"v  c #2A4A29",
"b  c #274527",
"n  c #295A29",
"m  c #385929",
"M  c #325036",
"N  c #386C32",
"B  c #346C2F",
"V  c #21521C",
"C  c #454F36",
"Z  c #4B7633",
"A  c #4D742E",
"S  c #535E1A",
"D  c #091A4D",
"F  c #05174D",
"G  c #0F1C4D",
"H  c #092645",
"J  c #082749",
"K  c #092949",
"L  c #072747",
"P  c #172848",
"I  c #183748",
"U  c #092654",
"Y  c #092956",
"T  c #09295A",
"R  c #06275A",
"E  c #192A59",
"W  c #172856",
"Q  c #173656",
"!  c #093652",
"~  c #242845",
"^  c #273646",
"/  c #253656",
"(  c #2F2E4C",
")  c #071B66",
"_  c #082866",
"`  c #082969",
"'  c #082767",
"]  c #093567",
"[  c #173667",
"{  c #082976",
"}  c #082B79",
"|  c #083676",
" . c #083679",
".. c #093879",
"X. c #073778",
"o. c #173372",
"O. c #233663",
"+. c #194552",
"@. c #2C4755",
"#. c #314852",
"$. c #304F63",
"%. c #2A5A5D",
"&. c #555955",
"*. c #494C45",
"=. c #576C50",
"-. c #68754F",
";. c #5A6A68",
":. c #526D6F",
">. c #656A66",
",. c #687768",
"<. c #757968",
"1. c #667675",
"2. c #777875",
"3. c #56565C",
"4. c #A33313",
"5. c #DA190D",
"6. c #CE190F",
"7. c #EC1509",
"8. c #D3280F",
"9. c #E8240B",
"0. c #F22A08",
"q. c #967338",
"w. c #DA590E",
"e. c #EB590B",
"r. c #F65C09",
"t. c #E55912",
"y. c #ED680B",
"u. c #F76709",
"i. c #F8740A",
"p. c #F66914",
"a. c #F67415",
"s. c #EB6F12",
"d. c #897263",
"f. c #5A8B12",
"g. c #6C9712",
"h. c #6F9911",
"j. c #598A29",
"k. c #4A8839",
"l. c #588A37",
"z. c #53912E",
"x. c #699828",
"c. c #688936",
"v. c #689737",
"b. c #779A39",
"n. c #709129",
"m. c #58A337",
"M. c #76A839",
"N. c #75A638",
"B. c #74A62B",
"V. c #7CA615",
"C. c #548E45",
"Z. c #73994A",
"A. c #72944B",
"S. c #77A74C",
"D. c #7BA452",
"F. c #7A8877",
"G. c #788C65",
"H. c #57A344",
"J. c #3A843C",
"K. c #85962E",
"L. c #84A63D",
"P. c #8DAC30",
"I. c #ACB529",
"U. c #9EA22C",
"Y. c #F09216",
"T. c #EBD90A",
"R. c #F6DA09",
"E. c #E9DB16",
"W. c #F1D413",
"Q. c #E9E30B",
"!. c #F8E708",
"~. c #EBE516",
"^. c #F7E615",
"/. c #F8F614",
"(. c #F7F30B",
"). c #EFE72C",
"_. c #DACE27",
"`. c #88994B",
"'. c #909750",
"]. c #86A842",
"[. c #87A856",
"{. c #94B351",
"}. c #A8B450",
"|. c #8D9277",
" X c #8E9177",
".X c #A8B56A",
"XX c #A1A075",
"oX c #A9C163",
"OX c #E8DB4A",
"+X c #EDE752",
"@X c #DBD96E",
"#X c #E0DB58",
"$X c #D3B953",
"%X c #0A3686",
"&X c #0B398A",
"*X c #093688",
"=X c #0B4993",
"-X c #124E96",
";X c #114A90",
":X c #1B5CA8",
">X c #3E72B3",
",X c #4478B7",
"<X c #778886",
"1X c #5083BE",
"2X c #5A8EC7",
"3X c #6699CD",
"4X c #7EABD5",
"5X c #8D9788",
"6X c #95998A",
"7X c #8D9793",
"8X c #96A48D",
"9X c #9AA792",
"0X c #9FB097",
"qX c #A8A888",
"wX c #A8AA98",
"eX c #A8B599",
"rX c #B7BA98",
"tX c #B2B289",
"yX c #9CACA5",
"uX c #ABB5A4",
"iX c #B4BBA7",
"pX c #ABB0AB",
"aX c #C4BBA9",
"sX c #B8C5AA",
"dX c #BBC6B5",
"fX c #BFC192",
"gX c #D0CF99",
"hX c #C7C7A8",
"jX c #D6D6A8",
"kX c #C6C9B6",
"lX c #CBD6B7",
"zX c #D7D8B9",
"xX c #D0D0AA",
"cX c #E8D9B6",
"vX c #D9E5BB",
"bX c #E8E7B5",
"nX c #EDCE90",
"mX c #89B4D8",
"MX c #BDCDC9",
"NX c #AFD4E6",
"BX c #9BC4E1",
"VX c #D3D7C6",
"CX c #CFD3C5",
"ZX c #D9E6CA",
"AX c #DFE2D6",
"SX c #E8E7C8",
"DX c #E8E9D8",
"FX c #F4F5D4",
"GX c #F4F6DB",
"HX c #F5F8D9",
"JX c #EFF1D1",
"KX c #CEE5E9",
"LX c #F3F6E3",
"PX c #F4F8E8",
"IX c #EEF5EC",
"UX c #D4DCD9",
/* pixels */
"  =     <   = =   $ $ $ $ $   =   $   $ $ o       o = = = = o = = o = = o o o o o o o o o o o o   $ = = O ; ; ; = o     = = o   ",
"o P E E U W / W r E W W ( W P / P P H W W H H P P W ~ W Q / P / I P ^ ^ h h j ^ ^ h p l d h j h h P $./ $.$.$.$.$.$.@.^ ^ I @.o ",
"o D D E E P ( / E [ E Q E O.Q E Q E K P K P K W P W K P P / E P p I p h h ^ p ^ ^ h k 5.5.l h y h P @.@.@.@.$.@.@.@.@.@.I I @.o ",
"  D W E W E / Q E / / E E Q E w Y _ Y Y P ] E W K Q K Q P K P Q / I p a p h p ^ ^ ~ ( 9.0.l h h p P / @.@.j @.I @.@.I @.@.^ I o ",
"  W E Q P W E E [ E E E [ E E D E [ T T Y T Y D W W w K ~ ~ I P p ^ ~ a a h p p ( 5.9.W.E.l a y p Q / ^ I I j p I I I +.^ I @.o ",
"  W [ E E E E E / / o.[ [ [ [ T E O.E T E T P D Y D P W 5.6.h w P p a h a ~ p ~ l 7.0.!.Q.f a ~ p P P P i ^ K L K ! K +.Q K I   ",
"  W P E / Q [ [ [ [ [ [ [ [ [ [ E T T T T _ T D Y D Y ~ 9.9.~ ^ P P p p l ( ^ a l e.r.(.T.j a p p p a a e P w P i K I p i I P   ",
"< U E [ [ ` [ o.o.] o.o.o.[ [ [ [ ] _ _ _ T _ T ] T O.8.R.Q.j a P a P t 5.5.^ h l e.u.(.T.d I i p p a a e a 8 P H P P L P w H   ",
"= O.T _ [ o.o.o.[ o.o.o.....o.o.` ` _ T _ T _ T T R O.s.!.Q.j a P p ^ l 7.7.~ r ~ e.r.!.).j i I p a 0 a e i e e e J K H e e H   ",
"$ Y ] [ ..o.o.} | ..o.o..... .}  .| ` ` ` _ T _ T T E y.!.T.h ~ a z 5.7.0.9.( P ( e.u.^.).#.^ P P t ^ h H i P e H Y K K H K P   ",
"= [ ` ` | .. . ...o.} o.o...%X .%X..| { { ` _ _ ] T Q s.^.E.j a a t 7.0.R.T.l P ^ Q.^.FXJXa.t.^ / 5.7.5.P J K L H K Y H w Y U   ",
"= ] o.' } =X}  ...}  ...o.&X*X*X&X%X} | ` ` ] T T ] +.E.FXJXs.t e t e.u.!.Q.#.k z ~./.FXLX/.!.+.p 7.7.9.~ P K L w Y Y w J D H   ",
"= |  .{  .} %X&X..X.*XX.X.=XX...=X&X%X} { ' ` _ Y I #.~.HXFXs.t e ^ y.i.!.^.xXt.w.^./.GXGX^.T.k ( 9.0.9.a L K J H J D Y Y Y ! = ",
"= _ { ` | } ..=X=X&X-X-X-X-X-X-X&X=X&X} { ` _ ' W w.y.^.GXHXE.h W 1.a.i.!.^.vXtX}.JXGXPXLX^.0.7.9.R.!.OXI L K K K K K ! ! K L = ",
"$ _  .{  .%X;X-X,X,XNXBXKXKXKXBX-X*X%X} { ` ` ' P y.u.~.LXLX~.#.yXxXp.i.!.!.uXpXeXZXPXGXFX^.0.7.0.^.(.OXI L K J K Q ] Q Q ! Q = ",
"= ` }  . .o.&X=X2X1XKXNXIXKXMXBX-X*X} %X} { ` R Q W.+XJXPXFX).xXZXnXY.Y.^.~.6XwXDXJXDXSX#XY.0.0.0.R.(.OXp K K L Y ! ] Q ! Q Q = ",
"= _ }  .%Xo.*X-X3X3XKXKXIXKXMXNX-X=X&X*X} { _ R W y.i./.FX@XzXZXSXbX^.^.FXFXp.p.GXDXDXDXZXcXp.u.r.!.!.E.! L L J Y K ! ! ! K H o ",
"= _ ` { } %X&X-X2X3XKXNXNXNXKXDX-X=X&X*X} { R ) G w.i.T.@XkXVXVXSXbX^.^.LXLXu.u.kXSXDXSXSXSXa.u.u.!.!.T.+.L L K K ! i K K Y U = ",
"= | } {  .*X;X=X,X2XKXNXNXNXKXUX-X=X&X*X} ' ) D D G a #.dXVXDXnXp.p.^.^.LXFX^.^.MXGXSXZXSXzXp.r.u.!.!.^.9X%.! ! K K L H H w H o ",
"= _ ` | o...&X=X,XmXNXNXmXIXKXBX-X*X*X*X%X` _ T D F D yXMXDXDXcXp.u.^.).LXGX/./.MXGXSXFXzXjXa.u.i.(.!.Q.yX9X+.i K J J e e e e o ",
"o ] ` {  .%X*X&X,X3XNXNXBXmXKXNX:X&X*X}  .` T ) R D z kXZXHXHXbX+X).HXLXLXGX/./.lXHXDXcXSXzXxXa.i./.^.~.|.6X5X! L w H J K ! e   ",
"  _ | ` %X*X%X&X,X2X4X3X2X3X1X4X:X=X*X%X .` T D _ E yXVXZXHXPXSX^.@XGXLXFXFX/.(.SXJXSXSXSXZXzXE.~.FXJXSXa.r.s.$.e e w Y J K H   ",
"  E ] ` | o.o...:X1X2X2X2X3X2X1X-X=X} } { ' ) P 6.8.dXSXSXSXPXJXi.u./././.).i.i.SXHXSXSXSXSXlXgX+XLXIXGXp.u.y.,.K e H w e e H o ",
"  Y ` T ` _ _ | =X=X=X:X-X-X;X=X=X&X%X .{ ` ' G 6.8.CXDXJXJXGXcXp.u.!.(.(.).a.a.SXDXLXHXJXbXzXjX+XGXPXGXp.r.s.,.K e e D H e e   ",
"= Y ` [ Q J e w T [ ] =X=X=XT | =X&X*X} ` ' ' W e.p.ZXDXHXJXDXHXJXiXuXiXsXsXzXJXJXLXSXSXbXzXzXlX+XGXIXGX^.!.R.1.T L e J K Y H   ",
"= [ [ Q # 7 0 6 8 e J | ;X..Y w |  .} | ' ) ) W y.a.zXDXHXLXJXPXPXdXDXGXGXGXHXJXJXHXbXzXzXbXvXlX#XGXIXGX^.!.^.,.! e e H K ! H   ",
"= [ Q e 6 6 8 & e e 9 8 w [ w 8 w _ ] ` ) T ) W y.p.iXDXSXSXSXLXPXHXJXDXHXSXHXHXJXSXSXbXcXZXSXkXgXLXPXGX^.!.Q.;.! e H D J Y H   ",
"o P P 0 # 6 a i e 8 6 7 % 8 8 8 6 i [ _ ' _ R G y.a.rXZXDXvXzXSXJXDXJXJXJXSXSXcXcXbXjXSXcXzXlXhXkXLXPXGX).~.~.;.! e e J D T H   ",
"o q 0 q # $ 7 8 & 7 : 7 6 % 6 # # # e D _ ) R P T.E.rXDXSXzXlXVXSXSXHXHXJXSXcXzXcXZXVXzXSXhXrXeXDXPXPXGX^.^.^.;.K L H K ! T H o ",
"  q 7 7 % % : & q q & & q % % % % # 9 H D T E ( T.~.hXSXzXlXkXqXrXbXzXjXxXxXtXwXsXwXdXlXlXzXsX6XZXGXGXFX).W.W.;.! e D w H J e o ",
"o % & : : : & : & % & : & & 6 # 6 6 8 H F W t.e.).jXSXhX-.&.&. XqXrXjXjXqX6X9X=.C k l S qXiXuXuX#X/.^.^.p.r.s.=.! F J D F D U = ",
"o % q q : # : & : # q & 8 s 0 6 % # 6 e F W y.u.#XjXrX&.M C -.k 2.qXVXjX|.6X&.k d d d 4.8.4.hXiXU.!.!.!.i.u.y.;.K L H w F D D = ",
"  % q & & : # q : % : # 7 7 & & y 6 7 8 F P T.^.JXzX&.k &.U.P.d d wXDXZXrXF.&.#.j : @ t.y.y.'.rX0XE./.T.y.e.s.:.K e e e e J D = ",
"  , : & : > % q , # % q % & & & & # 6 8 e P E.~.JXxX X8XeX^.T.3 d  XDXDXsXqX<.&.k y X z >.<.8XkXeX2.>.>.>.,.;.$.K e e i D D U = ",
"  X - : # : & & : % % $ # % % : : % 7 7 9 G y.i.^.@X.XjXgXi.y.&.*.wXLXzXdXsX-. X*.M X M wXpXsXlXrX;.;.;.,.>.1.:.w e e e e J H o ",
"  , & : : & : & & q & * # % & % & & y 7 9 r w.e.W.jXlXsX$Xp.s.7XiXrXJXDXlXzX6X<.=.&.(  XzXkXiXCXrX1.;.1.F.F.<X:.e e 6 6 0 a a o ",
"  * : 2 & & & - X & 6 # % & 8 & & % & & 6 8 y s +.dXcXhXsXhXhXwXiXZXCXhXzXiXxX X|. X<.qXhXhXtXCXeX1.x 1.2.<X1.Q e i r 0 0 8 e o ",
"  - - X - : 2 X * - & y & * & 2 & # q % # * * % K sXjXrXhXwXwXxXiXCXd d kXkXkXzXsX|.5X6XrXrXSXzXrXG.q.F.<X1.1.p e a 8 8 i i s o ",
"  2 2 2 2 2 : - & @   X * @ - & * & 2 & % & * q #.uXjXrXrXzXgXXXeX7Xd d l iXkXrXSXSXlXqXwXCXSXdXkXuX}.uXyX>.$.p H e 8 8 8 s 7   ",
"  , > > : * * * - X * * & 2 X - & & 2 y & 7 2 y 1.9XuXuXsXiXrXqXkX&.l =.0 ( iXiXhXhXzXlXzXvXlXxXyXiXlXsX5X1.j i i r 0 0 q y 7   ",
"  , - , $ X < X X @ 2 @ * 2 * @ 2 * : & 2 s y u M 8X|.2.G.,.8XtXrX*.j 5X;.( iXwX8XXXF.9XpXiXhXlXiXsXeX1.;.j y 0 a y q y 8 0 8 o ",
"o 2 < , < 2 > - - X - @ X X @ , 2 X 8 8 2 s y y u 5X|.5X8X,.>.wXxX>.*.|.&.&.uXiX2.&.F.F.8X6XsXhXeXwX>.1.1.j a a y 7 8 y a s a o ",
"o 1 : 1 5 4 f 1 2 2 1 d & & , $ & 2 @ & 2 & s : > :.uX9XwXqX<.wXxX>.&.&.&.&.hXrX9X8X8XqX6X9XeXeX5X<.`.F.$.p y y a y 0 0 8 s s o ",
"o f 1 d 1 4 1 b + 5 4 1 2 u 4 y > f 1 : u u u u # u =.<X7X9XeXXXtXiXz dXF.M hXrXsX6XwX8X<X<X,.:.;.0XwX4.4.p y y y y i y & q y o ",
"o f g g 4 f 1 2 1 4 1 f d 1 f 4 1 f u u 1 b u f % b u #.;.;.9X8.8.d.kXhXCXCXhXkXiXeX7X1.y l <X,.1.yXwX4.4.j s > y > : > 2 > q o ",
"o b b f 1 + , 2 u b f 1 b V 1 f f 4 V u b 1 4 y f g b v M v C 8.8.q.wXlXzXlXxXhXrX6XF.k 6 l F.1.2.wX.XU._.u 8 y > y s : : 0 q o ",
"o 4 > . y 1 2 1 1 d 1 y 1 > 2 1 1 g b g v n v b v v b u M 6.8.R.T.d.iXhXsXeXrXiX|.5X>.#.P ;.qX8XF.eXtX_._.f 0 y u y p a y q 2 o ",
"o 1 f f f f y f b g f f u 4 u u b u b v m M n v b u v b v 6.9.Q.Q.<.iXrXuXuXqXiX|.<X&.I ;.eXeX5X|.DXFX^.$XM u y u u u y > y u o ",
"o m m m M g v v b v g v g v v m m v v M m N n m v m M m m e.r.!.Q. X|.F.2.F.,.|.>.>.<.;.<XCXwX5XU.~.+Xu.e.M u b g b v M v n n o ",
"O v.N.v.v.c.j.j.j.z.j.j.l.v.v.v.z.l.l.k.C.l.k.A m S B z.b.e.r.!.Q.6XsXsX6XhX1.pX;.-.2.8XsXlX9X X_.~.OXe.t.V u n v v v v n n n o ",
"o N Z N N l.l.l.Z l.j.f.z.f.g.f.z.N.N.l.v.v.Z z.j.A j.k.j.e.r.!.Q. XCXkX8XxX2.iX&.<.XX6XZXsX|.<.F.-.Z A A m n N m n m m m n B o ",
"O c.n.c.N N n n N =.A A A l.k.l.l.l.l.A l.m.H.m.m.l.m.z.j.y.i.~.~.XXaXXXwXlX6XlX X<.qXhXzXyX<.,.,.m n m Z =.N M M m m m m m S o ",
"O A l.C.c.A.k.C.k.j.l.x.m.x.f.f.f.f.f.f.k.Z l.l.C.k.l.z.z.T.~.FXFXp.p.aXkXrX5XiX8XeXqXhXlXF.,.,.n V c c N N N N M M M n m -.k.o ",
"+ L.[.[.[.[.[.A.b.S.N.L.L.v.c.x.v.v.v.v.N.N.N.N.v.N.v.c.c.Q.~.LXLXa.i.eXuXCXwXwXkXrXtXrXrXF.=.Z A N N N N n n v v b v m v.M.b.+ ",
"; Z.Z.D.[.n.v.b.N.N.B.B.h.x.n.n.v.v.v.N.V.N.B.v.v.v.K.e.y.Q.^.GXLX+XE.<X<XkXXXwXeXhXrXrXqX<.M Z N N m m N m n v n v k.z.m.M.b.O ",
"O C.C.,.j.f.f.f.f.h.f.g.g.g.x.x.g.f.V.h.g.g.g.g.g.V.L.i.u.^.~.LXLX/.(.G.<.uXwX6XeXrXrXqX=.v c n N N N N N k.S.N.P.P.B.B.P.I.b.O ",
"O v.m.v.N.L.L.L.L.L.v.v.j.z.j.z.z.j.j.l.c.j.A c.A x.L.R.W.FXGXPXGX/.!.<X<XkXkXkX<.tXeX-.c c c c N J.C.S.N.N.N.N.L.P.L.P.I.I.K.+ ",
"O v.l.j.j.j.j.b.v.n.x.v.j.v.z.j.j.N.N.].].].b.N.c.b.].Q.^.LXIXPXLX/.^.7X7XCXDXdXgXtX5XC m C C =.-.x.v.N.N.N.N.N.].S.S.].[.S.Z.; ",
"O c.-.j.j.A z.j.v.v.v.v.m.m.z.z.L.L.N.N.].].L.].{.].{._.W.FXGXGXFX/._.F.F.kXjXtXqX[.A C -.-.A.-.-.b.B.P.M.N.N.N.N.N.].].`.[.D.+ ",
"O Z.S.S.A.S.[.].v.c.c.j.l.c.n.j.v.l.c.v.v.c.v.b.`.`.'.r.u.~.^.).~.u.e.S S Z.{.'.XX[..X}.}.{.[.`.].[.N.S.M.].M.N.N.b.M.Z.A.A.A.+ ",
"+ D.[.[.S.[.S.v.v.n.n.v.l.j.c.c.c.l.j.v.c.v.v.b.`.A.`.e.r.R.).+XOXu.e.'.oXoX.XoX.X.X{..X.X{.{.{.{.}.].v.S.S.].b.L.].[.S.A.Z.A.O ",
"O A.S.S.b.A.l.k.k.C.l.m.l.l.k.[.D.[.S.b.S.[.S.L.x.B.B.K.K.K.].L.'.}.}.}.}.{.}.}.{.{.{.}.$X}.}.I.P.I.I.P.v.A.l.v.j.l.l.l.j.P.n.+ ",
"o S m A N Z C.H.C.C.k.C.N k.Z.G.G.A.Z.D.Z.`.M.x.z.x.x.x.x.x.x.x.v.[.[.'.'.'.`.{.'.'.{.P.I.I._.I.I.I.I.K.c.A Z l.A A A A A v.x.O ",
"  o     < o ; ; ; o o ; ; o O ; O O + ; O O + o o O + + + + + + + + + ; O + + ; O + + + + + + + + + + O + o + + o o o o + + O o "
};
