/* XPM */
static char *xpm_[] = {
/* columns rows colors chars-per-pixel */
"64 64 214 2 ",
"   c #1C1D1D",
".  c #271D13",
"X  c #1F211E",
"o  c #25231D",
"O  c #262C1E",
"+  c #2A291F",
"@  c #1E1D22",
"#  c #241E25",
"$  c #281D23",
"%  c #1E2424",
"&  c #1D2729",
"*  c #1C2939",
"=  c #1E3230",
"-  c #242425",
";  c #2A2525",
":  c #242A25",
">  c #292A24",
",  c #25252A",
"<  c #29262B",
"1  c #252A2C",
"2  c #2A2A2D",
"3  c #31292D",
"4  c #312927",
"5  c #232A33",
"6  c #2C2C31",
"7  c #292638",
"8  c #302F34",
"9  c #342836",
"0  c #2B3139",
"q  c #323135",
"w  c #343338",
"e  c #2C3228",
"r  c #3B413D",
"t  c #06345E",
"y  c #11325F",
"u  c #1C3458",
"i  c #172D5E",
"p  c #352E40",
"a  c #313844",
"s  c #0B2D6B",
"d  c #0B2F66",
"f  c #162E6A",
"g  c #0D3365",
"h  c #0E3867",
"j  c #0D346A",
"k  c #0E396B",
"l  c #063167",
"z  c #143365",
"x  c #1A3466",
"c  c #14346B",
"v  c #1A356C",
"b  c #13396D",
"n  c #1B396D",
"m  c #153967",
"M  c #093B74",
"N  c #0A3672",
"B  c #153571",
"V  c #1A3571",
"C  c #153970",
"Z  c #1C3A72",
"A  c #1A3D7A",
"S  c #152C70",
"D  c #20356B",
"F  c #22396C",
"G  c #2A3D68",
"H  c #233C73",
"J  c #233774",
"K  c #313A75",
"L  c #1F416D",
"P  c #124766",
"I  c #18407D",
"U  c #21406F",
"Y  c #274175",
"T  c #34476F",
"R  c #5E696F",
"E  c #636D76",
"W  c #6A757B",
"Q  c #4B524B",
"!  c #B92E02",
"~  c #AE3603",
"^  c #AD3A03",
"/  c #AC360C",
"(  c #AD390A",
")  c #B33701",
"_  c #BA3401",
"`  c #B33A01",
"'  c #BB3A01",
"]  c #B0360A",
"[  c #B63909",
"{  c #AB3913",
"}  c #A9361D",
"|  c #A33C1E",
" . c #AA3A19",
".. c #A93712",
"X. c #B73B12",
"o. c #9C3E24",
"O. c #963D2B",
"+. c #993E2B",
"@. c #A13E23",
"#. c #C23802",
"$. c #C23B05",
"%. c #AB4218",
"&. c #9D4125",
"*. c #9C4029",
"=. c #A14627",
"-. c #FEED3D",
";. c #FEF134",
":. c #FFF03D",
">. c #F4F134",
",. c #948546",
"<. c #A7975B",
"1. c #B6A66B",
"2. c #C4B479",
"3. c #FFED44",
"4. c #FEEC4B",
"5. c #FFF14D",
"6. c #FDF145",
"7. c #FEEC54",
"8. c #FEED5A",
"9. c #F8E656",
"0. c #FFF155",
"q. c #FFF25C",
"w. c #FFED60",
"e. c #F9E56B",
"r. c #FFF262",
"t. c #F9F06F",
"y. c #FEED74",
"u. c #F6EB77",
"i. c #FFF075",
"p. c #1D4580",
"a. c #747F85",
"s. c #7D888E",
"d. c #89949A",
"f. c #99989A",
"g. c #A09FA7",
"h. c #B3B2BB",
"j. c #B6B8BE",
"k. c #B9BABF",
"l. c #AAA9B1",
"z. c #D3C385",
"x. c #E7D896",
"c. c #E4E096",
"v. c #B5BCC4",
"b. c #BCBEC3",
"n. c #B7BFC8",
"m. c #BBBFC9",
"M. c #C1BFC7",
"N. c #C7BBD1",
"B. c #B7C3C5",
"V. c #BDC1C5",
"C. c #B7C5C9",
"Z. c #BCC3CB",
"A. c #BCC9CB",
"S. c #BAC9C5",
"D. c #BEC6D0",
"F. c #BBC9D7",
"G. c #C2C2C6",
"H. c #C3C4CB",
"J. c #C8C6CD",
"K. c #C4C9CE",
"L. c #C9C9CD",
"P. c #C2C5D1",
"I. c #C4C9D2",
"U. c #CACBD2",
"Y. c #C7CADA",
"T. c #D2CBDB",
"R. c #D0D2DB",
"E. c #DBDBE2",
"W. c #D9DAE5",
"Q. c #E9DFE6",
"!. c #E7DDE6",
"~. c #DEE1E5",
"^. c #DDE4EE",
"/. c #DEE4F0",
"(. c #DCE9F4",
"). c #E3E3E5",
"_. c #EAE2E6",
"`. c #E4E9E3",
"'. c #E5E5EB",
"]. c #ECE5EC",
"[. c #EAEAEE",
"{. c #E6E9E9",
"}. c #F3F3EC",
"|. c #F9F3EE",
" X c #E2E6F1",
".X c #E4E9F3",
"XX c #EBEEF0",
"oX c #EEEEF6",
"OX c #EDECF3",
"+X c #EAE6FB",
"@X c #EEEEFA",
"#X c #E7E8F9",
"$X c #F1EEF4",
"%X c #F1EEFB",
"&X c #FAEEFF",
"*X c #EDF1F3",
"=X c #EEF2FD",
"-X c #ECF7F7",
";X c #F2F1F6",
":X c #FCFAF6",
">X c #F2F2F9",
",X c #F5F2FA",
"<X c #F3F5F9",
"1X c #F6F5FB",
"2X c #F5F5FA",
"3X c #F6F6FD",
"4X c #F5F4FA",
"5X c #F9F6FD",
"6X c #F9F6FD",
"7X c #F6F8FC",
"8X c #F9F9FE",
"9X c #FAF9FE",
"0X c #FAF4F6",
"qX c #EEF3EE",
/* pixels */
"Z.n.n.Z.D.D.m.D.m.@X>X3X9X<X9X6X6X3X2X*X%XoXqX% 0.q.q.q.r.q.r.q.q.q.8.8.8.8.8.7.8.7.7.8.7.7.7.7.7.7.8.r.u.2 +X@X>X3X,X1X1X9X0X6X",
"n.Z.P.K.Z.I.n.a 0 7X7X<X3X8X,X6X6X6X9X<X3X<X-X: q.q.q.r.r.q.r.q.q.q.q.q.r.8.q.8.8.q.8.8.8.7.7.7.7.7.q.8.e., ].>X3X%X2X2X1X1X6X6X",
"v.Z.Z.D.P.C.D.5 5 @XOX9X%X3X9X,X3X,X9X2X3X3XOX% r.r.r.r.r.r.r.q.q.q.q.q.q.r.q.8.q.q.q.0.8.7.0.0.7.0.0.r.y.% 9X7X3X3X2X3X,X6X6X6X",
"Z.D.D.Z.Y.Z.n.0 8 OX$X<XoX<X<X;X2X<X8X2X3X%X[.% r.r.r.r.r.r.q.q.q.q.q.q.q.q.q.r.8.0.8.0.0.0.0.5.0.5.7.8.y.& 6 & 6 6 6 6 6 6 8 6 ",
"n.v.D.Z.D.D.Z.5 2 ;X9X<X8X3X<X9X3X,X2X;X3X-X-XX r.r.r.r.q.q.q.q.0.0.0.q.0.0.0.8.7.7.4.7.5.4.4.5.0.6.0.9.i.& 6 1 2 2 2 6 6 3 1 7 ",
"Z.Z.Z.F.n.v.Z.5 q XX*X8X<X>X3X<X3X,X2XOX@X-X{.% r.r.q.0.q.0.0.0.0.0.0.0.7.0.0.7.7.4.4.4.4.4.5.4.4.0.0.q.i.: - 2 , 2 5 7 2 2 2 < ",
"v.D.n.n.Z.D.D.% , 3X<X3X2X9X3X>X,X;XoXOXOXOX{.X 0.7.0.0.7.0.7.8.0.0.7.0.0.7.7.7.7.4.7.4.7.4.7.7.0.4.0.0.i.X < - : , , , 1 < , < ",
"Z.C.Z.Z.C.n.Z.* 6 [.2X3X<X<X,X3X,X;XoXOX$X%XXX% 7.0.7.0.0.7.0.7.7.8.8.7.8.8.7.7.4.7.7.7.7.7.7.7.7.0.9.9.t.- - : - , - < < , , < ",
"A.N.Y.C.F.F.F.@ 5 oX,X6X9X;X,X;X<XOX$XoXOXOX*X% 0.4.4.4.4.7.7.7.7.7.7.7.7.7.8.7.9.7.7.4.7.7.7.7.8.8.8.7.e.; X - - - , , , , , - ",
"A.H.C.Z.N.m.F.2 6 $X;X2X<X;X$X3X;X,XOX[.,XOXqX& 0.0.7.7.7.7.7.7.0.8.8.8.8.8.8.w.8.8.8.7.8.8.9.8.7.9.7.0.i., 1 & - - , , - , - < ",
"C.D.m.n.m.U.P.w 2 OX1X2X9X;XOX[.OX$X2X9X$XOX*XX 7.4.4.7.7.7.7.4.9.8.7.8.8.9.8.8.8.8.7.9.7.7.7.7.4.q.7.9.u.. ; ; , - , , , , - < ",
"5 6 , % 9 # , 7 - - < , , < , 8 2 , , < , 2 < : : 1 2 2 1 - > < 2 1 : 2 5 1 2 6 2 2 6 3 e 3 2 > p ; 4 3 ; * o < - - , - , , - - ",
"[ _ #._ ' #.[ %., 2 6 6 6 6 q 2 6 w 8 6 2 q 2 - %X%X&X6X6X1X6X6X>X=X>X>X=X=X>X>X+X/.!.R.U.m.k.h.E Q r a 0 : O , , - # , , , - , ",
"_ #.! ! _ _ _ %.- - 6 q , w w 6 6 6 w 7 8 w 8 - @X3X3X6X1X1X1X1X9X6X0X1X6X6X6X6X,X6X9X9X9X9X9X9X9X9X&X1X<X, - - - ; , , , - , ; ",
"' _ #.' ) _ %.&.- w - 6 8 6 < 6 6 q < 8 q < q - #X=X7X3X3X3X3X3X9X9X6X9X9X9X9X9X9X9X9X9X9X9X9X9X9X&X9X6XXX% , : , - - , , , - - ",
"' _ #.) ' #.#.=.- < 6 < 2 6 6 6 6 6 2 q 2 8 q - .X@X3X6X0X6X6X6X6X3X1X2X3X9X6X6X9X9X9X9X9X9X9X9X-X:X6X>X+X; , , , - , , , , - , ",
"' #.[ _ _ ` ' o.- 2 2 2 6 2 2 6 6 6 2 6 6 q 2 : .X%X;X2X6X9X1X9X9X9X6X$X$X1X9X6X9X9X9X9X9X9X9X9X:X6X;X*X+X2 < - - , - ; - - - - ",
"' ' ' ' ` ` ' *.- 6 2 2 2 8 2 6 6 6 2 6 8 2 6 - .X@X,X0X2X3X2X9X9X6X,X$X$X1X6X1X9X9X9X9X9X9X9X9X9X6X;X;X'.- 7 @ - : : - : - : < ",
"' ' [ ' _ ` ) +.: > 2 2 2 6 2 3 6 3 2 6 6 6 8 - .X%X1X1X2X>X2X1X6X6X1X;X$X1X6X3X8X8X9X9X9X9X9X9X6X9X7X@X.X2 # e , < < , - - ; , ",
"' ` ` ` ` [ [ O.- < 2 2 2 6 6 8 2 6 2 2 e 6 6 - .X<X;X;X,X<X,X1X6X6X6X2X,X,X2X9X3X8X9X9X9X9X9X9X0X9X$X3X'., , > , , , < < 6 < 2 ",
"` _ ` ` ` ` ` O.- < 1 2 2 2 2 6 6 6 2 2 6 6 e <  X@X,X;X,X,X;X1X6X9X9X3X2X2X6X2X8X8X3X9X9X9X9X9X6X2X|.$X}.1 > $ - - % @ # - @ @ ",
"` ` ` ` ` ` ` O.: < 2 > 2 e 2 2 6 6 < 6 2 6 2 :  XOX;X;X2X2X;X1X,X6X9X6X6X2X6X9X8X3X9X9X9X9X9X9X9X6X6X6X{.# c.x.x.x.z.2.1.<.,.,.",
"' _ ` [ ` ` ` O.- < 2 1 2 2 < 2 < 6 6 6 2 6 6 :  XOX;X;X2X3X;X2X1X2X3X8X3X2X3X2X9X9X8X9X9X9X9X9X9X6X9X6X3X; 0.7.5.4.7.7.7.9.4.4.",
"` ` ` ` ` ` ` O.> 2 2 < 2 2 < 2 2 6 2 6 2 6 6 ,  XOX$X;X6X3X,X,X2X2X3X2X6X2X3X3X8X3X8X9X9X9X9X9X:X:X9X,X%X< >.-.:.6.6.6.4.6.3.3.",
"` ` ` ` ` ` ` &.: 1 1 2 1 2 1 < 2 6 6 6 6 6 6 , ^..X;X;X,X>X3X1X2X,X,X2X1X1X1X2X9X9X9X9X9X8X9X3X9X6X0X,X<XO 6.;.:.:.:.6.4.4.3.3.",
"` ` ` ' ` ` ' &.- < 2 > 2 < < 7 6 < , 6 6 2 8 : ^..X*X;X<X<X2X1X1X2X2X1X1X1X2X1X3X9X9X8X9X3X9X2X9X6X6X1X<XO 3.;.;.-.:.6.4.6.3.3.",
"` ` ^ ` %.` ' &.; 2 < < < 2 2 2 2 7 6 6 6 6 2 , ^.XXOX;X2X<X2X1X1X,X2X1X2X2X2X1X9X8X2X9X8X9X8X8X6X6X1X1X@X: 4.;.-.:.:.3.3.4.3.-.",
"^ ` ^ ' ` ` [ o.- > 1 1 2 2 < 2 2 2 2 2 6 2 8 : /.XX$X<X2X,X,X0X2X2X1X,X;X;X2X6X2X3X6X9X3X3X3X6X9X6X1X2X<XO 4.:.-.-.3.6.4.3.3.-.",
"` %.` ` %.` ' o.- < > > 2 2 < 2 6 < 2 6 2 6 6 1 ^.OXOX<X2X<X,X<X,X,X,X,X;X$X,X3X2X9X2X3X8X3X8X6X6X8X1X2X<X> 7.:.3.3.3.3.6.4.3.-.",
"` ` ^ ` ` ` ` @.: < 2 2 2 2 > 1 , 6 , 2 2 6 6 : ^..XoX;X<X;X,X,X2X,X;X<X,X;X;X2X2X3X9X6X3X9X3X3X6X6X1X2X<X> 7.3.3.3.3.3.3.3.-.-.",
"^ ` ` ` ^ ^ ` @.- < 1 1 2 < < 1 2 6 , 6 2 2 6 - ^.OXOX;X<X$X<X,X,X;X<X;X,X;X,X2X2X6X2X9X9X9X9X9X6X6X:X6X%X> 9.4.4.4.3.3.4.3.3.-.",
"^ %.%.' ` ` ' &., 2 2 2 2 < > < 2 2 2 6 7 2 2 : /.XXoX*X;X@X<X;X2X<X;X,X2X2X,X,X9X3X9X9X3X8X6X9X6X6X0X,X%X> 9.4.4.3.4.4.3.3.3.-.",
"^ ` ` %.' ` ^ | - 3 2 > 2 < 2 > 2 e < 2 2 6 6 - /.OX;X;X<X$X;X;X,X,X,X;X2X2X2X,X,X6X9X6X6X6X6X9X6X9X6X6X,X+ 7.3.3.3.3.4.4.4.3.3.",
"^ ` ` ` [ ` ^ | - 2 > 1 2 2 2 2 2 2 1 2 2 6 6 - (.XX;X;X$XOXOX;X2X;X,X2X2X2X,X;X,X6X9X6X6X6X6X6X9X6X6X6X3XO 7.3.3.3.3.4.4.3.3.3.",
"%.^ ^ ^ [ ` ^ | o < < 1 > 2 2 2 2 2 1 2 2 6 2 :  XOX;XOXoXOXOX$X,X2X2X6X2X,X,X;X,X6X6X6X1X6X6X6X9X9X6X9X2XO 7.3.4.4.4.4.4.3.4.3.",
"^ ^ ^ ^ ( ) ^ | - 1 < < 2 2 2 2 > 2 < e 2 6 2 : /..X;XOXOXoXOX$X;X,X6X2X1X2X,X2X6X6X9X6X6X6X6X6X9X6X6X9X8X> 4.3.4.3.4.4.4.4.4.3.",
"^ ( ^ ^ ( ) ^ @.o > < 1 2 > 6 2 6 2 2 2 2 8 2 - ^..X[.XXoXoXOX$X$X$X,X1X1X1X1X6X6X6X6X6X6X6X6X6X6X6X6X9X9X> 8.4.4.4.4.4.4.4.4.4.",
"^ ^ ^ ^ ( ` ( | - < 2 1 6 2 6 2 2 3 2 2 e 6 6 : ^.[.[.[.OXXXOX[.OX$X;X1X1X1X6X6X6X6X6X6X6X6X6X6X9X6X6X9X6X> 8.4.4.7.4.9.9.4.9.4.",
"^ ^ ^ %.( _ ^ | - > > 2 e > 6 2 > 8 2 6 6 6 2 : ^..XOX[.oXoXOX$XOX$X,X1X1X6X6X1X6X6X6X9X6X6X3X6X9X6X6X9X6X: 8.7.7.4.4.9.4.4.4.4.",
"^ ^ ^ ^ ^ ` ^  .- 2 2 2 2 1 6 2 6 e 2 6 2 2 6 -  XXXOXOX$X<X;X;X$X$X,X6X6X6X6X6X6X6X6X9X6X6X6X6X9X9X&X9X6X1 w.8.4.9.9.9.9.9.9.9.",
"^ ^ ^ ..^ ^ ^ | - , 0 % 6 6 2 2 6 < 6 6 6 8 2 - OX[.$X,X<X%X6X6X$X0X1X<X7X0X1X<X9X3X7X7X6X6X9X7X9X:X1X:XqX9 e.6.9.7.7.4.7.7.7.7.",
"^ ^ ^ ^ ^ ^ ^  .- - # 2 & @ < < , 2 # - 2 @ < , % ; < < , ; > < , 3 < , 2 < ; < ; ; ; > ; 4 > 3 2 9 ; ; = 7 ; 2 4 ; ; ; ; ; - - ",
"^ ^ ^ / ^ ` ( | % b.J.b.M.M.b.k.k.M.b.G.k.G.k.- t z c l l h j l y z z g h z y g h l j h h m b b t M j m P & f.f.d.d.s.a.W W R R ",
"^ ^ ^ ^ ) ^ ( } , V.j.b.H.v.k.m.b.b.k.H.G.k.G., y z x z g x c c z v x c n n x x x x m m x x x n K x f n l % T.T.L.J.G.M.G.G.G.G.",
"^ ^ ~ ~ ~ ` ( } , v.Z.Z.j.v.G.b.k.H.b.v.H.G.b.< b c v c h c f c h c f c c n v c z z c c z x D v B L x u d , Y.Y.U.J.H.J.J.J.H.H.",
"~ ^ ^ ~ ~ ^ / } 2 B.n.b.H.V.k.V.M.j.B.V.n.G.M.< B c f c c S s s z f f d c v z z j s j s s v v V S z S y c : S.U.H.H.Z.G.G.G.n.b.",
"/ ^ ^ ^ ~ ` / } 1 S.H.V.B.G.H.V.G.V.V.b.V.K.k.- l c c h j c c c j B B N N B c c c d g j c v D x J k B h b - U.N.H.G.G.G.H.G.G.G.",
"/ ^ ^ ~ ^ ` / } 1 V.B.Z.b.m.V.b.V.G.V.G.V.G.M.3 k B B N k c c j j c s l j n S c c l l j d c v c i b x x h 7 A.D.J.H.M.H.H.H.H.G.",
"^ ^ ^ ^ ) / {  .< S.Z.Z.B.G.G.V.m.G.V.G.G.H.G.< M B S j h V f s d d j c c n Z B f j j d s B B j c b z D B & A.H.Z.D.H.D.H.H.H.H.",
"~ ^ ^ ~ ` / /  ., C.H.Z.V.G.m.B.G.Z.G.V.Z.H.H.< M B V h j v v j c z c c c Z c c c c d j g c B c v c n x N 1 H.J.H.Z.Z.G.G.H.H.m.",
"^ ^ ^ ^ ) ~ { .., C.Z.P.C.G.V.n.Z.H.Z.H.H.J.J.< M V V j k n V N c c c c B C C B c d l h j c c C v n J D A , 1 6 6 5 6 2 6 2 6 5 ",
"^ ~ ^ ^ ~ ) / { 2 A.P.P.Z.J.V.Z.H.K.H.J.I.K.H., k c V C c V c c c f c c C C C C n g l c c d c C V c Y F A & P.J.P.J.J.J.J.H.J.H.",
"^ ^ ^ ~ ~ ~ ..{ 2 A.P.D.C.J.Z.D.P.I.H.K.P.U.P.2 h n n C C c c B f c v c c B C C c c g c c z c b V b A Y I : n.G.J.G.H.G.H.J.G.G.",
"~ ^ ^ ^ ~ ~ ] ] 2 A.H.P.C.H.Z.D.P.K.K.K.U.P.J.< n n Z Z C B v V c z v c n n C Z V n c h f c V C n C n U p.1 B.G.V.G.G.G.G.G.V.Z.",
") ` ^ ~ ) ~ ] ] 2 Z.N.Z.C.U.Z.D.P.I.K.K.I.I.J., n n n B C V n D x c v x Z Z Z Z Z n c c v n A Z V n Z Y A % v.V.b.b.b.G.G.V.Z.G.",
") ^ ^ ^ ~ ~ ] / 2 A.H.J.A.U.P.D.Z.K.H.J.U.I.K., z c c V Z C n v n c n Z n V J H H Z c n n n n H H x D G I : b.b.b.V.V.G.Z.H.Z.Z.",
"_ ) ~ ) ~ ^ ` / 6 K.I.Z.U.U.K.U.H.K.I.J.P.U.U.% U x v n Z S v v F D x D V n Z H F H F F H H H H H x F Y U * k.b.G.b.m.G.b.M.G.G.",
") ] ~ ] ~ ~ [ [ - J.K.U.m.U.U.U.I.H.U.U.U.b.b.6 U y y d z d z y H n n n Z Z C Z H n n V Z Z A U A U n F T * V.K.H.G.H.H.H.H.J.G.",
": > 4 ; - : < > 5 2 0 , 5 < < 2 6 < 6 # < < , 2 > , - % - , , - - # # - $ , , - o $ o ; ; - - - ,   @ 6 - ; - < 6 7 6 6 7 7 1 < ",
"Q._.].]._.Q.!.!., U.V.R.H.H.P.G.H.G.v.b.G.m.b., E.).{.'.~.W.).).'.'.'.[.@X@XOXOX+X+X+X%X%X+X#X+X(./.(.=XW.'.W.^.W.T.Y.M.h.l.g.f.",
"`.`.{.`.`.`.).)., G.H.J.U.H.H.M.J.J.L.G.G.k.M.2 E.'.[.'.'.'.'.[.[.[.].].[.OXOXOXOX].OXOXOX[.OX@XoXOX].[.0X].qX{.[.OX[.OXOX[.[.'.",
"!.).).!.).).Q.!.2 K.L.I.H.H.M.J.G.J.J.G.b.H.G.3 ^.#X.XOX[.OXOX@XOX*X*XOX$X$X;X$X;XoX$X$X;XOXOX;X0X$X1X0XOX3X@X=X<X;X%X<XoX;X;X;X",
").).).).).).E.!.: J.J.G.b.J.H.M.G.G.J.G.G.k.M.<  XOX[.{.].$X[.$XoX%X%XOXOX<X%X3X%X$X;X;X0X$X$X$X=X@X@X*X;X%X1X|.%X$X;X;X$X;X<X;X",
"!.).{.{.).).!.E.6 n.U.J.J.M.H.J.G.L.b.H.b.G.M.2 .X<X[.qX[.OX[.OXOXOXoXOXOXXXOXOX>X3X>X<X$X;X>X,X|.1X,X;X0X%X%X0X$X;X;X;XoX$X<X;X"
};
