/* XPM */
static char *xpm_[] = {
/* columns rows colors chars-per-pixel */
"64 64 256 2 ",
"   c #12120C",
".  c #311B10",
"X  c #3A2716",
"o  c #2D2C13",
"O  c #32342B",
"+  c #16281E",
"@  c #473113",
"#  c #573A37",
"$  c #4E352C",
"%  c #67382D",
"&  c #6C371A",
"*  c #35473C",
"=  c #685810",
"-  c #524B33",
";  c #6B5037",
":  c #756832",
">  c #4D5219",
",  c #3C5055",
"<  c #3E5563",
"1  c #485647",
"2  c #4D5251",
"3  c #664B43",
"4  c #6A564A",
"5  c #795548",
"6  c #705A55",
"7  c #5A6A51",
"8  c #756956",
"9  c #6F7053",
"0  c #6C7567",
"q  c #787768",
"w  c #797B76",
"e  c #6B6E6B",
"r  c #515C65",
"t  c #393C41",
"y  c #8C7635",
"u  c #865427",
"i  c #85584D",
"p  c #886657",
"a  c #8B6E52",
"s  c #897969",
"d  c #8A796F",
"f  c #A4796B",
"g  c #728551",
"h  c #72856F",
"j  c #908635",
"k  c #A28C23",
"l  c #F8DB05",
"z  c #FBDD16",
"x  c #ECDA08",
"c  c #FBE607",
"v  c #FAF205",
"b  c #FAE617",
"n  c #F9F315",
"m  c #F7DE2A",
"M  c #F5DA37",
"N  c #EFDD25",
"B  c #FAE627",
"V  c #FBE43B",
"C  c #FAE936",
"Z  c #F2E831",
"A  c #908E4A",
"S  c #85857B",
"D  c #8B8F70",
"F  c #A3897B",
"G  c #AB9676",
"H  c #97A96F",
"J  c #A8A45E",
"K  c #CCBA6C",
"L  c #CAAF5D",
"P  c #F2D94A",
"I  c #FCEB4C",
"U  c #F9E746",
"Y  c #FBF349",
"T  c #FAEB58",
"R  c #FEF359",
"E  c #EFF04A",
"W  c #E9D46F",
"Q  c #FEEE64",
"!  c #FDED6B",
"~  c #F6EA67",
"^  c #FCF469",
"/  c #FCEC73",
"(  c #FAE978",
")  c #FCF378",
"_  c #ECE572",
"`  c #D8D06E",
"'  c #697685",
"]  c #7B93B0",
"[  c #688B88",
"{  c #7FB1D4",
"}  c #898984",
"|  c #909490",
" . c #AA9993",
".. c #9CA598",
"X. c #94A489",
"o. c #A9A79A",
"O. c #B4AA99",
"+. c #B7B39B",
"@. c #ACAE8E",
"#. c #8898B9",
"$. c #8995B3",
"%. c #A99DA1",
"&. c #8CA3BB",
"*. c #97A8B4",
"=. c #A9AAA7",
"-. c #B6ABA8",
";. c #B6B6AA",
":. c #BBBCBB",
">. c #B7B8B5",
",. c #ABB4AF",
"<. c #D78987",
"1. c #D9978B",
"2. c #D89898",
"3. c #CF908D",
"4. c #E39A9B",
"5. c #E9958E",
"6. c #DBA69B",
"7. c #CAB297",
"8. c #E4A49C",
"9. c #E8A89B",
"0. c #E7B39C",
"q. c #F8B299",
"w. c #D99BA3",
"e. c #E59CA5",
"r. c #F49EAB",
"t. c #DCA8A4",
"y. c #C4B6A7",
"u. c #DCB5A8",
"i. c #C5BAB7",
"p. c #DABBB7",
"a. c #E3A5A3",
"s. c #E3ABA4",
"d. c #EBADA4",
"f. c #EAACAB",
"g. c #E5A8A9",
"h. c #F2AEA7",
"j. c #ECB3A5",
"k. c #E4B3AC",
"l. c #EBB3AC",
"z. c #E7B8A8",
"x. c #F2B4AC",
"c. c #F5B7AB",
"v. c #EBB4B2",
"b. c #E8B9B5",
"n. c #F3B7B5",
"m. c #EAAEB2",
"M. c #BBC4B9",
"N. c #B7C2A8",
"B. c #9EC58E",
"V. c #D8D48C",
"C. c #E9D88F",
"Z. c #FBEB84",
"A. c #FCF687",
"S. c #F2EC94",
"D. c #C3C4BC",
"F. c #C7C8BA",
"G. c #D4D6B9",
"H. c #CECDB3",
"J. c #E8C4B8",
"K. c #F1C6A9",
"L. c #F4F1A7",
"P. c #D9E3A2",
"I. c #899AC5",
"U. c #959EC7",
"Y. c #8AAAC9",
"T. c #95AAC8",
"R. c #8BB4CB",
"E. c #99B6CC",
"W. c #8AABD8",
"Q. c #95A8D6",
"!. c #8DB7D9",
"~. c #99B7D8",
"^. c #A5B9CB",
"/. c #B9BCC4",
"(. c #A6BAD8",
"). c #ABB1CE",
"_. c #8DB5E4",
"`. c #9CBCE3",
"'. c #97B8E6",
"]. c #90ABE3",
"[. c #A4BCE3",
"{. c #A6BAE5",
"}. c #B5BEED",
"|. c #99C2DC",
" X c #8BC4DF",
".X c #A8C5DA",
"XX c #B3C6D7",
"oX c #B2C9CD",
"OX c #9DC3E4",
"+X c #A7C5E5",
"@X c #B3C8E6",
"#X c #B9D0E0",
"$X c #C6C8C5",
"%X c #D5CCC7",
"&X c #CCD4CB",
"*X c #D3D3CC",
"=X c #DBDBCD",
"-X c #D6D6C7",
";X c #CCD8D4",
":X c #D5DBD4",
">X c #DBDCD4",
",X c #DCDCDA",
"<X c #D6D7D7",
"1X c #CECBD4",
"2X c #E5C6C3",
"3X c #E3DBCA",
"4X c #E3DCD5",
"5X c #E5DCD9",
"6X c #F1DED8",
"7X c #D9E4CB",
"8X c #DAE5D8",
"9X c #CEE6CE",
"0X c #E3E3DC",
"qX c #EBE4DC",
"wX c #ECECDD",
"eX c #E5E8D7",
"rX c #F3E8D9",
"tX c #E9F5DA",
"yX c #F3F5DC",
"uX c #E7EBCB",
"iX c #D5D9E4",
"pX c #E5DCE4",
"aX c #F2DFE3",
"sX c #DDE6E5",
"dX c #E4E4E3",
"fX c #EBE5E4",
"gX c #E5EBE4",
"hX c #EBEBE4",
"jX c #ECECEB",
"kX c #E7E8EB",
"lX c #F3ECE4",
"zX c #F3EDEB",
"xX c #F8EAE8",
"cX c #ECF2E4",
"vX c #ECF2EB",
"bX c #E9F6EA",
"nX c #F3F3E4",
"mX c #F3F4EC",
"MX c #FBF4EC",
"NX c #F4FAEC",
"BX c #FBFAEE",
"VX c #F9F6E5",
"CX c #ECECF3",
"ZX c #ECEBF7",
"AX c #F6EDF6",
"SX c #EDF4F3",
"DX c #ECF7F5",
"FX c #F4F5F2",
"GX c #FBF5F3",
"HX c #F5FAF3",
"JX c #FBFBF3",
"KX c #F4F4FB",
"LX c #FCF5FB",
"PX c #F5FBFA",
"IX c #FCFBFC",
"UX c #CABEC0",
/* pixels */
"(.{.).@X^.g ,.=.=.;.} m.6.t.j.u.z.l.j.l.9.9XBXNXJXMX; d.d.n.z.z.9.z.z.j.s.G.VXBXBXJXJXGXBXJXGXGXyXnXMXeXwXA >.,.i.;.-.t.9.6.6.t.",
").E.E.~.E.7 =.,.>.-.%.6.8.0.8.t.0.j.v.x.j.bXMXIXBXMX@ h.x.j.c.9.h.v.c.n.z.G.BXBXJXGXJXGXBXBXMXGXcX0XjXhXeXq >./.>.>.y.t.d.a.6.6.",
"E.~.E.(.E.h =.-.*.,.d j.9.8.9.u.0.j.d.j.z.tXBXIXGXMX# h.f.l.h.h.9.l.c.c.j.H.BXMXBXMXGXGXVXBXBXAXcXjXhXjXcX9 D.M./.:.i.t.a.s.f.8.",
"(.~.~.~..XS ,.>.;.;.F s.9.9.d.g.9.h.d.x.z.uXVXJXJXMX$ d.x.h.h.x.c.l.z.l.K.G.MXMXJXMXGXLXnXmXnXxXwXwXzXkXeX9 i.i.>.y.y.6.6.t.u.6.",
"} $.} | [ g H H D D 9 6 4 4 ; 3 3 # # 3 8 P.F.:X%X*X@ p ; i % ; & 5 & % i O O O O O 2 S S } d S                       . . X $ X ",
"7X*X4X<XbX@.FXGXMXLX:.{.).(.~.(..X^.XXXX(.tXvXHXLXBX% h.x.d.l.f.d.k.k.l.x.@.F.F.i.>.-.JXnXPXAXGX/.XX@X(.XX1 :.>.N.-.-.>.>.,./.>.",
"3XkXfXqXtXH HXyXMXMX-.~.(.{.(.(.|..X[.+X@XuXIXLXFXmX$ c.x.z.l.n.9.f.c.v.z.@.F.$Xi.$X-.GXMXLXGXGX.X(.[.(..X7 >./.:.i.-.>.>.>./.:.",
"uX8X5X0X8XH PXBXnXJX7..X}.{.(.(.XX(.@X.X.XtXFXMXJXBX$ c.h.x.x.h.h.n.l.v.K.y.D.M.:./.-.GXGXMXGXLXoXXX+X+X.X7 >.>.>.i.-.>.,.>.;.;.",
"uXgX8X5XuXB.HXAXLXHXp.`.'.'.|.+X~..X~..X(.uXNXmXNXNX& q.l.0.x.n.9.z.0.K.6.@.M.N.:.M.%.LXAXMXLXIXoX+XOXOXoXD H.$X$X>.O.i.%X%XD.>.",
"B b b b B H VXxXcXHXy.OX~..X.X(.{.~.'.`..X9X:X,X4X7X; T ^ Q R / Q T ^ ! ) N.#X@X+XXX).ZXjXcXcXjXoX+X+X.X.XA P I U I _ qXgXsX8X7X",
"c n v v b H yXVXGXMX .`.{.`.(.{.(.[.+X+X(.9X>X5X8X7X- R ! S.Q ! T ^ Q R E oX#X+X+X@X).kXjXzXzXCXoX.X.X#XOXj V U T V / CXgXhXjXqX",
"v c b c v H NXNXyXMXy.^.`.+X[.~..X(.[.(..X9X:X7X8XG.- R R Z.Q A.~ Q ) ^ R ,.oX#X+XXX*.jXjXjXjXjX.X.X.X#XOXg Y Y T U _ kXsXeX0XeX",
"b B n v n H bXMXbXbX-.E.E.(.(.|.~..X~.+X|.9X;X<X<X3X> ) T Q R / ~ R ^ ! / ;.XX#X@X1X).kXzXCXbXhX.X+X@X@X.XA E E I T _ uXeXeX0X8X",
"K ` W W C.9 -XF.-XJ.F J.2X2Xz.z.u.J.J.u.J.3.K.0.k.J.a JXIXIXPXIXPXHXIXKXIXP.L.A.L.L.S.A.A.L.A.) BXJXIXIXHX@.yXDXjXAXxXzXhXhXcXcX",
"v n C B N 9 %X-X%X%Xs 9.2.a.d.9.6.t.s.s.u.k.f.j.j.v.- KXHXJXHXKXNXtXNXDXIXV.) ) ^ ^ W T ^ Z.) Q VXMXJXGXMX@.cX8XgXKXwXkX8XqXqXsX",
"B B B B Z 7 G.*X:XF.D 0.9.t.t.s.6.a.9.8.t.u.v.v.x.x.- HXVXAXFXIXDXJXGXPXmXP.^ ) ) ) W T ^ Z.^ R NXJXPXNXVX .vXkXgXCX8XkXgXdXqXdX",
"b n l v M 9 G.&X%XF.F 8.t.s.g.a.8.8.8.t.k.J.u.l.l.k.- NXHXMXFXNXmXLXAXmXVXP.^ ^ ^ R K.I ( Q R Y BXvXnXBXyX+.wXsXgXdXsXfXdXdXgX5X",
"V.C.C.` K 7 +.@...} 8 p f p i a d 5 3 3 3 3 4 3 # 3 ; S S | } w S h S D S - > X @ @ @ . @ X @ . O O + O + O o o O O X # 5 p 8 % ",
"uXmXlXAXyXh eXdXcXhXd 8.8.8.9.4.^.E.~.E..XoX~.~.+X(.2 KXGXFXFXGXPXPXHXNXVXV.^ ) ~ Y C.~ ~ Z.) R #X#X@X#X+Xh /./.i.>.y.g.d.9.9.9.",
"wXnXyXmXVX9 lXhXdXwXf 6.4.s.d.6.^.~.E.).(.,.Q.+X!.|.1 LXmXNXLXLXmXNXHXPXNXP.) / ) Y W Q ^ ^ Q I |..X@X+X+XS M.:.oXUX-.w.f.8.f.2.",
"fXAXyXvXVXg kX8XkXhXF 2.s.s.6.8.T.^.~.^.).M.+XR.(.E.1 AXmXNXFXLXHXJXFXKXJXP.) / ^ Y ` / Z.^ T C @X#X@X@X+X} /.i.>.;.O.6.6.j.t.d.",
"wXzXjXvXnXH lXtXhXeXd n.l.m.m.d.XX(.^./.(.F.(.(.}.(.1 KXPXHXJXLXNXJXJXIXBXP.A.) ) ) V.( ) ^ A.S.#X#X#XXX@X..$X$XoXF.-.f.l.d.t.s.",
"^.U.Q.E.T.9 %.=.,.=.F rXrXnXxXrX6.l.s.a.k.J.k.b.b.b.- jXdXkXCXdXPXLXJXIXPXNXLXJXGXLXH.ZXFXkXKXhXNXPXIXIXPXF.MXGXHXMXfXm.g.f.k.f.",
"W.Q.W.Y.T.e =.=.=.=.S rXeXcXfXfXs.9.8.f.s.b.v.v.n.f.4 iXkXCXkX5XHXJXBXPXDXHXKXGXJXGX>.CXgXDXgXkXNXHXJXHXNXM.PXFXJXGXlXb.k.k.u.8.",
"W.#.].Q.].7 =.,.=.=.h fXfXrXrXuXa.s.f.k.t.J.k.p.n.m.3 pXCXkXkXkXLXIXIXLXPXSXHXJXPXGX+.CXbXvXgXFXJXMXIXFXPXF.FXFXJXFX6Xu.f.k.f.8.",
"W.Y.Q.T.W.h -.o.=.o.A qXrX6X6XqXd.a.8.a.g.n.n.n.b.p.- 0X,XkX5XCXGXHXJXJXIXbXHXGXFXPX;.CXCXkXgXkXNXHXNXmXNXM.JXHXFXMX6Xp.u.k.v.m.",
"1.<.2.2.2.p 2.w.e.e.p /.*.UX>.oX1X1X<X;X>XcXcXnXMXyX;.fXjXvXhXAXJXJXHXJXPX8X8X:X*X*XD 1XsX8X8XfXF.M.D.D.D.;.cXvXhXzXeXwXcXcXnXcX",
"2.w.e.<.1.i 4.4.8.r.p %.=./.-.*.<X;X,X<X:XjXGXMXGXBX-.zXzXgXzXLXKXPXPXJXIX<X8X*X7X&Xq dX:X=X>X*XM.>.$XD.M.oXDXFXDXBX0XgXgXgXjXvX",
"1.<.<.4.3.p 2.t.2.4.a -.=.>.-.=.*X*X;X&X;XvXGXFXSXmX-.jXkXSXlXxXIXIXJXGXGX&X7X&X&X;X0 ;X8X,X8X<XM.M.:./.>.oXNXhXFXMX<XjXbXjXfXgX",
"4.4.4.4.w.i 4.e.a.6.p ,.,.=.>.-.1X<X<X;X:XjXxXAXLXMXo.kXkXjXfXAXKXHXJXJXBX;X9X;X$X;X9 &X:X;X<X1XM.>.M.>.M.&XyXMXzXxXH.wXgXgXgXcX",
"X . X X . + @ X $ $ @ $ O $ O O $ - - - - $ $ $ # 3 4 } | S w } } S } } h 2 , r 2 r 1 2 t t r 2 - 1 r 7 8 s s F d F p  .F F F  .",
"<X<X6XpXpX6 e.w.r.2.a xXAXkXDXDX8X0X,X<XpXp.u.m.e.k.6 NXmXMXlXJXSXgXCXDXkX.X.X@X[.`.< `.~.~.OX[.DXSXSXmXfX%Xt.n.k.u.F d.s.z.0.0.",
"0X5X>X8X6X8 e.t.e.9.p kXCXKXCXtX3X,XeX,X8Xp.k.m.u.m.D bXGXzXPXGXjXKXjXhXdX.X+X+X+X+X' `.OX+XOX[.DXSXvXSXjXJ.l.b.0.k.f s.z.k.k.6.",
"0X5X=XsX5X6 4.g.e.d.; zXhXhXvXyX3XpX8X3X8Xk.e.a.g.m.; FXlXLXFXxXkXZXhXvXZX.X.X|.OXOX< `.+X~.~.`.SXDXPXFXzX%Xk.k.k.m.p u.s.z.6.6.",
"pX6X6X5XuXp u.f.v.z.9 LXyXMXBXGXuX6XuX=XrXJ.d.k.m.m.s PXGXIXAXBXbXMXyXnXzX#X.X@X.X+X, +X+X+X+X.XFXHXHXFXFXJ.K.n.b.m.5 u.u.J.H.u.",
"&.Y.Y.T.Y.$.W.Y.Y._., l n b b b c B b b N oX{. X|.'.+ DXvXMXMXMX! Z.( Q R G.<X0X>X0X4 GXFXGXDXJXSXHXmXZXFXp.v.n.k.v.p +.@.o.o.-.",
"T.Y.] ~.R.0 _._.`.R.2 z b c c c b c b z B .X[.OX`.~.+ HXVXvXFXPX( / ( ( Y 8X0X8X0X>X; PXHXJXNXBXDXDXmXmXmXp.x.v.d.d.5 @.o.=.o...",
"U.Y.R.Q.] h ].'.W.!., b b c B B b b z b b .X(.(.`..X+ MXwXMXAXFX( Q Z.( E kX,X,X0X8X- DXMXGXGXMXSXDXFXFXMXJ.l.v.l.j.5 =.o.-.=.:.",
"Q.I.Q.I.&.[ `.Y.!. X2 M c c C b v B b B B oXOXOX'.`.O ZXbXjXxXBXT / ! R Z -X<X4XqX8X4 PXPXFXJXLXNXmXmXKXAX2Xc.z.k.j.3 =...o.....",
"N B z b b H nXhXMXtXF U I C M T vXLXLXNXNXDXDXGXHXJXq gXwXhXlXrXd.d.0.0.0.J.c.J.b.J.: %X-X3X7X%XBXBXJXGXyXL./ ^ ~ ( : .X'.E..X|.",
"x c l c l D tXjXtXZXG C Z Z C m NXvXmXvXmXJXFXFXFXGXq pXhX0X5XaX9.9.9.q.d.z.b.v.n.s.a -X=X3X=XG.BXGXmXFXGXZ.R Y U U ; |.OX~.~.`.",
"l l c l l D wXwXjXCX .V C V B m mXmXmXvXmXbXFXHXFXnX9 dXwXgX4XaX9.4.9.4.h.l.l.l.x.x.; 7X=X3X=X3XNXHXJXPXMX) C C Y C : {.!.|.|.|.",
"l c x b b g wXyXDXHX@.M B V N M bXBXnXmXmXhXcXmXMXnXD dXwX0XfXxX4.4.d.4.a.v.n.v.l.v.- >X%X=X=X-XHXFXmXmXVX) C C C M = ^.(.(.~.E.",
"A y j : = O 7 7 > 7 1 : : y j A S S S S S w 0 q e e - e h w q 6 i i ; i i ; - 3 i 3 $ X.2 } 0 s S w q 9 7 = = = = = $ , * 1 7 $.",
"I.Y.$.T.Y., Y.!.].~.' mXzXwXmXAXjXhXbX0XhX:X$X*X:X$XD zXFXmXAXxXh.x.v.x.x.n.k.v.v.k.- zXGXHXmXGXyXzXMXFXGXA.E C Y ~ A tXZXhXhXxX",
"&.Y.] #.Y.1 Y.Y.].T.#.lXnXjXmXfXkXjXjXjXhX&X%X*X&X*Xs CXjXmXMXzXn.n.v.l.v.k.k.n.k.k.- mXMXPXjXGXVXmXFXvXMXZ.U I C I y AXZXhXcXnX",
"$.I.&.$.&.2 Q.].~.~.$.kXrXzXzXlXdXkXjXjXhX$X&X&X&X&X9 LXFXzXMXxXv.n.n.f.s.b.J.l.v.b.O mXFXFXFXnXgXKXFXSXMX) Y Y I R J hXcXhXgXjX",
"$.#.$.U.U.7 &.'.].~.| kXnXcXkXnXjX8XvXjXgX&XD.M.F.$Xs zXmXcXxXMXv.k.b.b.v.b.b.k.k.m.# BXzXFXHXNXHXGXMXmXHXA.Q Q ^ ) 9 yXnXCXhXMX",
"-.%.%.-...7 vXcXvX8Xi.w.4.w.e.r.&X1XM.&XM..X'.OX'.`.r 4X:X>X,X3XFXFXHXvXHX>X>X>X:X;Xw OX|.'.'.{.( ) ) / ( N.=.@.o.=.9 3X3XF.G.H.",
"o.-.-.-.=.* vXdXjXjXp.2.4.e.6.4.<X%X>X1X1XE.~. X'.`.r ,X7X>XpX<XPXFXFXNXHX0X0X>X0X8Xe [.`.'.`.+XZ.) ! Z./ +.o.o.=.X.0 G.G.*X$Xi.",
"=.-.%.-.;.* dXjXjXgXi.w.4.4.3.e.XX$X&X1XoX`.!.OXE.~.r <X8XeXpXqXGXFXFXmXNX8X0X>X>X:Xw (.[.OX{.'.( ~ ! ( R ;.*...=...e &XG.&XF.i.",
"i.-.-.-.>.0 hXjXjXfXy.w.e.w.g.w./.D.$X$XF.{.~.Q._.`., =X8XiXiX>XFXmXHXmXjX>X0X,X9X;XS ~.(.`.{.'./ / ~ / ~ +.o.o.@.@.0 *X-XH.G.7.",
"2.3.2.2.2.* O.O.o.o.S lX5XlX4X5X_ Z.` _ W sXgXmXnXjX4 Z.( ( Z.L.FXMXJXHXhXdXhXgXAXjX8 1X%X%X%XH.@.O.;.O.+.L./ ) A.Z.G >X8X8X7X=X",
"3.3.<.5.3.D O.-. .O.S jXjXCXAXaXm M M B C 8XnXmXFXHXG T T T U E FXFXmXGXnXvXmXmXvXgX8 ,X4XqX>X*X>.i.M.N.;.S.V V C C K 0XsX0X,X>X",
"<.<.<.<.<.- O.o.@.o.w jXCXzXAXLXm m m b Z sXNXFXAXLXO.U T Y I T mXGXmXMXMXmXmXmXbXbXD dX4X=X=X<X;.;.>.;.;.L.C V Z U K 0XsX0X5X>X",
"<.<.<.<.<.1 o.o.o.-.d zXjXjXhXgXB z B z m cXyXxXMXnXa Y C U I Q mXHXMXmXmXjXjXjXhXbX4 ,X4X=X>X<XN.:.>./.+.C.E I P T K 8X8X=X,X>X",
"5 3 # # $ . O - - - $ 6 4 2 4 9 k k k y ; 9 q d H.7.# : a y y j  .| i.y.:.X.D  .;.=.6 *.i.-.F.i.%.>.-...d g : y : L - r h e e 1 ",
"I.I.I.I.] r ;X=XiX,Xi.<X;X;X8XiXm x z z b _ C C V P = h.l.h.h.a.g.d.k.a.t.( m V M U J '. X{ _.].8.1.5.5.9.rXqXbXSXuX=.'.(.~.~.R.",
"' I.] I.I.1 -X=X<X&XF.8XgX8X:X=Xm l l l l _ C B U N y h.d.d.x.9.a.9.q.9.a.~ Z U C m j W.!.'.!.'.5.4.5.r.e.wXhXcXcXrX..+X~.!._.W.",
"' I.] ] #.2 *X<X7X7X2X:XiXiXiX*Xm z l l b _ C Z V m u e.h.h.9.4.a.8.s.g.t.~ B M Z B : _._.Y._.W.<.5.G 5.1.wXlXhXmXqXo.!.Q.!._.!.",
"U.$.I.I.U.2 %X*XiX<XJ.<X:X=X1X*XN B m N M _ P U V U ; 9.d.d.9.a.8.6.t.9.l._ Y V M U y R.W.'._.W.1.2.1.1.2.wXuXhX5XxX| ~.~.R.R.R.",
"1XpX1X1XG.: M P M P ` #.I.&.U.&.T.Q.T.).E.XX1X%XF.G.o.uXcXcXyXSXwXfXSXxXCX9X9X8X7X5Xu.M.1X%XN.i.6XpXgXhXeX_ P U I P L i.i.$X$X:.",
"%X>X1X1X5Xa M M P P W U.&.] &.U.Y.&.Y.T.T.oXD.F.%X$X| nXMXqXhXCXqXyXjXMXfX0XqXqX8X-Xq oXH.%XF.i.eXxXwXkXlXV.Q P P U L i.F.$XH.H.",
"4X*X%X>Xi.@.P P M M P *.$.#.I.Y.T.&.&.Y.#.M.$XG.%X<X@.zXAXhXmXqXgXwXjXzXvX9XpXeX3X4X+.M.$X$X&Xi.gXzXwXjXeXC.T T Q P J H.H.y.i.;."
};
