/* XPM */
static char *b512048d3b4e4ba89d89bf7631466436t0V45lijYDsMWOXI[] = {
/* columns rows colors chars-per-pixel */
"64 64 207 2 ",
"   c #0C0A0B",
".  c #050702",
"X  c #1A0F0B",
"o  c #0C1407",
"O  c #14150D",
"+  c #0D0D13",
"@  c #060610",
"#  c #120D16",
"$  c #0E1414",
"%  c #0E1519",
"&  c #131314",
"*  c #1D1414",
"=  c #14141A",
"-  c #1A151B",
";  c #161B1B",
":  c #1B1B1C",
">  c #1A1B13",
",  c #24181B",
"<  c #1C2416",
"1  c #15211F",
"2  c #20211C",
"3  c #091624",
"4  c #151622",
"5  c #1C1D21",
"6  c #161620",
"7  c #211F24",
"8  c #231F2A",
"9  c #25172A",
"0  c #1D2124",
"q  c #1D252A",
"w  c #232324",
"e  c #262826",
"r  c #24242A",
"t  c #28262C",
"y  c #242A2C",
"u  c #2C2C2D",
"i  c #2B2122",
"p  c #3F2D2B",
"a  c #203026",
"s  c #2B2C32",
"d  c #302E34",
"f  c #3C2C36",
"g  c #2A3133",
"h  c #2D3934",
"j  c #2A3338",
"k  c #333231",
"l  c #34343A",
"z  c #3C3C3C",
"x  c #33383B",
"c  c #3A3D42",
"v  c #2C3345",
"b  c #04407F",
"n  c #505149",
"m  c #D41F13",
"M  c #D91E15",
"N  c #C9170B",
"B  c #D62214",
"V  c #DB2416",
"C  c #DD261A",
"Z  c #D72B1E",
"A  c #DD2A1C",
"S  c #D72519",
"D  c #E2261A",
"F  c #E22A1E",
"G  c #E82C1F",
"H  c #E52D15",
"J  c #D72C21",
"K  c #DE2C21",
"L  c #DC2720",
"P  c #DE3124",
"I  c #E42E21",
"U  c #E92E22",
"Y  c #E53124",
"T  c #EA3225",
"R  c #E53529",
"E  c #EC362A",
"W  c #E4392C",
"Q  c #EC3A2C",
"!  c #F23B2D",
"~  c #F0362A",
"^  c #E53E31",
"/  c #EC3C32",
"(  c #F33E31",
")  c #ED4236",
"_  c #EA473B",
"`  c #F44235",
"'  c #F64139",
"]  c #FA4539",
"[  c #F34B3F",
"{  c #FC4A3D",
"}  c #FA4637",
"|  c #FF4D40",
" . c #FF5144",
".. c #FF6354",
"X. c #E2BE32",
"o. c #F2CA08",
"O. c #F7D60D",
"+. c #E9CB19",
"@. c #F4CE12",
"#. c #E8D11F",
"$. c #FBD31D",
"%. c #FBD717",
"&. c #FDC925",
"*. c #FFDA22",
"=. c #FFD92C",
"-. c #FDD42A",
";. c #FFC931",
":. c #FAD736",
">. c #F9E32D",
",. c #FAE345",
"<. c #033C83",
"1. c #013E92",
"2. c #01448D",
"3. c #004988",
"4. c #014493",
"5. c #014995",
"6. c #03439B",
"7. c #0B4998",
"8. c #0E4798",
"9. c #A2AB98",
"0. c #A8A8A0",
"q. c #8F9392",
"w. c #BFCBBF",
"e. c #CDCFCA",
"r. c #CED2C8",
"t. c #DDDDCF",
"y. c #D2D4C6",
"u. c #DBDDD5",
"i. c #DDDDDC",
"p. c #D3D5D0",
"a. c #E4DDD9",
"s. c #DDE2D5",
"d. c #DDE2DB",
"f. c #DEEBD9",
"g. c #E2E4D5",
"h. c #E6E9D6",
"j. c #E3E4DD",
"k. c #EAE5DD",
"l. c #E5EADC",
"z. c #EAEADE",
"x. c #EDE8D4",
"c. c #F0EADE",
"v. c #F0E9D7",
"b. c #EDF2DE",
"n. c #E9F2D7",
"m. c #F3F4D9",
"M. c #DEDEE0",
"N. c #E7DDE5",
"B. c #DCF1E4",
"V. c #E5E6E1",
"C. c #E7E7E5",
"Z. c #E5E6E2",
"A. c #EBE6E2",
"S. c #E7E8E3",
"D. c #E6E9E3",
"F. c #E9E9E7",
"G. c #EAEBE6",
"H. c #E9EAE5",
"J. c #EBECE7",
"K. c #EBECE4",
"L. c #E5E6E9",
"P. c #EBE7EA",
"I. c #E6EAEB",
"U. c #EBEBE9",
"Y. c #ECEDE8",
"T. c #EDEEE9",
"R. c #ECECEA",
"E. c #EDEDEB",
"W. c #EEEFEA",
"Q. c #EEEFE9",
"!. c #EEEEEC",
"~. c #EFEFED",
"^. c #ECEDEA",
"/. c #F3E6E6",
"(. c #F1EDE3",
"). c #F1EEEA",
"_. c #FAEFEB",
"`. c #E6F1E3",
"'. c #EEF1E3",
"]. c #E7F1E9",
"[. c #EFF0EB",
"{. c #ECF1EB",
"}. c #EEF1EB",
"|. c #F1F1E5",
" X c #F0F1EC",
".X c #F1F2ED",
"XX c #F0F0EE",
"oX c #F1F1EF",
"OX c #F2F3EE",
"+X c #F3F4EF",
"@X c #F0F5EF",
"#X c #F2F2ED",
"$X c #F8F4ED",
"%X c #F4F8EC",
"&X c #F9F9ED",
"*X c #F8F9E7",
"=X c #EEEEF3",
"-X c #EAE9F4",
";X c #EEF2F2",
":X c #ECF3F9",
">X c #F3F3F1",
",X c #F5F6F1",
"<X c #F3F4F1",
"1X c #F8F5F3",
"2X c #F6F8F2",
"3X c #FAF9F4",
"4X c #F6FAFB",
/* pixels */
"C I Q B ` F I F B F A A K Y A Q Y I Q A Q / Z ) K W ^ 0 H.L.<Xj.Q.H.#X~.~.Q.S.H.Q.Q.Q.@XJ.#X#X#XV.V.,XH.V.V.#XV.C.U.U.R.C.~.Q.~.",
"A I T F F Y I I A C Q Y Q ( E I R A Y T Y R Q W ` ^ ) 0 V.4X^.,XH.J.U.#XU.#XQ.#XQ.Q.H.Q.V.Q.Q.Q.j.H.V.Q.u.Q.#X,XH.Q.).~.Q.U.Q.Q.",
"/ K C U V ! Y I T I Y A I Q ( A R I Q Q ( A W Z R ^ P s $X;X{.{.Q.Q.#XH.~.H.@X#X#XQ.J.Q.H.#X#X#XH.J.Q.#XQ.Q.H.Q.1X~.Q.U.>X~.#XU.",
"[ J C T I ( F F A C A A R Y } Y Y I Q Y I T R ) R W P s ).L.{.Q.Q.,XH.#XC.Q.Q.Q.Q.H.H.Q.Q.Q.Q.Q.Q.#XV.@XQ.,XH.#X~.~.>X#X~.U.~.,X",
"^ R ` D V F Y T Y E A N I A { Q F A Y Q B ` K Q ( / R l ).L.@X{.U.Q.~.H.#XH.#XH.{.#X#X@X,X#X{.#XH.Q.H.Q.{.#XQ.#XC.U.Q.>X~.R.U.).",
"[ S I V Q C F T Q K S B K Q I ` Y Y Y Y Y Q A K R W P z ).;X@XY.Q.#XU.>XQ.#XQ.Q.H.J.{.{.#XJ.H.Q.H.Q.3XS.@XV.Q.H.~.U.Z.U.Q.>XQ.U.",
"A I ! F F F T F Q ..Y A S I ! C A Y T F } Q I A P J W y V.4XZ.#X#XQ.,X~.#XQ.Q.#X~.~.#X~.,X~.~.>XQ.#X{.J.H.J.{.,XQ.Q.U.H.C.U.Q.~.",
"T D V G V F U T Y P ` Q } Y F Q Q I Y F V T Y T Y _ ) y ).L.D.H.Q.Q.#X~.H.U.H.@X>X#X~.U.>XQ.Q.#XQ.J.#XQ.,XQ.#XQ.H.H.Q.H.~.U.R.C.",
"T I F F I T C F A Y Y A E E Y S T I T E T Y Q  .` K / g H.~.Y.@XJ.Q.#XQ.@XQ.#X#XH.H.{.H.#XJ.@X#XH.{.Q.#Xj.#X#XQ.~.H.~.H.#XU.).V.",
"G C C I F I T F I A Q C Y V Y ` E A Q I E S R P T / L 5 Q.U.,X{.Q.Q.{.J.#XJ.Q.Q.Q.Q.#XJ.{.H.Q.Q.#XH.Q.#X#XQ.#XQ.~.U.Q.U.Q.U.H.j.",
"C A C I T G T G C T V A F I ` E ( Y A Q A Y Y ` Y E K g Q.>X#X{.#X#X{.J.{.Q.Q.Q.Q.#X#XQ.J.J.Q.Q.{.V.Q.Q.#XV.Q.Q.C.U.H.Q.Q.#X~.~.",
"C T I F ! I F G C ( F T C I ! F I Y Q S Y Y E K Q I I 5 J.i.,X{.#X#XQ.Q.{.Q.Q.Q.Q.#X#X{.H.Q.{.#XQ.#X@X#XH.Q.#X@X~.#XQ.Q.~.#XQ.#X",
"F T T F Q I V G T U ! T F F I Q I ( Q Y Q ` Y Y Q I / = @X>XV.{.#X#XQ.J.Q.Q.H.Q.J.#X{.#XH.#X~.#XH.#XQ.Q.j.J.H.^.~.#X~.U.~.U.H.U.",
"I D T F D G F G ~ F I I I T C T I Y C A Q Q A Q Y E C y S.U.J.{.#X#XQ.Q.J.Q.H.H.Y.{.{.@XQ.~.U.U.#X#XQ.Q.#X#XQ.Q.C.H.Q.Q.#XQ.Q.R.",
"F D F F V F U F I T F T F F V F F I I A I T A A Y A Q l #XL.{.^.{.#XQ.#XQ.{.H.Q.Q.Q.Q.#XQ.Q.H.U.~.U.H.H.>XQ.U.U.Q.R.Q.>X~.).R.U.",
"D T D G F F F F F C T C I I A Q F F Y Y C A A I Q Q Y 0 j.U.Q.^.J.#XQ.#XQ.#XQ.#X{.J.H.Q.Q.Q.Q.#X~.~.U.H.~.#XQ.#X>X~.U.,XU.>X~.~.",
"U D D T I I F F C F C C I ( I F F C C T F C Q I F A S r J.Q.{.{.Q.{.Q.J.Q.@X#XQ.{.J.[.Q.Q.[.H.Q.@XJ.Q.H.{.^.[.~.U.Q.Q.,X#XU.~.U.",
"D D F V I Y I F F V T T C F I F Y C B Y T Y T F Q I K 0 u.~.H.J.H.Q.Q.J.Q.#X#XQ.V.J.Q.Q.^.Q.[.[.Q.S.D.D.^.D.U.Z.Q.U.Q.U.H.Q.Q.Q.",
"F F F D Q Y F F C C T I I I I C Y ! Q T Y T I Y I A K 5 {.~.Y.{.S.J.Q.J.H.Q.Q.Q.[.,XQ.[.#X[.@XD.[.J.^.^.Q.J.^.D.C.C.~.U.U.>XU.C.",
"F U D U T Y C D V C F I I F F I Y E Y A T E F F ( I K q S.u.Q.d.H.Q.Q.H.H.Q.Q.Q.[.[.H.J.Q.{.{.S.Q.Q.Q.^.D.S.^.^.~.U.Q.H.H.#X~.U.",
"D G F D V I U D Q C F Q F C I Q I F Y Y ` I B V C Q L 0 j.>X@X{.Q.Q.Q.J.J.Q.Q.Q.^.D.J.H.D.H.D.{.^.^.^.^.S.H.^.^.~.Q.C.U.U.U.~.H.",
"I D G D C C T U Q Q I T F F F F I T T A Y C Q | Q C R x J.~.S.<X{.{.Q.Q.Q.{.{.Q.#XD.Q.J.J.Q.H.#XQ.^.J.Q.J.[.~.U.U.U.C.~.~.C.U.V.",
"T F F D I V D U M ! T C F C V C E ( Q Y I F Y I I Y ' ; j.Q.H.{.Q.Q.{.Q.Q.{.{.Q.Q.S.Z.D.Q.#XQ.Q.D.H.H.^.S.^.^.U.~.Q.U.H.C.C.R.U.",
"A U D F I U V D I F V C T I T T T Q C T F I T I Y I / s S.H.S.@XH.Q.{.#X{.Q.{.{.#X@XJ.Q.Q.J.Q.V.D.^.Q.Q.j.D.^.#XU.U.>XQ.H.~.U.H.",
"] F F C I ! D D D A I I I I I F T ( ( F F Q V V T T S 5  X,XQ.[.J.Q.H.2XJ.,XQ.#XQ.>XA.#X~.~.#XH.U.^.U.C.>XU.H.U.~.Q.).A.A.#XU.Z.",
"B T { ( ! D D G F F C Q V F ! C I C Y Q I C F V V ( K y S.V.#XH.Q.Q.H.,XQ.#XQ.{.).#XQ.U.Q.C.Q.C.~.Q.#XQ.H.U.#XA.C.V.H.H.U.~.Q.U.",
"F Y F T T I F ! F I I ( Y ( A F Y m T C V T ] I T I ' r {.#XH.#XQ.J.Q.#XQ.{.{.Q.~.~.~.A.U.H.~.Q.C.~.Q.U.U.~.Q.#X~.Q.Q.>X~.U.U.U.",
"( A I A Y F D ! T T I T E ( C ! Q I I V ( T I T A Q S r j.H.#XV.Q.Q.Q.#X{.#X#XQ.Q.U.U.Q.U.>X~.<XU.#XH.Q.~.U.j.Q.H.U.H.#XQ.C.Q.U.",
"A I Q { A ! D F ! I F Q S A Q A I Q A F ! F I M T Q ] 5 S.H.Q.j.{.{.Q.#XQ.#X[.Q.Q.^.U.Q.U.#XQ.).~.U.U.>XH.U.H.H.C.U.H.Q.H.C.~.U.",
"I C C R m C T D A Q I V I I I A ! A Q T F I F Q V F Y r S.~.Q.<XQ.Q.H.{.H.#XQ.^.~.U.Q.U.~.U.~.^.H.Q.U.H.U.#X~.~.~.>X~.Q.H.H.Q.C.",
"Y I I  .E F F D F C F C C T ( Y A  .Q I T A T I T I R 5  XV.H.H.J.H.H.H.H.Q.Q.H.Q.Q.Q.Q.~.C.~.Q.H.1X~.Z.Q.Q.A.U.U.H.U.H.H.Q.U.C.",
"T C R Q Y A D F I T F ! T C Q B T T Q I C V I Y F ! / $ j.#XQ.H.Q.H.Q.H.{.Q.#XH.R.>XU.>XH.V.H.H.H.A.~.U.H.C.U.C.Q.C.U.U.Q.>X~.U.",
"R ` A I I I F U F I A T A C F A T C ! T F C T F Q H U > =XP.l.-X{.S.Q.,XS.{.j.Q.C.Z.<XD.[.^.H.#XQ.Q.{.Q.S.j.Y.Y.H.j.Q.%X).{.L.S.",
"Y A Q { T S A ! ~ G D Y G F F T Q S Y T Q Y Y S / Q _ < Z.j.b.L.Q.~.U.C.Q.#XV.Z.{.J.Y.j.l.J.K. XD.V.#X>XH.V.S.Y.K.H.J.Q.l.'.j.j.",
"= 5 - & = 5 7 - - - w & = w - : 7 - 5 t t 7 7 - # : X v 9 = h f e : w : z z u z 0 t 5 - t - u : : & w e   u z z n n 0.i.9.r.g.D.",
"5 & 7 t d r # 5 s 0 r & = 5 r c l l s t 7 w t t = t & 4 , 6 y 0 : w 2 : k w : : w w w = w - w - > : k : 2 : : & O & O * % = O * ",
"D.D.l.J.S.d.;Xd.j.j.J.J.{.S.S.2XZ.{.S.{.{.{.S.d.|.P.B.a l.1XK.|.).J.).j.V. XJ.1Xl.%Xl.|.'.'.'.z. XS.S. Xj.S.Y.|.k.t.q.q <.2.4.2.",
"#XH.H.H.Q.U.~.C.S.H.J.J.{.Q.Q.Q.U.C.j.U.Q.#X~.#XU.=XI.- (.k.c.|.Y.Y.l.&X#XK.Y.K.l.l.|.|.K.&Xl.|.|.%Xz.l.&XK.K.%X).h.p.. 6.6.6.4.",
"V.#XV.D.#Xj.D.Q.{.Z.d.{.].D.D.].^.D.U.~.H.H.C.D.b.j.z.& s.@Xl.;Xl.K.|.K.K.&X|.K.&X).Q.V.Y.j.Y. X%X|.K.|.l.&X(.z.j.&Xj.k 1.6.1.4.",
"^.H.Q.J.J.Y.S.S.V.V.H.H.j.Y.S.V.^.D.{.H.V.Q.J.H.A.B.).8 ).`.b./.l.|.K.K.%XK.l.K.|.K.z.K.'.'.'.*X%Xl.|.K.#X#X|.#Xl.l.g.# 3.2.2.2.",
"H.S.J.H.Q.V.#XS.H.H.D.Q.V.H.H.^.V.H.[.Q.V.J.#XQ.J.~.C.: j.K.K.(.l.K.|.(.|.z.z.|.(.K.|.K.z.|.|.%X|.|.K.K.|.|.K.K.(.].w.8 2.1.8.2.",
"J.H.H.H.D.D.{.J.H.J.J.[.H.H.D.H.H.V.H.^.D.J.{.H.j.H.D.w S.|.|.|.z.|.|.|.|.z.K.(.l.K.l.|.|.l.|.|.K.|.|.(.K.z.K.|.c.l.r.5 5.4.5.5.",
"^.J.H.Q.Z.Q.H.Q.H.H.H.Q.S.D.S.S.J.V.H.[.Q.Q.^.S.H.^.Q.u S.K.K.K.K.K.K.|.K.K.|.|.l.l.l.|.%Xz.|.(.|.K.(.|.|.|.K.l.#XQ.k.> 5.5.2.2.",
"J.H.J.{.V.Q.V.J.S.V.S.D.V.V.D.D.^.D.J.Q.^.H.^.^.J.^.Q.u S.K.K.(.K.z.K.|.K.K.|.K.l.l.K.K.K.|.(.K.K.K.%X%XK.l.K.l.%XH.A.O 6.5.2.4.",
"H.S.J.H.V.D.j.S.H.S.H.H.D.D.^.H.^.H.D.S.S.D.^.^.J.^.E.u j.S.K.K.|.|.K.|.K.K.|.z.(.K.|.z.K.|.K.K.|.(.|.K.l.l.K.|.%Xj.a.& 7.4.4.7.",
"Q.H.H.V.H.Z.j.S.H.D.^.J.J.H.J.S.D.S.S.H.^.^.D.j.J.^.~.e S.l.K.l.|.|.K.K.K.K.|.K.(.|.l.|.|.l.|.K.%X(.z.z.z.K.|.K.m.K.H.3 b 4.5.1.",
"{.Q.H.D.Q.S.D.H.H.H.Q.H.J.H.J.V.H.S.D.Q.#XQ.Z.j.j.C.U.w Y.K.|.|.K.|.z.K.K.K.|.|.K.(.l.|.|.l.|.K.z.|.|.|.K.K.K.|.J.D.k.  - r i * ",
"^.{.S.J.[.H.H.H.^.H.Q.D.H.H.Q.D.[.H.S.J.J.Z.Z.^.D.U.^.: Y.K.|.K.(.|.K.K.|.K.K.|.|.|.(.l.l.z.z.K.K.K.l.l.|.|.K.K.|.j.l.= o 6 - 0 ",
"S.^.J.^.j.H.H.H.H.H.H.H.D.V.V.D.H.Q.j.{.Q.D.D.S.s.E.S.k K.V.l.|.K.|.(.K.K.|.(.|.K.|.K.l.K.l.l.|.|.S.j.S.K.Y.|.K.j.l.l.t e.D.u.U.",
"D.J.^.^.S.J.^.H.H.H.D.S.D.^.Q.J.j.{.V.S.V.S.Q.D.'.>Xj.t l.#Xz.|.z.|.|.z.|.(.(.K.|.(.z.l.K.|.l.K.|.K.S.K.K.Y.|.|.(. Xl.& H.Z.j.i.",
"H.D.H.V.V.S.H.V.H.J.H.V.D.^.J.V.V.[.J.V.V.V.{.Q.K.F.J.& z.V.|.S.z.(.|.z.|.(.|.(.|.K.K.l.K.%X(.K.(.K.K.K.K.K.|.|.$Xl.t.l j.V.s.U.",
"V.S.{.Q.{.H.H.j.H.J.J.H.H.H.V.j.Q.^.J.J.{.Z.^.[.j.U.[.- l.V.K. X|.|.z.(.z.|.(.|.z.l.K.K.l.(.K.K.|.K.K.(.K.K.K.K.Y.l.K.= V.3Xj.Z.",
"H.D.Q.H.H.S.^.H.H.H.H.^.J.D.S.D.Q.S.D.Q.,XS.D.^.l.L.Z.= g.V.l.K.|.|.z.(.l.z.z.z.|.K.|.|.|.|.|.|.|.Y.Y.(.K.K.K.S.(. Xr.t Z.d.l.U.",
"{.J.H.V.j.j.H.^.Q.D.S.H.D.V.S.Q.D.S.H.^.#X^.D.D.J.D.J.5 |.H.K.Y.(.l.(.(.(.z.(.z.|.l.K.K.K.K.l.l.|.K.K.(.K.K.K.S.S.l.l.5 i.Z.K.F.",
"H.J.Q.#XQ.^.D.Z.{.J.S.V.V.V.S.J.S.H.H.H.J.Q.D.H.j.R.V.t K.H.l.S.K.l.(.|.|.(.|.(.K.|.|.(.|.|.l.K.|.K.K.|.K.K.(.|.k.S.g.+ H.[.K.Z.",
"S.S.V.Q.H.Q.H.D.Q.^.D.V.S.H.J.H.D.J.H.H.Z.S.j.^.H.U.S.5  XV.|.S.|.K.z.|.z.(.K.(.g.K.|.l.z.z.l.K.K.K.|.|.K.K.|.%X&XS.y.- d.Z.K.C.",
"j.S.Q.J.{.D.D.Z.V.H.V.j.V.V.H.Z.Q.J.Q.S.D.J.S.Q.j.S.D.< /.).K.|.K.K.'.|.'.z.'.z.l.{.|.(.k.=Xn.'.z.|.l.|.z.l.K.z.K.k.#X& U.Z.j.J.",
"{.@XJ.V.d.H.J.D.V.J.J.H.D.D.Q.J.^.J.J.D.H.H.S.H.I.P.I.q |.l.l.b.$X(.(.$Xa.(.3X(.h.=XY.m.v.L.,X^.Y.K.(.K.Y.j.Y.&Xl.l.j.w ~.u.Z.S.",
"S.S.j.J.S.J.S.D.S.Q.J.H.D.D.Q.^.H.^.D.H.^.H.D.S.{.).j.r g.H.{.(.%X{.j.#XQ.Q.J.|.'.J.$XY.R.v.x.(.|.z.|.Y.S.S.S. X%Xu.j.w Z.~.[.j.",
"S.j.j.S.{.S.D.^.Q.Q.S.V.V.S.J.D.S.^.V.H.J.S.D.V.f.P.=X4 Y.s.].N.h.b.K.l.s.l.*Xb.x._.A.h.l.m.z.b.z.z.l.l.l.l.l.h.K.&XV.& D.D.H.V.",
"Y.J.J.S.J.S.Y.J.Q.Q.H.D.D.D.H.D.V.J.V.H.H.V.D.S.l.l.j.o 1Xl.l.c.|.Y.j.j.V.j.j.j.l.z.S.u.&Xl.l.(.S. Xj.S.Y.Y.&XS. X#Xj.  H.[.H.S.",
"S.S.j.Y.J.Y.J.J.H.Q.Y.J.H.S.J.H.V.J.H.J.^.H.H.H.L.L.:Xj # - 1 ; = u = + - t + @ % o = 9 & 3 $ -   = - + r + t & & : & = i.Q.V.S.",
"J.j.j.S.S.S.S.@XH.Q.J.J.S.j.S.H.V.D.J.J.Q.Q.D.H.f.I.-XX X.&.&.;.$.$.@.%.@.$.=.=.$.:.:.-.,.w % , 4 s 8 l r r t t 7 t t & i.H.H.Q.",
" X X XS.H.S.J.J.#XQ.S.S.S.V.H.S.j.j.D.D.J.Q.j.V.H.j.`., >.=.O.O.*.@.o.O.%.%.-.+.o.#.:.*.+.8 h p 5 : w : w $ e e + + 5 5 M.#X#XH."
};
