/* XPM */
static char *_956c3647ad0475fcee8c1a25b0443a0RGIyAyqpRBioenxC[] = {
/* columns rows colors chars-per-pixel */
"64 64 256 2 ",
"   c #19181A",
".  c #100C12",
"X  c #241918",
"o  c #341216",
"O  c #1C241D",
"+  c #28261B",
"@  c #33291B",
"#  c #39351A",
"$  c #2E3018",
"%  c #181A22",
"&  c #151C39",
"*  c #0D122D",
"=  c #17233C",
"-  c #173031",
";  c #262524",
":  c #373726",
">  c #302E31",
",  c #361C2D",
"<  c #4B3618",
"1  c #521C2D",
"2  c #701929",
"3  c #462827",
"4  c #473528",
"5  c #513330",
"6  c #6C2D31",
"7  c #5F2219",
"8  c #055908",
"9  c #085A1B",
"0  c #0A5611",
"q  c #076808",
"w  c #0D750A",
"e  c #197C0C",
"r  c #0C6818",
"t  c #157212",
"y  c #2F7114",
"u  c #095A23",
"i  c #0E5030",
"p  c #0D6724",
"a  c #0E7426",
"s  c #384437",
"d  c #4B451A",
"f  c #5B571A",
"g  c #574B18",
"h  c #67581A",
"j  c #725419",
"k  c #4E7315",
"l  c #7A7419",
"z  c #706E15",
"x  c #484527",
"c  c #574827",
"v  c #524C34",
"b  c #6C522A",
"n  c #776B27",
"m  c #141E45",
"M  c #162649",
"N  c #172955",
"B  c #163355",
"V  c #273857",
"C  c #2B2F50",
"Z  c #193767",
"A  c #102D6E",
"S  c #233963",
"D  c #332C6D",
"F  c #271E61",
"G  c #4F2C52",
"H  c #6A3A47",
"J  c #412154",
"K  c #314954",
"L  c #164C6F",
"P  c #284567",
"I  c #35566C",
"U  c #2D5575",
"Y  c #316C76",
"T  c #146461",
"R  c #4C4D50",
"E  c #6C5254",
"W  c #4F6F73",
"Q  c #6D6C6F",
"!  c #5C5C60",
"~  c #8C1A2D",
"^  c #B01C2E",
"/  c #8A2A2B",
"(  c #D0182C",
")  c #E5182E",
"_  c #EC1D34",
"`  c #E71D34",
"'  c #F21E35",
"]  c #CE2236",
"[  c #EC223A",
"{  c #F3223A",
"}  c #E5202D",
"|  c #877819",
" . c #917418",
".. c #925224",
"X. c #8F7628",
"o. c #A86C24",
"O. c #C57121",
"+. c #9F3749",
"@. c #C92C4C",
"#. c #F82946",
"$. c #EF2949",
"%. c #E33866",
"&. c #89736E",
"*. c #9C625C",
"=. c #E64F66",
"-. c #18870C",
";. c #128E12",
":. c #2C8A0C",
">. c #1E9629",
",. c #528A11",
"<. c #758D15",
"1. c #64A00F",
"2. c #0E8D6C",
"3. c #568B6F",
"4. c #898418",
"5. c #988917",
"6. c #9A9616",
"7. c #8E930D",
"8. c #A69916",
"9. c #AC9712",
"0. c #A9A416",
"q. c #B7A817",
"w. c #B8B516",
"e. c #AEAA0E",
"r. c #968C27",
"t. c #AB9128",
"y. c #9FA517",
"u. c #C4AA16",
"i. c #C6B715",
"p. c #C8BB0E",
"a. c #D0AC2C",
"s. c #E8BA34",
"d. c #CC9924",
"f. c #D4C611",
"g. c #E7C72A",
"h. c #96884D",
"j. c #B29860",
"k. c #D4AF4F",
"l. c #E5BB51",
"z. c #D5B26E",
"x. c #D8A95B",
"c. c #EAC557",
"v. c #EDC349",
"b. c #E9C768",
"n. c #E9CA77",
"m. c #F2D071",
"M. c #11338E",
"N. c #173BB8",
"B. c #1038AF",
"V. c #175686",
"C. c #295786",
"Z. c #17738D",
"A. c #30728D",
"S. c #1646B5",
"D. c #2B6BA8",
"F. c #4D7A89",
"G. c #5C5F94",
"H. c #283EE5",
"J. c #1748C7",
"K. c #1C52D4",
"L. c #2551D8",
"P. c #2C6AD2",
"I. c #2A4BE8",
"U. c #2C55EA",
"Y. c #345AEB",
"T. c #3559F4",
"R. c #2E51F2",
"E. c #3866E9",
"W. c #3965F3",
"Q. c #3273EE",
"!. c #1E6ADB",
"~. c #4A78DE",
"^. c #466AE8",
"/. c #4775E9",
"(. c #5278E9",
"). c #B97CAD",
"_. c #CE7CA9",
"`. c #F27198",
"'. c #138C8B",
"]. c #308E96",
"[. c #31A592",
"{. c #1891AE",
"}. c #3092AA",
"|. c #18A6B5",
" X c #2BB9B4",
".X c #34ADAF",
"XX c #17B59C",
"oX c #4C8C92",
"OX c #53AD91",
"+X c #4B98AA",
"@X c #46AAB7",
"#X c #50AEAF",
"$X c #68B1AA",
"%X c #6E9B96",
"&X c #1AAFCE",
"*X c #2EB3D0",
"=X c #358CED",
"-X c #30ABE2",
";X c #2698CE",
":X c #4BB6CB",
">X c #6099D9",
",X c #35CBD3",
"<X c #1ED4F3",
"1X c #1BD9F9",
"2X c #1DCCEC",
"3X c #21D5F4",
"4X c #22D9F6",
"5X c #22DCFA",
"6X c #2BDEF9",
"7X c #2FCEEC",
"8X c #1CE6FF",
"9X c #23E2FD",
"0X c #25E9FC",
"qX c #26F3FF",
"wX c #1EC9DF",
"eX c #4DCED5",
"rX c #74E3DC",
"tX c #58EAEA",
"yX c #4FEFF4",
"uX c #66E6E4",
"iX c #48D8E3",
"pX c #31CDB7",
"aX c #918B8D",
"sX c #AF9893",
"dX c #9386B8",
"fX c #B183B2",
"gX c #AFB0B1",
"hX c #A4ACA5",
"jX c #CDB3AD",
"kX c #D295A5",
"lX c #AED2B8",
"zX c #A7D3AC",
"xX c #D3CE93",
"cX c #E7CC86",
"vX c #EBD288",
"bX c #E7CE93",
"nX c #EAD495",
"mX c #F4D98F",
"MX c #CDCCB4",
"NX c #EACDB2",
"BX c #9CAAC4",
"VX c #98DBD3",
"CX c #D8D2CC",
"ZX c #FCDACC",
"AX c #FAD5C6",
"SX c #FCDDD3",
"DX c #F9DED8",
"FX c #EAD4CA",
"GX c #FDE2D5",
"HX c #FDE3DB",
"JX c #FEE9DC",
"KX c #E8E1D5",
"LX c #FEEAE2",
"PX c #FDE7E2",
"IX c #F7F9F5",
"UX c #D7ECF1",
/* pixels */
"E.Q.U.E.^.L.E.U.I.U.|.[.U N = = M {.+XV M N Z A.I N N M & Z..XM & N V.}.Y N U Y N M L {.3.a a a a a p p p p p p u u u p p p a p ",
"E.E.U.Y.E.E.R.U.I.|.[.3.C.= = M M L |.oXM M M Z.A.C & = & L  XI m N N A.].A A A.V.A A Z 3.>.a a a p r u u u u p p u u u u p a p ",
"E.E.I.E.Y.Y.T.I.P.[.L P oXA.N M N & Z..XI & = L }.Y N Z Z Z |.].N N N V.].U I 3.h.h.t.t.q.w.w.w.0.e.0.7.,.y p u u u r 9 u 9 u r ",
"W././.E.W.R.I.P.[.L M & B .XA.M N = M {.+XL Z V.{.].P S S S {.].Z A Z Q r.t.0.8.q.0.w.f.f.u.| f f z 6.f.f.i.y.<.y u r r r 9 9 9 ",
"Q.Q.Y.U.U.R.I..XY m = M & L @XA.& M M V..XY V C K V M C K I 3.3.C.I r.i.q.6.h : ; % ; x l q.q.| : % % f 5.i.f.p.w.,.r r r 9 9 9 ",
"=XQ.Y.U.T.I.P.[.oXW M = = & Z.#XL N P K C > v E Q &.E E % , 3 > > b t.r.n | 4.t.r.n x ; % ; z q.u.| 4 % % d 8.i.e.w.y.y 9 r r 9 ",
"=X/.Y.R.T.U..XT L .X].S & M B }.U K - : &.jXFXHXLXLXHXLXgX5 ^ @.2 1 3 3 4 x x c X.r.r.4.n : % % g 8.q.n @ % + X.u.5.0.w.k 9 9 9 ",
"Q.E.U.R.R.;X[.L & B }.@XI B N P s ; E NXPXPXHXDXDXDXHXHXLXFXE ^ #.$.@./ 3 + + : 4 : 4 f r.0.l x % % h q.8.c %   | i.| 4.f.,.9 9 ",
"Q.Y.Y.T.T.}.'.m M M M Z..XF.K : 3 sXJXHXDXDXDXHXDXGXDXSXSXPXZXE ] #.#.#.$.] 2 o O : x ; ; g r.r.n : % $ 5.u.h O   X.i.h z w.k 9 ",
"Q.U.U.R.Q.[.OXY M & M M L Y + E NXHXSXDXHXHXHXHXGXGXDXSXZXAXPXjX6 #.$.[ $.#.#.[ ~ X O x x % ; c r.r.g % % n i.n ;   X.w.g l w.k ",
"W.U.I.I.;X[.Z.,X.XY V M K ; *.SXHXDXHXHXHXDXDXDXSXSXZXSXSXAXSXHXE ] $.$.[ [ [ [ { ] 2   $ x : % ; n 0.z ; % f i.n X   5.9.< 4.w.",
"Q.I.I.R.@X'.M L {.*X XoX@ *.SXGXDXPXHXDXDXSXSXZXAXAXAXZXSXZXAXHXsX2 #.$.[ [ [ ` ` ' { ] 2   # x ; % x r.4.;   h u.n % @ q.| < 0.",
"Y.Y.I.R.@XZ.m & & M U R H ZXGXHXLXHXSXSXZXAXAXAXAXAXAXAXAXSXZXZXFXH ` #.[ [ [ [ [ ` [ { { ^ o O x : % : t.r.; % z i.c   h w.d h ",
"Y.U.H.E.[.OXoXoXoXA.R 6 NXJXDXKXCXFXZXZXZXZXAXAXAXAXAXAXAXSXSXAXHX&.^ #.[ [ [ [ [ ` ` ` ` { ) 2   x x % @ 8.6.+ + 4.q.:   6.5.@ ",
"Q.Y.I.P.XXZ.].@X:X:Xv *.KXlX$X$X$X#X#X$XgXFXGXSXAXAXAXAXAXSXSXZXHXsX~ #.[ [ [ ` ` ` ` ) ) ` _ ' ^ X # b ; @ 8.r.X $ 0.r.  g q.d ",
"Y.U.H.!.|.L & B B K 6 NXCXKXKXHXFXKXCXlX$X[.$XCXGXZXAXAXAXSXDXSXSXjX6 $.[ [ [ ` ` ` ` ) ) ) ) _ ' ( o + b : # 0.l   g u.h   5.4.",
"Y.U.H.{. XZ M M C 4 j.JXHXLXsXFX&.AXSXSXDXCX$X'.%XFXSXAXAXZXDXSXSXNX6 $.#.[ ` ` ` _ ` ) ) ) ) ) ` _ ` 7 . b : < q.d   4.8.+ g q.",
"^.Y.L.|. XU I Y A.5 FXHXaXKX&.jXQ KXLXLXLXGXSXMX].'.MXZXAXZXDXDXSXAXE @.#.[ ` ` ` _ _ _ _ _ _ _ _ _ _ _ 2 . b 4 | 6.  < w.h + q.",
"E.U.L.|..X%X#XeXoXR HXIXsXaX&.! R E E &.gXLXLXZXAXOX].FXZXSXDXDXSXDXQ ^ #.{ [ _ _ _ _ ' _ { ' ' { _ ' _ ' ~ . c f 8.f   4.6.X  .",
"E.Y.L.}.|.Z Z P > &.LXjXQ R aXgXR T '.T - R CXLXAXAXlXFXZXSXHXHXSXGX&.~ #.#.{ ' { { { { { _ _ _ ) ( ( ( ( ' 2 . c 4.5.  g q.# f ",
"W.R.L.}.|.Z M V > R W Z.B gXIXgXW VX}. XXX- > CXLXAXZXZXZXDXHXHXDXHX&.~ #.#.{ { #.#.{ _ _ _ ( ^ 2 1 = F D J 1 X   n 8.x + e.f < ",
"U.R.L.}.|.Z m K > U 2X0X*X- gXhX2.:X. V  XW aX> FXSXAXZXSXDXHXHXDXJX&.2 #.#.#.{ #.#._ _ ( ~ J A M.B.S.J.J.J.N.J . : 8.|   5.l $ ",
"E.T.L..X.XW W 3.3 oX8X2X1X|.C R T ,X}. X'.W IX%X! HXZXZXZXDXHXPXDXJXaX2 #.#.#.#.{ _ ` ~ C M.N.N.N.N.B.B.B.N.J.J.1 . | 6.# l 5.@ ",
"E.Y.P..XOX].}.oX3 +X1X3X<X1X&XL % T XX'.T CXUXgXC NXSXZXZXDXHXPXDXLXh.2 #._ #.{ _ @.1 A K.L.J.N.N.J.J.B.B.A S.K.G.o g 6.f z 6.@ ",
"Y.R.P..X|.Z M K 5 :X1X3X5X<X1X5X{.B - % K ! K Z.U jXGXZXZXDXPXPXDXLX&.1 { #.#.#.@.V S.Q.K.B.M.M.M.B.B.K.M.A A M.K.G $ 6.z z 8.# ",
"E.Y.P..X|.V N K 6 *X<X3X3X3X<X<X1X<X&X|.{.{.&X1XA.NXDXSXZXDXHXPXDXHXsXo #.#.#.%.C S.U.A & V Q > * - * & * A A A A P.X 4.4.l 8.< ",
"I.R.!..X|.B M K 5 *X<X3X3X3X<X<X<X<X1X1X1X1X<X2XW ZXSXSXZXDXHXPXHXGXjX3 $.#.%., S.U.M ! lXIXlX! .X X[.i > ; * N J.L., h 6.| 8.d ",
"Y.T.!. X|.P P K 5 *X<X<X3X3X<X<X2X3X3X<X<X<X9X&XaXJXSXSXZXSXHXPXHXHXjX3 $.%.6 A Q.M.Q IXIXIXW #XoX. .X2.W UXaX> A K.G d 8.5.5.h ",
"E.R.Q. XOXOX#X3.1 *X1X<X<X1X<X7X2X<X<X<X<X<X5XZ.jXGXSXSXSXSXHXPXHXHXNX> %.@.& K.K.K.B hXIXIXW XXA.- .X2.%XIXCX> < = J < 6.5.4.| ",
"Y.T.Q. X}.P V.W 2 +X1X<X3X>XdX).dX-X<X2X3X5X&XF.JXSXSXSXSXSXHXPXHXGXFX> @.1 M.K.B.K.K.A R gXQ T ,X,XpXT aXQ @  .v.r.. < 8.6.|  .",
"U.I.=X X|.V N R 1 oX1X<XBX_.fXdXdXdX:X1X<X5XZ.gXJXZXSXSXDXSXHXLXHXDXFX5 6 M K.N.S.J.J.W X.n x + - i - ; # j d.s.l.v.g # 0.8.| 9.",
"T.R.=X X|.N N K 3 F.8XeX_._.kXkXkXfXdX7X1XwXA.KXSXZXSXDXGXSXHXPXHXGXNX3 % S.J.N.N.M.X.l.c.c.l.k.j.j.j.k.l.l.l.l.l.v...# 0.8.4.q.",
"W.T.=X X&XA.}.+X5 Q 8XdX).fX).kX_.).).>X8X{.%XLXZXDXZXHXDXSXHXLXGXGXjXX Z L.N.J.S t.b.b.z.b.b.b.b.b.b.l.l.l.c.b.c.l.7 d 0.6.6.e.",
"W.T.=X XOXoX+XoX5 ! 6XdX).fX_._.fXdXdX:X1XA.CXGXSXSXSXDXDXSXGXHXSXHXaX& J.K.S.K k.b.z.b.b.b.b.n.n.n.n.b.b.b.b.b.c.a.X h 6.6.0.6.",
"T.W.-X X{.N Z Z v R 7XdX).dXfXfXfXfXfX7X&XQ JXSXSXSXHXGXSXSXGXSXZXHXE M.L.M.v x.b.z.b.b.xXzXzXxXn.n.n.n.n.n.n.b.m.o.   .6.0.e.z ",
"T.T.-X X{.C N Z R 5 7X:X).fXdXfXfX`.>X8X{.aXLXZXZXDXHXGXSXSXDXZXGXjXV J.Z n b.b.b.b.n.zXtXyXyXtXrXxXb.n.n.n.n.b.b.6 < 5.6.8.8.y ",
"T.T.-X X|.A.A.D.W 5 *X5X>X_.).).fX>X2X1XZ.jXJXZXSXDXHXHXSXSXDXZXJXQ A V o.b.b.b.b.b.VXyXtXtXtXtXyXVXn.n.cXcXb.n.k.o j 4.0.9.7.q ",
"W.W.-X XOX+X@XeX$X5 }.8X<XeX>X:X7X<X<X5XU NXHXSXDXSXDXHXLXLXHXGXjX= ; t.b.b.b.n.b.xXyXtXuXyXtXtXtXtXxXcXcXn.b.b...X | 4.0.e.k w ",
"^.W.-X X{.V P V.U 5 A.9X3X8X8X8X1X<X<X5XY sXIXSXHXHXLXDXaXsXCXJX&.% t.l.b.b.n.n.m.lXyXuXuXtXtXtXtXtXlXcXcXn.n.k.7 d z 6.6.e.y q ",
"W.T.-X X{.V N Z S 5 R 4X<X4X5X9X3X<X<X5X&XI sXNXAXNXNXsX> R &.jX> n v.b.b.m.m.m.m.lXyXrXuXrXuXtXtXtXlXcXcXn.n...X z f 8.9.6.t 8 ",
"W.W.-X X{.P S U C.R 5 *X1X3X5X5X4X<X<X5X9XwX].F.F.oX}.}..XoXoXR c l.m.m.m.m.m.n.m.lXyXuXrXuXuXuXtXVXbXcXn.cXx.o f f | 8.e.<.q q ",
"W.W.-X X[.+X:X:XeX%X3 }.8X3X5X5X5X3X<X5X4X5X9X9X5X9X9X9X0XqX&X4 k.m.vXvXm.b.b.m.m.nXuXyXuXuXuXuXuXMXvXn.cXcX6 $ l d 8.7.u.y 8 q ",
"Y.Y.-X X].I A.}.}.oX5 W 9X<X4X5X5X<X<X5X0X9X9X5X5X5X5X5X9X2XR k.m.m.m.b.b.c.c.m.m.vXxXVXuXuXrXVXlXbXn.cXbX*.. l d | 4.6.q.q q t ",
"Y.R.-X X{.V C V S P R 5 ,X1X<X4X4X<X1X*X{.&X&X2X2X2X*X&X<XY a.m.b.c.v.v.v.l.c.m.vXmXmXvXMXMXxXxXbXcXcXbXj.o d f f 5.l e.<.q t q ",
"W.T.-X X{.U V V S Z R 3 oX8X3X<X1X3X9X*X% N N Z Z S D C B x X.a.s.s.s.a.s.l.b.n.mXnXvXmXnXvXcXbXcXcXnXz.3 $ l @ 5.l l p.y q q q ",
"E.T.-X.X[.@X@X@X@X.X+XR R 6X5X3X3X3X5X5XI H C F F F D C ; D F C R E > ..s.c.n.vXnXvXvXnXcXcXbXcXcXnXz.7   4.# l 5.f 6.w.r q q q ",
"^.W.=X X].I I A.A.oX].R 1 :X8X3X3X3X<X5X&XE `.H C F D ; D D F F C , 3 a.v.b.n.vXvXvXnXcXcXbXbXcXnXz.6 . l f d 8.l h p.<.8 q q q ",
"/.T.=X X{.P C C C N Z R 4 W 0X4X3X3X3X3X0X].).`.*.H > ; J , G +.+.6 t.s.c.b.n.n.vXbXcXcXbXbXcXNXz.6 . h | X 8.4.f 4.f.k 8 q q w ",
"^.T.=X.X|.A.I P P S P P v H 7X1X3X<X3X5X9X0XI +.`.`.H +.=.=.=.%.6 o.s.s.c.n.n.n.vXcXcXbXbXcXnXj.7 X h 5.X | 8.z g i.0.t 8 q w w ",
"/.W.=X.XOX#X@X:X:X:X:X*XW 7 +X8X3X3X3X4X5X9X0XY H +.5 +.+.+.6 b t.a.s.c.b.n.n.cXcXcXbXbXbXnXj.@ o ..9.@ g 0.4.d | p.7.8 8 q t q ",
"^.^.=X.X{.P P U A.A.].+XoXx ! 0X5X3X3X4X5X5X0XqXwX'.4 o.X.X.d.a.a.s.v.b.n.n.n.n.cXbXbXbXmXh.X 7 o.q.g @ 9.6.h < e.q.z 8 8 q q q ",
"/.W.=X.X{.P C C C C C S S R 5 :X0X3X3X<X5X5X9X0XqX&Xb v.s.s.s.l.l.b.n.n.n.n.n.vXbXbXbXmXX.  ..d.9.j ; | 8.<.#  .e.8.k 8 q q q q ",
"(.W./..X|.}.}.}.A.A.C.C.U P v ! 0X5X4X4X5X9X9X9X0X|.n v.c.b.b.b.n.cXn.n.n.n.vXbXbXmXbXE X o.u.0.j @ j 8.5.# g q.8.7.y 8 q q q q ",
"^.T./..X}.$XeXiXiXiX,X,X*X*XI 5 :X8X4X5X9X9X9X5X9X&Xb v.n.n.cXcXvXvXn.n.vXvXbXbXmXz.: < o.u.q.j @ c 8.6.h @ 5.w.l 6.0 8 q q q q ",
">X(.~..X{.P Y }.*X,X,X,XeXeX%Xc E 6X5X4X5X5X5X4X<X&XR l.m.vXvXbXnXvXvXvXcXbXmXbXQ $ j O.u.q.j 3 3 t.6.| @ h p.4.h 7.8 q q q q t ",
"(.^.~..X{.A.P C V P U A.D.}.}.! 7 +X8X3X5X5X5X5X3X4XI k.b.n.mXnXvXn.cXn.mXmXj.: # ..O.q.9.j 4 5 5.8.6.< 4 8.w.d z 7.8 q q 8 r t ",
"~.Y.~..X}.eXeX}.A.U P P S V Z I v 6 iX8X4X5X9X5X4X9X].X.m.n.n.n.n.n.m.vXj.v O g o.d.w.9.j 4 5 r.8.8.b 5 j f.l + | 7.8 q q r t q ",
"^.^.~..X}.#X:XeXiXiXeX:X*X}.D.D.3.x ! 6X8X5X5X5X5X5X3XK k.m.b.m.m.b.j.v @ j o.O.9.e.5.b 5 c r.0.0.n 5 b q.e.g 3 9.7.q q q r q q ",
"(.(.>X.X{.U U U A.].@X:XeXeXeX,XOXW c ! :X0X8X9X0X0X0X&Xv l.c.k.h.c @ 7 / o.t.g.u.u.t.X...X.8.0.X.c c X.p.| 4 c 9.7.q q r q q w ",
">X(.>X@X@X#X@XF.I V C P A.}.}.OXA.=XG.5 b F.:X,X7X7X7XeXA.4 c $ : 4 5 b ,.-.-.,.<.y.e.u.u.u.9.5.b b n w.7.g 4 j 9.7.w q q q w w ",
"(.^.>X@X+X+X:XeXeX#XoXI V S C.W L.=XQ.G.4 7 7 5 6 6 5 3 4 v E sX&.I T ;.;.;.;.;.;.-.-.:.1.y.i.u.q. .a.5.h b b j 5.7.q q q q w w ",
"^.^.>X@X}.V P U }.*XeXeX#X+XoXW Q.=XQ.{.E kX*.*.*.*.&.sXjXFXLXMXf V.2.-.;.;.;.-.e e e w w -.:.1.7.e.u.9. .X.b j 5.7.q q q q w w ",
"^.Y.=X@X}.A.I P V V P C.A.}.oXC.Q.=XQ.A.&.LXJXGXHXJXJXJXJXGXLXh.s Z.>.-.;.>.-.-.e e e e e e e -.-.-.,.7.0.9.5.| 5.4.8 q q q w w ",
"(.^.>X%XOX#X$X$X%XF.I V C S F.D.Q./.=XY &.HXSXGXDXSXZXAXZXGXFXb L Z.;.-.>.;.-.-.e e e t e -.e :.:.e e e :.1.y.0.8.| 8 q q q w -."
};
