/* XPM */
static char *_cb51bffbe02492cc106f844f71197c1xCuhwE12HzXLL0dj[] = {
/* columns rows colors chars-per-pixel */
"64 64 224 2 ",
"   c #050500",
".  c #090701",
"X  c #060900",
"o  c #0C0B02",
"O  c #110E03",
"+  c #0E1105",
"@  c #0F1108",
"#  c #131205",
"$  c #191505",
"%  c #1C1A05",
"&  c #141409",
"*  c #19160A",
"=  c #1C1B0A",
"-  c #171A0D",
";  c #1D1D11",
":  c #231C04",
">  c #2A1D05",
",  c #221D0A",
"<  c #261A07",
"1  c #311B07",
"2  c #1D210B",
"3  c #1D2314",
"4  c #1E2918",
"5  c #252106",
"6  c #2B2306",
"7  c #24220B",
"8  c #2A250B",
"9  c #26290D",
"0  c #2D2A0C",
"q  c #302606",
"w  c #312509",
"e  c #332C0C",
"r  c #3A2D0C",
"t  c #36270A",
"y  c #36300E",
"u  c #3B310E",
"i  c #242412",
"p  c #2A2613",
"a  c #2D2B13",
"s  c #2D2C19",
"d  c #242A16",
"f  c #332D13",
"g  c #322E1A",
"h  c #3C2F10",
"j  c #2E3117",
"k  c #353214",
"l  c #3B3314",
"z  c #35341A",
"x  c #3B361B",
"c  c #3D3A1A",
"v  c #3A3918",
"b  c #2F2E22",
"n  c #2E3A26",
"m  c #3D3B22",
"M  c #313D2A",
"N  c #363625",
"B  c #402F0C",
"V  c #423613",
"C  c #433915",
"Z  c #493C15",
"A  c #433C1B",
"S  c #4A3E1C",
"D  c #40361D",
"F  c #422F0F",
"G  c #443D22",
"H  c #423E29",
"J  c #37412D",
"K  c #384126",
"L  c #3E4C37",
"P  c #45421E",
"I  c #4C421D",
"U  c #4D4319",
"Y  c #53451D",
"T  c #54491D",
"R  c #564519",
"E  c #454324",
"W  c #4B4423",
"Q  c #4B4529",
"!  c #4D4A2B",
"~  c #4B4827",
"^  c #534623",
"/  c #544A24",
"(  c #5B4C25",
")  c #534C2B",
"_  c #5A4E2A",
"`  c #50462A",
"'  c #55512C",
"]  c #5D532C",
"[  c #5D5225",
"{  c #474834",
"}  c #534D30",
"|  c #594F31",
" . c #5B5433",
".. c #5D5934",
"X. c #595636",
"o. c #635326",
"O. c #62542C",
"+. c #6A5B2D",
"@. c #67572A",
"#. c #625632",
"$. c #655A33",
"%. c #695D34",
"&. c #645C3A",
"*. c #6A5E3A",
"=. c #715D2C",
"-. c #6C6135",
";. c #6D633B",
":. c #67623D",
">. c #726335",
",. c #73653B",
"<. c #75693D",
"1. c #7A6C3D",
"2. c #796734",
"3. c #7E713E",
"4. c #7A652F",
"5. c #525A42",
"6. c #575F48",
"7. c #5A644D",
"8. c #6C6543",
"9. c #6E6843",
"0. c #666647",
"q. c #716640",
"w. c #746B43",
"e. c #7B6D43",
"r. c #766F49",
"t. c #796E4A",
"y. c #7D7144",
"u. c #76724A",
"i. c #7D744A",
"p. c #6A6C56",
"a. c #7A7352",
"s. c #77785A",
"d. c #746F56",
"f. c #767D65",
"g. c #86661F",
"h. c #806E3E",
"j. c #83703C",
"k. c #8B773E",
"l. c #8A6F30",
"z. c #837345",
"x. c #8A7946",
"c. c #82754A",
"v. c #85794C",
"b. c #8B7C4D",
"n. c #857C52",
"m. c #8B7E52",
"M. c #817753",
"N. c #927F51",
"B. c #887646",
"V. c #7F8362",
"C. c #8D804E",
"Z. c #91824F",
"A. c #8D8254",
"S. c #8C855A",
"D. c #8F885C",
"F. c #858259",
"G. c #928454",
"H. c #968957",
"J. c #9B8B56",
"K. c #928659",
"L. c #958A5C",
"P. c #9B8D5B",
"I. c #9D915E",
"U. c #A2935D",
"Y. c #AA985D",
"T. c #A08C52",
"R. c #888A66",
"E. c #938B62",
"W. c #998F62",
"Q. c #918D69",
"!. c #8E926E",
"~. c #9D9363",
"^. c #91936C",
"/. c #9D946C",
"(. c #9B9F7A",
"). c #969574",
"_. c #8E9474",
"`. c #A29563",
"'. c #A59965",
"]. c #AB9C63",
"[. c #A59B6B",
"{. c #A99E6B",
"}. c #ADA16C",
"|. c #AFA063",
" X c #B3A56D",
".X c #BBAB6C",
"XX c #B6A466",
"oX c #ACA373",
"OX c #ABA57A",
"+X c #A6A47B",
"@X c #B1A673",
"#X c #B4A976",
"$X c #BAAC74",
"%X c #B1A779",
"&X c #B5AB7A",
"*X c #B9AE7B",
"=X c #BCB17D",
"-X c #C2B47C",
";X c #C8B777",
":X c #C2AF6C",
">X c #B5AE81",
",X c #BCB484",
"<X c #BBB689",
"1X c #B9B587",
"2X c #ABAE86",
"3X c #C1B683",
"4X c #C4B986",
"5X c #C4BC8B",
"6X c #C9BE8C",
"7X c #C8BA81",
"8X c #C4BE90",
"9X c #CBC18D",
"0X c #CAC293",
"qX c #CDC698",
"wX c #D4CD9D",
"eX c #D5CA95",
"rX c #DAD09D",
"tX c #CDCBA0",
"yX c #D6D3A4",
"uX c #D8D3A2",
"iX c #DDDAAA",
"pX c #E1DCAC",
"aX c #E2DEB0",
"sX c #E5E4B3",
/* pixels */
"N i = * # # O O O o O O O O O O o o O O # # # O # O O O O O o O O O O O # O O # O O # O O O O o O O # % % $ # # $ # $ $ # 8 Y A ",
", # o o o o o o o o o o o o o o .   o o o o o o o o o o o o o o o o o o o o o o o o o o o o o o o o o o o o o o o o o o o O : 8 ",
"* & o o o o o o o o o o o o o o o o o o o o o o o o o o o o o o o o o o o o o o o o o o o o o o o o o o o o o o o o O o O O O 8 ",
"& o o o o o o o o o o o o o o o o o o o o o o o o o o o o o o o o o o o o o o o o o o o o o o o o o o o o o o o o O O O O # # , ",
"# o o o o o o o o o o o o o o o o o o o o o o o o o o o o o o o o # # # o o o o o o o o o o o o o o o o o o O O O # O O # $ $ k ",
"O o o o o o o o o o o o o o o o o o o o o o o o o o o o o o o o o o o o o o o o o o o o o o o o o o o o O O O O # # # # # # $ D ",
"o o o o o o o o o o o o o o o o o o o o o o o o o @ # # o o o o @ # o o o + # o o o o o o o o o o o o o O O O # # # # # # # # f ",
"o o o o o o o o o o o o o o o o o o o o o o o o + + X . . + o .     o o o o + # o o o o o o o o o # # o # O O O O # # O # # # 0 ",
"o o o o o o o o o o o o o o o @ o o . o @ 4 n M J 5.p.s.s.s.V.p.5.{ d @   . o o o # O o o o o o O # # O # # $ # O # # # O # $ 8 ",
"# o o o o o o o o o o o o o . . @ 4 M L 7.f.).^.+X,X5X9X4X3X=X$X*X=XW.u.{ 3   o + o o o o o o o o o O # O O O O # $ # # # * * , ",
"o o o o o o o o o o o o   + n 7.f._.(.(.OX>X0X4X=X4X4X,X4X4X#X`.`.P.H.J.v.v.) o   + o o o o o o o o o O O O O O O O O # O - * 8 ",
"o o o o o o o o o o   3 6.R.+X>X1X1X,XqXyXiXaX4X=X4X,X5X,X,X'.G.G.G.c.z.z.;.z.w.z   o + o o o o o o o o o o O O O O O # # * * , ",
"o o o o o o o o o . J (.1X1X5X8XwXuXiXpXpXpX0X$X=X3X,X9X%XG.e.y.b.b.b.,.e.z.#.*.y.<.# . + o o o O o O o o O O O O O O O O $ * % ",
"o . o o o o o # + J 2X<X1X5XqXwXuXwXrXwX6X,X}.}.&X,X%XE.c.c.e.w.e.v.b.b.$.,.;.W C ,.v.# . o o o o O O O O O O O O O O O O O # $ ",
"o o o o o o o @ 3 !.,X<X5X%X#X,X6X0XqX0X4X*X{.{.4X{.L.v.;.$.*.#.$.<.,.,.^ C I l l 8 <.y.o o o o o o o O O O O O O O O O o o # = ",
"o o o o o o o @ 5.<X0X,X,X%X,X,X*X=X3X=X=X%X{.`.K.K.`.U.L.] ,.;.W D l l e l e e 0 8 k e.$.. o o o o o o o o o o o O O O o o # , ",
"o o o o o o o 3 ).uXiX,X1X,X4X4X,X=X*X#X#XoX'.A.c.K.K.J.}.L.,.c.e.*.) S A e e e k f 8 l z.x   o o o o o o o o o o o o o o o O = ",
"o o o o o o . M ^.iXsX5X,X,X5XoXoX=X&XoXoX{.P.v.t...&.J.].3Xv.y.c.z.e.e.] l 0 f l f 9 7 k -.8   o o o o o o o o o o O O O o O = ",
"o o o o o o o M ^.,XuXqX5X3X&X{.#X=X&X[.'.L.L.[.w.) Q q.`.4X`.,.*.O.] ) a f l f 0 0 7 7 8 A ,.* o o o O o o o o o o O O o o O , ",
"o o o o o o o K ^.=X4X0X6X%X&X7X=X&X{.`.K.m.L.L.&. .Q ) *.%X[.x 8 7 7 7 7 ^ S S P P l l A % W k   o o O o o o O o O O O o o # , ",
"o o o o o o o s R.*X7X9X4X4X#X@X{.L.L.~.L.A.n.q. .) Q ~ ` %Xr.8 0 0 I C e e I S Y I l f 8 , % % o o o o o o o o o o # O o o $ = ",
"o o o o o o o i R.@X=X4XeX*X`.[.G.y.m.e.e.m.m.,.| Q A z n.oXE e l I ^ 8 8 $ a C e : # # : 5 8 % o o o o o o o o o o O # o O $ g ",
"# o o o o o o % F.3X=X=X3XG.I.P.c.y.w.%.( e.c.*.) D 6 ) `.;.p , 8 8 = : % $ e C U C A x : : w % o o o o o o o o o O O O O # $ , ",
"o o o o o o o O ~ 5X1X1X1XoX'.`.c.$.] _ ] O.O.] W e 0 i.c.] - o o o , , % , l C O.Z.b.,.E # , W + o o o o o o o O O o o O # $ , ",
"o o o o o o o o * c.G.L.[.oX}.H.c.*.O.( O.$.) x 0 % ~ K.z.#.- o # , 0 % $ f _ z.J.A.a % f = o *.i   o o o o o o O o o O O # # $ ",
"o o o o o o o o   &.[.`.*X[.oX~.G.L.I.L.oX&XoX[.m.c.P.m.b.<.G # o # # % f ^ c.P.I.z # e 7 # @ #.= o o o o o o o O o O o o O O $ ",
"o o o o o o o o   s `.P.4XoXt.8.i.W.'.'.P.*.#.*.%.z.b.N.G.N.<.W l f x D _ e.H.U.m # 6 u 7 7 A Q o o o o o o o o O o # o o o O $ ",
"o o o o o o o o o o w.U.>XoXA.Q p E &.w.|.v.D g g w.G.;.<.W _ / ^ / I I $.b.H.~ . 5 r e : w P 7   o o o o o o o o o o o o o O $ ",
"o o o o o o o o o o p q.E.oXm. .2 . z A -.;XJ.A ] XXu.7 l e e l e e u S S +.*.G 9 a x e 0 k l # o o o o o o o o o o o o O O O = ",
"o o o o o o o o o o . o i r.P.w.x - z ~ ) J.:XXXJ.P.9.x W / ,.S.i.i.[ A P Y ) &.) F.w.e E = o o o o o o o o o o o o o O O O O * ",
"o o o o o o o o o o o o   = c.G.c.n.*.q.w.c.U..X].P.c.f = z b.]..X-X[.q.;.;. . . .i.l 0 ^ 8 o o o o o o o o o o o o O O O O O * ",
"o o o o o o o o o o o o O . s m.P.m.x 7 ! *.H.XX|.`.%.$ @ z A.oXoX'.G.`.b.P.*.v.*.C l / D l o o o o o o o o o o o o o O O O O # ",
"o o o o o o o o o O o o o O . p $.~   o z ) b.].].].v.f X j i././.oXK.oXL.`.Y b.P c c x 8 u # o o o o o o o o * & # # O o o O # ",
"o o o o o o o o o o o o o o O o o 8 _ *.e.W <.U.].{.].M.- X.<.z.m.m.oX~.z.S.t.M.s.d.! D 2 , O o o o o o o o o & - * & O o o O # ",
"o o o o o o o o o o o o o O O O 7 b.~.E.c.M.;.P.U.&X`.].m.i.K.P.U.`.L.,.z.i.r.c.9.Q.).0.$   o o o o o o # & O - ; $ O O O o O * ",
"o o o o o o o o o o o o o o O . G L.OX` $ } Y U.U.=X{.Y.XX`.G.i.v.U.y. .%.y.%.b./ k { f.s.{ i O o o o o o o o * ; & o o O O O $ ",
"o o o o     o o o o o o o o o o # i a 7 &.e.Z z.y.A.'.XX.X.X*XW.c.i.c.v.b.;.q.J.^ 8 c i { p.N i * o o o o & & & # & O o o o O $ ",
"o o o o     o o o o o o o o o o o o H G.b.-.( ^ C S Q ] x..X9X&Xc.b.b.v.n.m.C.] 8 P G.=   & N b s ; # o * * o o o o o o o O # * ",
"o o o o       o o o o o o o o o o o 8. .% l e.i. .l 8 : % ^ A.P.H.A.H.c.#.c.e.x e / E # & #   & ; ; #.,   o O o o o o o o o O = ",
"o o o o     o . o o o o o o o o o o o   $ G. XP.^ / W l l : : e _ b.P.b.%.] / S S k o o o o o o o o i & o o O O o o # o o o O * ",
"o o   o o o o o o o o o o o o o o o O o p ].P.{.L.,.l h D f e 0 : p #.y.,.] ^ c 8 $ o o o o o o o o   o o o o o o o o o o O # * ",
"o o o     o o o o o o o o o o o o o O # O f A.{.{.v.S > e 0 9 0 5 p s g x E z * o o o         o o o o o o o o o o o o o o O # * ",
"o o o         o o o o o o o o o o O o   % w.H.P.n.] l w A W ! f ` u.r.E . o o o . o $ a p a a # o o o o o o o o o o o o o & # & ",
"o o . .     o o o o o o o o o o O o 7 m ] I.}.oX~.&.] x 8 f z k ! ! g * # # o N Q.n.v.x.z.>.x.A   o o o o o o o o o o o o # # O ",
"o o o     o . o o o o o o o o o   a L.e.A.#X4X4XoX~.i.! ! A a Q &.r.Q o # *   0.eX9X6X*X`.z.C 0 9 o o o o o o o o o o o o o o & ",
"o o o o     o o o o o o o o O = Q F.E.m.].=X@X%XX.a #.;.:.)  ...) x O o O o . b c.G.`.{.~.W 0 , c e = # o @ o o o o o o o o o O ",
"o o . o o   o o o o o o o O O D.=X}.K.`.$X].P.L.Q.} ~ ~ c z a E .. . .f $ f o.2.4.+.O.O.A % % $ e C 5 0 e e = o o # o o o o # # ",
"o o o o o o o o o o o     = , } 1.%.*.G.L.i.i.i.v.A.<.~ c 8 0 3.<.,.,.] S.~.1.^ I >.>.-.l 5 , % 8 , % 5 e Y f = # o @ o o o # # ",
"o o o o o o o o o o   m m.~.*XD.s . , i.b.;.X.r.i.z.&.l e 5 v J.Y.U.x.oX}.;.c 8 0 P A 8 7 7 0 , # 7 7 7 w 1 < e , o o o @ o @ = ",
"o o o . o o o o o o 8.-X6X5XtXwX!   g =XL.' i d ! w.c e 6 6 6 0 ..L.%X[./ c 7 7 ~ = $ % % - z z a * = r t 1 : q , o o o @ o @ - ",
"o o o o     o o   9.7X=X8XqXyXwX)   m ;X[.E - 9 : 6 6 6 6 > T C.'.#Xr.l f c k P v 7 0 = - 2 z c -.c # > > 0 6 t : o o o o o o = ",
"o o o o o o   # 9.-X=X5X0X0XtX5X..  7 I.=X0.2 9 6 : > u Y x.;X;X`.9.a 7 v P P z 7 v j 7 - $ 7 E -.A # %.V q B w , o o o o @ o = ",
"        .   m L.-X3X3X0X8X1XOX~.K.v.r.a./.~.F.F.P.H.T.XX:X].i. .m v c z z l P c A P k 9 2 $ # P w./ # I j.Z w 6 % o o o o o o * ",
"g } ..&...:.'.@XoXoX{.L.b.Z.G.H.H.~.'.L.D.'.{.{.~.~.S.r.' E ! :.i.b.v.z.i.-./ T A c k 9 7 = O , :.*.p % U 2.8 8 = o o o o o @ * ",
"~.#X@Xv.H.P.G.z.<.y.1.z.z.1.y.c.i.-.E 9 9 k j E  . .&.:.u.n.z.-.] ^ W ^ Y T U l e 5 % $ # $ % o x #.D 5 u <.l % # @ o o o o @ = ",
"[.'.G.+.y.y.,.c.T +.z.e./ a = 3 a c 7 c / P k c / ] %.-.] P c E T +.x.k.g.4.j.,.0 O % % % $ % # % a l % c / 0 , $ o & o o @ @ * ",
"`.]. X1.@.o.@.O.:.I I A f = ; 8 w i.[ V e C P k e k k , $ $ 7 f f v c W @.1.y.' i @ . . o o # , , # 0 A A y , , e $ @ @ o @ @ # ",
"W.`.*X@XJ.3.<.b.[.`.c.r.n.%...c.O.1.1.h.@.e C y 6 0 e ( %.( O.>.>.^ B r e P #.;.y.q. .x , $ * , 5 $ % y l 0 , = A 7 o @ @ @ @ * ",
",.I.=X*X,X=X=X X[.~.K.i.m.[ x G.z.A e / >.] / C 5 6 O.].'.}.-X;X.Xk.=.4.>.^ S P I v x A D V e $ $ $ $ 5 5 $ 5 8 P f = @ & & & * ",
"e m.=X*X*X#X`.L.F.r. .W e o W b.O.q : u [ k % : 0 e ] b.A.v.J..Xx.@.1.1.O.7 o * 8 x z 7 # o * % o # , 7 , $ 5 0 8 a A # & @ # = ",
"@ D A.[.[.G.A.n.$.k % % X./.G.[ u > e T Z e 5 5 0 e e A ] ] O.$.+.+.j.<.x = * & @ o = f l f q.{.S._ 6 e = % = % # 7 W p o # o = ",
"o 7 / O.O.[ ] A 8 7 7 G a.a.` 6 6 5 5 <.>.T 0 y y e e 6 : : > , 8 e l / #.-.-.] ] ] ! G g W <.'.'.b.0 q 5 % 7 , p f ' c o # # = ",
"& H K.z.1.-.l l Y T C 8 : % 5 > < > 6 %.z.@.k e 0 r S ( S l r t > q t 5 V I C l k x S ^ O.O.( A k v a % % % , 8 l / A i # # & = ",
"{ K.b.z.v.z.F R U V u e e l u e w > 1 O.>.O.k $ 7 e l S V V Z Z R T I , 7 k z D k , # # = a ] e.A.' 7 , % $ $ % , 8 , = $ # = G "
};
