/* XPM */
static char *_32578fff3244a1fb659f8a0f1405027KjdrVTeBFhKpLZGX[] = {
/* columns rows colors chars-per-pixel */
"64 64 256 2 ",
"   c #0C0405",
".  c #0C0609",
"X  c #0D0A0B",
"o  c #080604",
"O  c #130505",
"+  c #1B0504",
"@  c #130905",
"#  c #1D0B03",
"$  c #120609",
"%  c #140A0B",
"&  c #1C0C0C",
"*  c #1A060A",
"=  c #1C110C",
"-  c #1A1305",
";  c #140D11",
":  c #1C0B13",
">  c #1D1312",
",  c #181516",
"<  c #0C0F11",
"1  c #210D0C",
"2  c #250806",
"3  c #350A07",
"4  c #24130C",
"5  c #2A1509",
"6  c #36170B",
"7  c #260C15",
"8  c #241213",
"9  c #2B1413",
"0  c #281918",
"q  c #361A15",
"w  c #350B13",
"e  c #1F220F",
"r  c #272518",
"t  c #392318",
"y  c #352E11",
"u  c #181728",
"i  c #271A24",
"p  c #311624",
"a  c #182932",
"s  c #282524",
"d  c #342828",
"f  c #35352A",
"g  c #2D3333",
"h  c #45160A",
"j  c #551908",
"k  c #471B15",
"l  c #51100B",
"z  c #6A180A",
"x  c #4A260A",
"c  c #482517",
"v  c #582818",
"b  c #59361B",
"n  c #512D0F",
"m  c #642A19",
"M  c #67371C",
"N  c #762D11",
"B  c #472B25",
"V  c #593924",
"C  c #453A34",
"Z  c #4E3428",
"A  c #623D22",
"S  c #6A3B24",
"D  c #763A25",
"F  c #6D302D",
"G  c #394538",
"H  c #354027",
"J  c #73481A",
"K  c #5A4426",
"L  c #4E4A35",
"P  c #684527",
"I  c #764728",
"U  c #6F4E36",
"Y  c #6A6529",
"T  c #16354C",
"R  c #2D364C",
"E  c #0A3A64",
"W  c #334A51",
"Q  c #30576C",
"!  c #215474",
"~  c #434947",
"^  c #4F514E",
"/  c #6D5749",
"(  c #536853",
")  c #6F6C4D",
"_  c #4C596B",
"`  c #516C6D",
"'  c #6B746B",
"]  c #892D16",
"[  c #8A3816",
"{  c #973918",
"}  c #90340D",
"|  c #A73A19",
" . c #B33016",
".. c #863724",
"X. c #943A27",
"o. c #91352C",
"O. c #A63D27",
"+. c #B42C26",
"@. c #9D1B19",
"#. c #D03114",
"$. c #CD3029",
"%. c #E53A23",
"&. c #D62725",
"*. c #99441B",
"=. c #8B4A14",
"-. c #A94719",
";. c #B64A1A",
":. c #B7541D",
">. c #AA5511",
",. c #9C4627",
"<. c #8C4F2E",
"1. c #A84825",
"2. c #B64925",
"3. c #A85525",
"4. c #B75728",
"5. c #AE4E33",
"6. c #8F6B32",
"7. c #B06A2F",
"8. c #AD671B",
"9. c #CA4815",
"0. c #E44A16",
"q. c #CE512C",
"w. c #E35227",
"e. c #CA6A32",
"r. c #E47325",
"t. c #887750",
"y. c #AF6F52",
"u. c #9E6B5A",
"i. c #D56D53",
"p. c #6E8770",
"a. c #4D827A",
"s. c #9D8135",
"d. c #CC8535",
"f. c #D6AC36",
"g. c #938C59",
"h. c #B08C57",
"j. c #898B6F",
"k. c #AD986E",
"l. c #B3A66F",
"z. c #B2A25A",
"x. c #ECAF68",
"c. c #D5AA57",
"v. c #DAC370",
"b. c #E9C469",
"n. c #2C5D8A",
"m. c #2E6B93",
"M. c #2A77AA",
"N. c #377DB6",
"B. c #3278AB",
"V. c #1E6C9A",
"C. c #4D7087",
"Z. c #697C8A",
"A. c #4E7BAD",
"S. c #415D8D",
"D. c #2D86B8",
"F. c #3285BB",
"G. c #338BBB",
"H. c #3688B8",
"J. c #3892BD",
"K. c #3283AE",
"L. c #558896",
"P. c #738B90",
"I. c #4689B7",
"U. c #4897BB",
"Y. c #5A96B9",
"T. c #528BAD",
"R. c #689AB9",
"E. c #6D94A8",
"W. c #70AAB9",
"Q. c #5BA5BF",
"!. c #338CC2",
"~. c #3989C7",
"^. c #3993C2",
"/. c #4699C3",
"(. c #5998C4",
"). c #4A8AC8",
"_. c #639AC6",
"`. c #57A7C5",
"'. c #51A5CC",
"]. c #66A9C6",
"[. c #6AB1CB",
"{. c #78B5C9",
"}. c #77B1CE",
"|. c #8E9491",
" X c #A8998B",
".X c #B5AE95",
"XX c #899BA9",
"oX c #96ABAB",
"OX c #8CACB2",
"+X c #AEB1B0",
"@X c #8DA893",
"#X c #C8B8B4",
"$X c #DEB08F",
"%X c #B6C7B3",
"&X c #E9D299",
"*X c #DDD3A9",
"=X c #CBC9B9",
"-X c #DCD8B8",
";X c #D5CAB1",
":X c #E5D7AB",
">X c #E2D5B3",
",X c #E4DBB5",
"<X c #E4DCBB",
"1X c #E9DAB7",
"2X c #EDD6AF",
"3X c #E9E2BB",
"4X c #F4E7B5",
"5X c #D9D293",
"6X c #87BCC9",
"7X c #99BCC8",
"8X c #8DB6D4",
"9X c #AFBCCA",
"0X c #98C3CB",
"qX c #97C5D5",
"wX c #8BC3D1",
"eX c #A3C6CD",
"rX c #B7C8C8",
"tX c #A6CAD5",
"yX c #AAD2D8",
"uX c #B8D4D8",
"iX c #B8CDD1",
"pX c #BAD6E7",
"aX c #A7D1E6",
"sX c #B2DBE8",
"dX c #DADAC7",
"fX c #C6CBD5",
"gX c #C7D8D8",
"hX c #D7D9D7",
"jX c #CECEC9",
"kX c #E5DDC5",
"lX c #E2DED7",
"zX c #DAE4D7",
"xX c #D5E2D1",
"cX c #EBE3C3",
"vX c #E5E3C8",
"bX c #E3E4D3",
"nX c #E7E9D7",
"mX c #F3E8CB",
"MX c #C9DBE6",
"NX c #D6DBE6",
"BX c #C5D6E9",
"VX c #CAE4E5",
"CX c #D8E7E6",
"ZX c #D7E7F4",
"AX c #D5EFF3",
"SX c #ECECED",
"DX c #E7E9E6",
"FX c #F2ECE8",
"GX c #EAF2EB",
"HX c #F1F2EB",
"JX c #E9EDF2",
"KX c #ECF3F2",
"LX c #F3F3F4",
"PX c #F4F7FA",
"IX c #F2EDF3",
"UX c #E5DEE6",
/* pixels */
"n.m.V.V.m.m.V.M.M.N.M.F.F.F.!.D.D.G.^.G.^.G.G.G.H.J.H.H.K.K.H.J.G.F.D.F.F.~.F.F.M.F.G.M.F.F.G.D.F.G.N.F.D.D.^.!.F.B.K.M.H.G.J.H.",
"M.N.B.B.K.M.B.B.D.D.J.J.D.J.J.G.G.J.^.H.^.H.H.F.D.D.D.D.D.!.G.D.!.G.!.!.!.!.!.!.!.D.D.G.D.F.!.G.D.^.!.!.!.!.D.!.D.D.^.G.G.D.G.G.",
"D.K.B.M.G.D.M.N.G.F.D.F.G.^.K.I.F.F.G.!.^.G.H.F.^.J.J.^.J.J.J.H.J.H.G.D.D.G.J.^.^.G.D.G.G.H.H.^.G.^././.^./././.U./././.U./././.",
"!.G.D.!.F.F.G.D.J.J.H./././.U.U.U.U.U.U.U.`.`.`.].`.].].].].].].[.].].[.].[.Q.].`.].].Q.[.`.].].[.}.[.}.].{.}.{.{.{.{.{.{.wX{.{.",
"U././.J.^.^./.U.L.W.].Q.W.W.W.{.6X{.{.6X6X6X6X6XwXwXwXwX6X6XwXwXwXwX6XwX6XqX6XwXqXqXqXqXqX0XtX7XwXtXqXqXyXtX0X0XtX0XqXyXtXeX0XtX",
"'.'.'.'.`.Y.a f VXtXtXyXeXyXtX0XtXtXtXyXyXyXtXtXtXyXtX0X0XeXeX0XtXeXeX7X7X7X0XeXtXtXtXtXtXtXiXiXyXyXiXyXuXMXiXuXiXyXuXuXuXuXuXuX",
"8X6XqXwXwX6XoXL %XrXuXuXiXuXuXgXMXMXuXuXuXuXuXgXiXuXuXiXuXgXuXiXiXiXgXiXgXgXCXVXVXVXVXVXCXCXzXCXgXgXCXCXzXCXgXgXxXhXxXgXgXgXgXgX",
"sXyXuXVXMXiXG .Xj.xXDXCXzXzXzXzXxXzXzXzXnXzXxXzXhXzXzXzXzXhXhXzXCXzXzXjXdXzXhXdXbXbXnXdXdXdXbXdXbXnXxXxXdXdXdXnXbXdXxXnXnXzXbXnX",
"VXCXCXCXCXgXG l.k.DXbXkXhXbXDXvXvXnXdXbXbXbX-XvXkXkX-X-XvXdXvXdX-X3XvXkX-X:X>X<X>X>X>X-X<X-X<X*X*X,X-X,X-XvX-X-X>X>X,X-X<X3X<XvX",
"DXDXzXxXnX%Xf k.z.dXdX-XdXdXkX3XvXkX<X<XvX=XvX1X>XcXK :X2X2X*X:X3X*X*X>X:X*X5X:X2X2X:X:X:X&X&X&X&X&X:X&X:X2X2X2X>X>X,X,X<X<X-X-X",
"dXbXdXmXvX%XK z.z.1X-X<X<X-XkX,X-X>X4X4X,XcX>X1Xt.:X:X:X1X:X1X1X*X,X3X>X*X>X,X,X-X3X-X-X>X>X2X1X:X4X:X3X3X3X4X3X1X1X3XcXcXcXmXcX",
"-XnX-XkXkX=XK h.l.2X*X*X<X>X>X,X>X<X<X-X,X:X1Xt.>X*X<X<X-X-X<X-XdX-X-X<XdXlXbXvXcXkXcX*XcX>X3X<X1X,XmX>X3X,X,X1X1X<X<XcX3X<XcX<X",
",XvX<X<X-XvX) h.z.l.,XcX>XkX1XcXvXcXcXvXbXvX;X.X3X<XmXvXdX=X|.=XGXCXzXzXzXVXP.f @X%X%X%Xj.g.g.l.1XmX1XmX3X1X3X3XcXcXvXmXcXkXmXcX",
",XcXmX<XkXvX) g.s.l.3X-X-X-X<X-XbXdXvXnXDX( / g.t.) t.) ) y r +XrXeXtXyXeXqXW.a.fXDXJXDXFXnXbXnXnXbXHXbXnXbXbXnXnXnXnXnXnXnXnXnX",
"vXdXxXlXbXzX) K k.g.vXbXnXnXxXnXnXDXgX~ |.=XbXDXIXSXDXf f f ~ i P.R.[.R.L.Y.T.` P.GXGXHXKXDXJXKXKXPXSXPXSXSXSXKXLXHXHXHXHXFXFXHX",
"DXAXAXDXCXCX' y k.) hXLXDXCXJXoX' g j.dXGXLXSXHXGXGXDXG ( G d s W C.(.Y.A.U.T.C.W JXDXSXIXLXPXLXLXKXSXHXHXLXKXLXLXSXKXKXLXLXSXLX",
"zXVXzXCXCXZX( d p.( G ' ' s ( p.oXnXGXUXGXCXHXFXnXGXZXf ( ` ~ d C.}.(.U.T.Y.n.C.W JXSXSXSXKXLXHXLXLXIXPXKXKXKXGXLXKXHXHXKXHXLXKX",
"I.).(.I.T.T.W d ' ) H @Xp.Q L.B.Y.8XyXVXNXMXgXrXHXJXJXL ( ` ^ f 7XqXT.(.R.I._.Q ' PXSXIXPXKXPXKXKXKXKXKXLXLXPXLXIXLXLXKXSXKXLXKX",
"I.H.K.H.I.I.G r p.p.Q Y.I.A.B.B.m.n.m.S.m.E.u.7.x.f.z.W ~ ` ` ^ tX8XY._.T.Y.A.Q oXCXCXCXDXDXCXCXJXDXCXCXCXMXMXVXMXMXNXCXDXJXJXSX",
"B.I.K.B.N./.g G ' CXOX{.].T.M.m.m.n.n.H.` y h.7.d.7.6.oX~ C.C.W aX8X/.Y.].].Q W ' L C L G ~ W ` ` C.C.L.E.R.R.{.{.6X6XOX' W G ~ ",
"A.N.H.K./.U.g ' p.VX0X[.'.I.B.n.m.H.}.F / 0 t B n K b K T ` Z.` OXtX'.(.Y.N.S._ B B c c c K / U U ) P U U ) U K P b b V V c B Z ",
"`.`.`.`.T.m.i ' ( fX7X}.I.(.R.6XW.C 3.6 B b v v P n n K gXW Z.C._ ZX[.(.].B._ ^ I I I S P P P P A P P K V K P U K V V V V V A A ",
": i : 8 > g 0 a.p.e 0 0 8 8 4 4 9 x Z F v v M v I I D Z b iXP.Z.NXR R.(.Y.n._ U P I <.P I U I I <.I S M P b P P b A P P P A A b ",
"+ > % & @ i , R.j.t.I <.J S M S b Z c x v V m N V n m v x f G W / ^ 7X_.8XQ MXJ I I I I S M I M M I I U A A S P P P b P A V V K ",
"8 4 ` u p 9 a W.6.6.6.J A b c b v S v M v v m j S m v v t t d ~ d t ~ 9XW W DXS P P S D D D I I P S M I M b P P P M P P P P b P ",
"6 4 > 0 s r L.W 6.6.<.M v c v v v v c c v c v c c b h h q t 1 q 0 9 9 ' ZXW FXv Z V S <.<.<.I P M I I I I P M b I P A A P b A A ",
"q 7 9 8 s , W.( 7.6.=.N S v v v k v v c c c t 5 9 q q 5 t q 9 2 = 9 4 8 i s 8 6 q c k v v v n x M v M M M S P A A M A b b b b b ",
"= 8 2 t , G 6X' 7.=.<.I b c c h c c c c 6 6 5 9 9 7 8 4 5 # 4 8 4 4 8 9 9 1 1 9 q q 3 c c A b v v b U <.P b A P V V A b b V c c ",
"= $ - 2 , p.E.p.<.<.D m v c k c q q q 9 9 8 8 8 7 9 * 7 7 7 8 @ 2 1 & * + 9 1 0 9 4 q 4 6 5 k k c c 6 c c c c c B Z c c c c c c ",
"2 2 > : ~ ` P.f <.m v c k k q 6 1 8 4 8 8 0 8 + - & 0 & 1 1 % , 9 8 $ $ & * 1 8 & = 8 9 9 q q 9 9 t 9 q q q t t t t 6 t c t B B ",
"6..X8 t G ' ~ 6.4.4.7.5.7.7.7.3.4.3.-.3.3.4.3.3.8.7.7.d.e.d.h.3 1 + = & : : 1 1 8 & 9 + 1 + 0 0 9 4 4 9 9 9 q 9 9 9 9 9 4 9 1 9 ",
"7.y p y H |.j.O.-.{ X.X.{ [ { [ [ { *.[ ,.*.3.*.,.,.1.4.e.h.2 , > @ + + * * O # 1 1 & & & 1 & + & 1 8 & 8 1 1 0 4 0 & 8 1 + & & ",
"3 C 7 q ) p.t.v ,.] { D { N N D ....<...{ } ,.1.*.=.=.,.8.1 t : 1 O O O = & * $ & 1 + & 8 = 8 & * 7 1 1 5 & 0 1 & 9 > 7 ; 4 - 1 ",
"|.j.f L n y.X.{ } o.{ <.[ ..{ ..N S D 1.X.,.1.} -.O.,.>.- 3 w & + & & $ O O * & & & 1 & & * & 0 ; , 8 8 1 7 : > : & # 8 : : = % ",
"-.[ O.,.3.5.,.| [ } [ ,.[ ..N =.Y Y Y g.) j.k.6.J 4.:.6., 2 q + 8 & $ * * $ * & & * & & & 1 * 8 2 q + & 0 8 8 9 0 > # ; 8 i g 9X",
"[ 1...X.| -.1.y.x.o.2.d.s.t.) _ S.! n.T Q n.Q ` ( H b.j.9 8 c + 8 * * & & O * > & $ @ * 8 8 & & ; , > r = * p & = s d ^ f W Z.E.",
"O.[ 1.-.4.-.h.l.F d.d.L.I.H.A.K.! R.N.!.).~.F.N.V.L.p.5X- 9 n @ O & & O @ & & O $ * O * 1 & & & i |.a a W a |.P.C KXKXZXMXW W Z.",
"X.O.} | z 3 <.N q d.}.B.).M.m.I.T n.N.H.F.~.~.~.).aX{.) %Xq h 9 O $ $ O $ & *     $ O & 1 & & & g P.tXpXpXZXZXDXDXfXJXAXpXtXQ W ",
"{ | O.h 7 2 5 5 w e.`.).m.n.m.m.V.~.!.~.).I.F.I.8XCXaX` FXd c # @ % & & @ O @ & O $ * & 8 8 8 8 _ ` s s r g XXAXoXZX7XgXpXpXR.C.",
"[ X.X.z z D v 7 n k .X).H.T a E ! E ! E E E E P.ZXVXaXj.mXe j 4 % % $ O $ & & $ & & 1 & & 8 8 d @XCXAXAX9X_ a s OXZX9Xs BXpXT.Q ",
"O.| ,.1.{ ,.o.# 6 y.r 3.+XI.'.).~.).I.~.K.).).Q gXpX8X) FXq m & @ O * O $ @ O O ; + @ r i |.gXJXhXNXNXNXCXMXOXg C.XXZXE.XXC.A.C.",
"*.| { { | -.2.v + p v.6.5 9 =.h.z..XoXT.(.(.].E.MXZ.7X) .X3 N * & * $ O @ $ $ & $ + r |.hXCXgXhXhX|.9XhXNXNXNXNXL.a _ R Q R Q A.",
" .1.2. .2.4.-.4.,.k 2 - w h.6.J y t r 5 b DXVXOXZXpXyXj.l.v N 8   O O $ $ = O $ & ^ ( NXNXNXfXNXhX+X#X+XSXhXhXhXNXrXZ.f 0 a W +X",
"5.;.9.2.-.2.2.4.1.:.,.j q w p ; 9 1 * # v.P jXtX|.ZXuXoX4XV *.4 & $ O     $   $ % C oXgXfXfXVXNX XZ kX+X X XdXjXhXNXNXXXi g _ T ",
"{ 1. .q.q.9. .l 3 j z z h h q x t 4 8 : 7 n -X8XNXuXpX{.$Xc e.2 > % %   % $ $ = ^ d +XMXpXgXVXMXC t./ #X=X=XjXjXhXhXMXBX_ u W ' ",
"| m k w 3 l l 6 7 =  .w.2.2 # w 9 - + - 7 Y =XMXZXgXpX{.6.V -.7 @   %   % % @ $ ' 0 gXfXBXgXfXMXjXt k.;X#X-X=X+XjXlXjXMX|.f R Z.",
"3 1.5.y.@.@.+.@.#.i.+.#.$XN w + 2 5 h 6 5 6.KXAXZXVXAX6Xz.m { 1 & $ O         @ ~ s 9XiXfXrXgXhXhXUX^ u.) #X.X X#X+XoX^ ( E.XXu ",
"&.z @.{ $Xq.9.#.9.+.w.l i.- : & = 0 *.k 8 U jXuXVXMXsXOXb.D ,.# @ @ O $ $ % O = s s oXfXfXrXgXNXNXNXhXt. X)  X Xk.j.' oXrX0 % @ ",
"$.] i.u.y.z N O.9.#.e.x 5 2 8 + + y.q.[ 5 b -XAXMXpXsXh.&X,.| 5 $ O @ O     O $ d 0 ` +XNX#XjXhXDXhXhXf U t.t.) @XoXr / ; ; @ $ ",
"N w l V 7.i.e.#.r.2.r.,.% = : 2 j 7.;.o.- 5 .XKXMXpX9Xf.5.} 2.7 O $ $ $ @   O O d > 0 |.hXjX#X#XNXNXCX' r j.+X+X3 A u.- = O : $ ",
"j z U u.O.q.2.i.w.2X9.3 2 $ 2 3 8.q.2.5.9 8 l.DXVXeXdXc.3.5.-.1 & O     @ $ % O % 0 8 d ' j.'  XjXjXDXB U C ` 9X, q 4 8 + $ < % ",
"w.q.q.i.$.z w.0.z w.#.u , : * e.e.q.-.| N 0 0 jXMXyXl.x.*.O.| 7 O @ O       O % @ @ C 0 s ' |.#XfXrX%XL d |.zXr @XL r hX> : . o ",
"q.w.#.$.$Xw.9.$.0.$.9 % * 5 i.7.*.2.;.q.5.6 7 L aXpX8.[ 1.;.e.; $ $ O % % %     &   o * C f f ^ XXOXMXBXOXQ g 8 k C C t G p.X O ",
"9.%.%. .y.%.w.#.9.@ * O @ v >.:.-.-.:.-.5.x & 6 yXdXx.<.*.1.m %   % % %     $ &   , X   >   , g d ^ fXBXeXOXgXd 6.k.6.g.r ^ @ ; ",
"%.%.#.%.0.w.&.z , @ X ; 6 3.:.;.2.;.q.4.-.v 7 l.v.f.>.*.*.4.: + %       $ % $ % :     % $ O $ ; * C r r P.tXXX|.d 0 0 C O . X o ",
"0.#.%.9.q.w 2   2   O $ >.3.2.1.| ;.;.>.q.m x 6 y.x.| { { z o o %               o O * O O O *   o % @ r / , g ` < # O     * . % ",
"m 2 9 $ : & O > * @ * y.>.O.2.;.| -.:.:.;.{ z z ] 1.O.{ -.O < O $   %         $ =     O $   $ % @ O   $ % $ > > % O   O @ $ X X ",
"2 * % % %   % X ; @ 3 *.-.1.;.1.{ 4.;.:.| 2.5.,.{ ] ] | I # .   O   % %       O           % % O $ % $ % % X % X ; %   O     o o ",
"X ; . X : $ O % X 2 3.3.{ -.4.1.1.;.e.| -.1.{ } N X.] { 2 O @ %       X   $     X X o $   %     % % % % % X X . % X         X X ",
"; $ . $ O $   & 1 7.3.2.} 1.-.1.| -.-.{ ] ] N N N ] N M O $   . $       o           o o   o . % X X o   o . X . . o o o   o o o ",
"  O   * o . ;   j [ { ] -.1.1.{ } { { X.N z l j D z N 2 . % @ $ $ o     o X           o o X % X X . . . o o . X o o o o o o o . ",
"% O   . < <   2 3.*.F [ *.o.} ,.N [ z ..m k k k v z k , : o o X X o X X . X X X % X % X % . X X % X X X X . . % . o . X X X X X ",
"< X % o < X 2 I *.X...] ,.N =.z D v j h q 6 6 v j v 2 X o X ; o X X % X . X X X       X % X X % X o . . . X . X % X . o o o o . ",
", X $ ; X 4 D y.,.[ N ] N m v j 6 c 6 k 5 6 6 h m 6 ; $ < O o < % X % X o X X X   % X o   ; % X ; X X o X ; % % ; X o o . X ; ; "
};
