/* XPM */
static char *_99e873a4bd64b5e8674b87812c556ecetBw8XY7MCnIAeG8[] = {
/* columns rows colors chars-per-pixel */
"64 64 193 2 ",
"   c #0E0C0D",
".  c #140E0E",
"X  c #0C150E",
"o  c #1A1205",
"O  c #12150E",
"+  c #1A110A",
"@  c #1C180D",
"#  c #0D081C",
"$  c #1C0C1D",
"%  c #190E15",
"&  c #0D1814",
"*  c #09191C",
"=  c #151415",
"-  c #1A1514",
";  c #141A12",
":  c #1C1B15",
">  c #161519",
",  c #1A161B",
"<  c #15191A",
"1  c #1A191C",
"2  c #220406",
"3  c #251808",
"4  c #24100F",
"5  c #360F12",
"6  c #281117",
"7  c #221B1A",
"8  c #221B13",
"9  c #16201F",
"0  c #3A2200",
"q  c #362B00",
"w  c #3B3305",
"e  c #0B1822",
"r  c #181723",
"t  c #1A1A22",
"y  c #18192A",
"u  c #131E30",
"i  c #211D22",
"p  c #221421",
"a  c #4E070F",
"s  c #520807",
"d  c #51060B",
"f  c #4F0810",
"g  c #530610",
"h  c #50191E",
"j  c #76121B",
"k  c #7A121B",
"l  c #7F181C",
"z  c #432A0B",
"x  c #413400",
"c  c #761C26",
"v  c #53212A",
"b  c #0E3159",
"n  c #1A2E69",
"m  c #162D79",
"M  c #0E3372",
"N  c #04347C",
"B  c #0A3B7E",
"V  c #06387C",
"C  c #15337B",
"Z  c #143B7C",
"A  c #1F3B7C",
"S  c #29326B",
"D  c #253A7B",
"F  c #726A5F",
"G  c #666465",
"H  c #686667",
"J  c #6C676F",
"K  c #6C6B6B",
"L  c #746B6E",
"P  c #696972",
"I  c #746C73",
"U  c #6A7070",
"Y  c #6F7877",
"T  c #747272",
"R  c #777779",
"E  c #7C7A7B",
"W  c #787878",
"Q  c #84171D",
"!  c #801A1E",
"~  c #8E1818",
"^  c #991D1F",
"/  c #811122",
"(  c #861922",
")  c #941526",
"_  c #961B25",
"`  c #961728",
"'  c #931928",
"]  c #9A1B2C",
"[  c #9E1F30",
"{  c #DF0C1D",
"}  c #CB1716",
"|  c #E10B1C",
" . c #DF0921",
".. c #D70729",
"X. c #E00B21",
"o. c #E6062B",
"O. c #F9CE06",
"+. c #FFD500",
"@. c #F5DF00",
"#. c #FEDD05",
"$. c #FEDC09",
"%. c #FED50B",
"&. c #E3DA13",
"*. c #FADB11",
"=. c #FFDF1B",
"-. c #FFE40C",
";. c #F0E62F",
":. c #F8E233",
">. c #F6E03B",
",. c #F9E139",
"<. c #8B8E7D",
"1. c #F5D745",
"2. c #072E89",
"3. c #093785",
"4. c #053986",
"5. c #083986",
"6. c #03368C",
"7. c #0A368C",
"8. c #053A8B",
"9. c #09388B",
"0. c #033684",
"q. c #163481",
"w. c #1D3381",
"e. c #13358B",
"r. c #1B3884",
"t. c #023392",
"y. c #043E92",
"u. c #0A3C92",
"i. c #0A3593",
"p. c #143890",
"a. c #124284",
"s. c #7E7980",
"d. c #867C85",
"f. c #948983",
"g. c #8F958A",
"h. c #8D8E90",
"j. c #968B92",
"k. c #899490",
"l. c #ABA7AA",
"z. c #B2A8A9",
"x. c #ABB0AC",
"c. c #ADABB5",
"v. c #B3AAB6",
"b. c #C4C1C1",
"n. c #CEC9CF",
"m. c #C8C8CB",
"M. c #D3CDCD",
"N. c #D1CFD2",
"B. c #D5D4D4",
"V. c #DAD5D5",
"C. c #DEDDDC",
"Z. c #D6D6D9",
"A. c #E1DDDD",
"S. c #EADEDE",
"D. c #D4E1DA",
"F. c #DDE2DE",
"G. c #E2E2DE",
"H. c #EBE6DB",
"J. c #EAE9DD",
"K. c #E5E9DA",
"L. c #E5F0DE",
"P. c #DEDEE2",
"I. c #E3DEE1",
"U. c #E9DDE5",
"Y. c #EBDFEB",
"T. c #E4DDED",
"R. c #DDE2E3",
"E. c #DDE8E8",
"W. c #E4E3E4",
"Q. c #E9E5E6",
"!. c #E6EAE3",
"~. c #E9EBE5",
"^. c #E5E4E9",
"/. c #EAE6EA",
"(. c #E5EAEA",
"). c #EAE9EB",
"_. c #F1ECED",
"`. c #F3E6ED",
"'. c #EDF1E5",
"]. c #EDF2EB",
"[. c #F1F3EB",
"{. c #E4E3F3",
"}. c #EBE4F3",
"|. c #EDEAF1",
" X c #EEEDF2",
".X c #EDECF1",
"XX c #EEEBF9",
"oX c #E4E8F1",
"OX c #F1EEF2",
"+X c #F2EBF9",
"@X c #EFF0F4",
"#X c #F2F1F4",
"$X c #F5F4F9",
/* pixels */
"~.XX'.).).).~.!.~.~.!.!.!.!.!.~.).W.E.W.!.T.(./.^.^.^.^.^.^.^.W.^.^.W.W.W.W.W.W.^.W.W.W.W.R.R.R.P.P.P.P.P.P.P.P.D.S.G.D.F.C.C.C.",
"'.).[.).)._./. X.X.X.X.X.X.X.X.X/./. X`.~.Q.).Q.~.~.~.~.~.!.!.!.W.W.W.W.W.W.W.W.W.W.K.G.G.G.G.G.G.G.G.G.G.G.G.G.W.U.A.A.A.W.C.C.",
"@XXX). X).[.XX}.).)././././././.'.).{.+X^.~.(.(./.).)./././././././././././././.W.W.W.W.W.W.W.W.W.W.W.W.W.W.W.W.^.R.^.^.R.W.U.U.",
"'.[.).#X X[. X~.).).).).(.(.(.)././.#X/.}..X.XL.).).).).).).).).).).).).).).).).^.^.^.^.^.^.^.^.^.^.^.^.^.^.^.^./.W.P.W.C.C.A.U.",
"+X/.OX).= t = 7 , , , , - - - - 8 - & ; - t $ 1 , , , , , , , , , , , , , , , , , , > > , , , , , , , , , , , , ; ; 1 1 /.I.W.R.",
"$X~.~.~.< # w 0 q q q q q q q q 0 z q q x 1 f g a a a a a a a a f f f f f f f f f a a a a f f f a a a f f f a a s d 5 = ).W.R.F.",
"'.)./.XX- 3 &.$.$.$.$.$.$.$.$.$.=.O.-.*.1.6 ~ } { { { { { { { { { { { { { { { { { { { { { { { { { { { { { { { { X.../ - /.U.R.W.",
"$X^. X.X- 2 -.+.$.$.$.$.$.$.$.$.@.$.%.*.;.O ^ o.| { | | | | | | | | | | | | | | | | | | | | | | | { | | | | | | {  .j ; (./.F.S.",
"#X~.). X> o #.$.$.$.$.$.$.$.$.$.$.#.$.$.:., _ X.{ { { { { { { { { { { { { { { { { { { { { { { { { { { { { { { { { { j , ).G.W.F.",
"#X~.). X, o #.$.$.$.$.$.$.$.$.$.$.#.$.$.:., _ X.{ { { { { { { { { { { { { { { { { { { { { { { { { { { { { { { { { | j , ).G.W.F.",
"#X~.). X, o #.$.$.$.$.$.$.$.$.$.$.#.$.$.:., _ X.{ { { { { { { { { { { { { { { { { { { { { { { { { { { { { { { { | | j , ).G.^.G.",
"OX~.). X, o #.$.$.$.$.$.$.$.$.$.$.#.$.$.:., _ X.{ { { { { { { { { { { { { { { { { { { { { { { { { { { { { { { { | | j , /.G.^.G.",
"OX~.). X, o #.$.$.$.$.$.$.$.$.$.$.$.$.*.:., _ X.{ { { { { { { { { { { { { { { { { { { { { { { { { { { { { { { { | | j , /.G.^.G.",
"OX~.). X, o #.$.$.$.$.$.$.$.$.$.$.$.$.$.:., _ X.{ { { { { { { { { { { { { { { { { { { { { { { { { { { { { { { { | | j , ).G.^.G.",
"OX~.).OX, o #.$.$.$.$.$.$.$.$.$.$.#.$.*.:., _ X.{ { { { { { { { { { { { { { { { { { { { { { { { { { { { { { { { { | j , ).W.^.G.",
"OX).).#X, o #.$.$.$.$.$.$.$.$.$.$.$.$.$.:., _ X.{ { { { { { { { { { { { { { { { { { { { { { { { { { { { { { { { { { j , ).G.^.G.",
"OX~.).#X, o #.$.$.$.$.$.$.$.$.$.$.$.#.*.:., _ X.{ { { { { { { { { { { { { { { { { { { { { { { { { { { { { { { { | { k 1 /.F.W.A.",
"OX~.).#X, o #.$.$.$.$.$.$.$.$.$.$.$.#.*.:., _ X.{ { { { { { { { { { { { { { { { { { { { { { { { { { { { { { { { | { k 1 /.F.W.A.",
"OX~.).#X, o #.$.$.$.$.$.$.$.$.$.$.$.#.*.:., _ | { { { { { { { { { { { { { { { { { { { { { { { { { { { { { { { { | { k 1 /.F.W.C.",
"OX~.).#X> o #.$.$.$.$.$.$.$.$.$.$.$.#.*.:., _ | { { { { { { { { { { { { { { { { { { { { { { { { { { { { { { { { | { k 1 /.F.W.C.",
"OX~.).OX, o #.$.$.$.$.$.$.$.$.$.$.$.#.*.:., _ | { { { { { { { { { { { { { { { { { { { { { { { { { { { { { { { { | { k 1 /.R.W.C.",
"#X~.).OX, o #.$.$.$.$.$.$.$.$.$.$.$.#.*.:., _ | { { { { { { { { { { { { { { { { { { { { { { { { { { { { { { { { | { k 1 /.R.W.C.",
"#X~.).OX, o #.$.$.$.$.$.$.$.$.$.$.$.#.*.:., _ | { { { { { { { { { { { { { { { { { { { { { { { { { { { { { { { { { { k 1 /.R.W.C.",
"#X~.).OX, o #.$.$.$.$.$.$.$.$.$.$.$.#.*.:., _ | { { { { { { { { { { { { { { { { { { { { { { { { { { { { { { { { { { k 1 /.F.W.C.",
"#X~.).#X, + $.$.$.$.$.$.$.$.$.$.$.$.$.$.,.- ` X.{ { { { { { { { { { { { { { { { { { { { { { { { { { { { { { { { { | j , ).G.W.C.",
"#X~.).#X, + #.$.$.$.$.$.$.$.$.$.$.$.$.$.:.- ` X.{ { { { { { { { { { { { { { { { { { { { { { { { { { { { { { { { { | j , ).G.W.C.",
"#X~.).#X, o #.$.$.$.$.$.$.$.$.$.$.$.$.$.:.- _ { { { { { { { { { { { { { { { { { { { { { { { { { { { { { { { { { { | j , ).G.W.C.",
"#X~.).@X, o #.$.$.$.$.$.$.$.$.$.$.$.$.$.:.- _ | { { { { { { { { { { { { { { { { { { { { { { { { { { { { { { { { { | j , ).G.W.C.",
"#X~.).@X, o #.$.$.$.$.$.$.$.$.$.$.$.$.$.,.- _ | { { { { { { { { { { { { { { { { { { { { { { { { { { { { { { { { { | j , ).G.W.C.",
"#X~.). X> + $.$.$.$.$.$.$.$.$.$.$.$.$.$.>.> _ | { { { { { { { { { { { { { { { { { { { { { { { { { { { { { { { { { | j , ).G.W.C.",
"#X~.). X> + $.$.$.$.$.$.$.$.$.$.$.$.$.*.>.> ` | { { { { { { { { { { { { { { { { { { { { { { { { { { { { { { { { { | j , ).G.W.C.",
"#X~./. X> + $.$.$.$.$.$.$.$.$.$.$.$.$.*.>.> ` | { { { { { { { { { { { { { { { { { { { { { { { { { { { { { { { { { | j , ).G.W.C.",
"#X^.). X, , 1 > , , , , , , , , 1 = < : > > ] { { { { { { { { { { { { { { { { { { { { { { { { { { { { { { { { { { | j , ).G.^.C.",
"#X^.).).> i = 1 , , , 1 1 , , , 1 i = , i 1 ) | { { { { { { { { { { { { { { { { { { { { { { { { { { { { { { { { { | j , /.G.^.C.",
"#X).).).> = ).).).).).).)./././.^.I.(.A..X= ] { { { { { { { { { { { { { { { { { { { { { { { { { { { { { { { { { { | j , /.G.^.C.",
"_.W.).).1 =  X).).).).).).^.^.^.^./.).Q.).1 ) | { { { { { { { { { { { { { { { { { { { { { { { { { { { { { { { { { | j , /.G.^.C.",
"_.#XW./.> = W.).).).).).).).^.^.).W.W.W.OX: ) | { { { { { { { { { { { { { { { { { { { { { { { { { { { { { { { { { | j , /.G.^.C.",
"#X^./.)., = OX^.).).).).).).^.^.W.).W.)./.> ] | { { { { { { { { { { { { { { { { { { { { { { { { { { { { { { { { { | j , /.G.^.C.",
").)./.).>   /.).).).).).).Q.Q.Q.).W.(.W..X1 ) { { { { { { { { { { { { { { { { { { { { { { { { { { { { { { { { { { | j , /.W.^.C.",
"_./.).).= = ^.).).).).).).Q.Q.Q.W.).R.Q.OX> ] { { { { { { { { { { { { { { { { { { { { { { { { { { { { { { { { { { | j , /.W.^.C.",
").).).)., = ).).).).).).).Q.Q.Q.~.^.^.~..X: ' | { { { { { { { { { { { { { { { { { { { { { { { { { { { { { { { { | | j 1 ^.W.W.A.",
").).).).> = ).).).).).).)./.Q.Q.Q.^.^.~..X- ' | { { { { { { { { { { { { { { { { | { { { { { { { | | | | | | | | { | j 1 ^.W.W.A.",
").).).)., = ).).).).).).)./.Q.Q.Q.^.^.W.)., ' | | | | | | | | | | | | | | | | | | | | | { | | | | | | | | | | | { | j , ^.W.W.A.",
").)./.).> = ).).).).).).)./.Q.Q.Q.^.^.!.)., ' | | | | | | | | | | | | | | | | | | | | | { | | | { { { { { { { { { { j , ^.W.I.A.",
").^./.).> = ).).).).).).)./.Q.^.Q.^.^.^..X, ' | { { { { { { { { { { { { { { { { { { { { { { { { { { { { { { { { { | j , ^.G.A.A.",
").^./.).> = ).).).).).).)./.^.^.Q.^.^.^..X, ' | { { { { { { { { { { { { { { | | { { { { { { { { { { { { { { { { | { j , ^.G.C.C.",
").^./.).> = ).).).).).~.~.Q.^.^.Q.^.^.^..X, ' | | | | | | | | | | | | | | | | | | | | | | | | | | | | | | | | | | | j , ^.G.F.C.",
").)./.).> = ).).).).~.~.^.^.^.^.Q.^.^.^.)., ' | | | | | | | | | | | | | | | | | | | | | | | | | | | | | | | | | | | j , ^.G.F.C.",
").Q.Q./.- % g.f.h.h.h.h.h.h.h.h.j.g.j.<.k.- v ( Q Q Q Q Q Q Q Q l l l l l l l l Q Q Q Q Q Q Q Q ! l ! l ( k l l / c h 4 W.C.W.I.",
"W.Q.).^.1 $ e y , , , , , , , , 1 X p , r < X 8 1 1 1 1 1 1 1 1 , , , , , , , , 1 1 1 < < < < < 1 , , i = > > 1 : O - < (.R.^.Z.",
"!.).(.^.< y b D q.q.q.q.q.q.q.q.q.Z m A S , x.]._._._._._._._._._._.).).).).).).).).).).).).).).V.7 M.Q._._.~.~.).).d., Y.U.Z.F.",
"!.^.^.).< e B 2.4.4.4.4.4.4.4.4.i.9.u.6.M , z.^.Q.Q.^.^.^.W.W.W.!.!.!.!.!.!.W.!.W.W.W.W.W.W.W.W.B.> b.C.C.!.W.G.I.^.s., /.Q.A.A.",
").Q./.W.< < 0.t.5.5.5.5.5.5.5.5.5.B N y.Z - l.oX^.^.^.^.^.^.^.^.^.^.W.^.W.W.W.W.W.W.W.W.W.W.W.W.Z.> n./.W.I.P.W.(.Z.Y 9 R.C.U.A.",
"W.Q..XQ.> < 0.u.9.9.9.9.9.9.9.9.6.7.p.t.r.- z./.Q.Q.Q.Q.Q.Q.W.W.W.W.W.W.W.W.W.W.W.W.W.W.W.G.G.W.B., b.C.G.Q.W.G.A.Q.E - Q.W.P.Z.",
"/.Q.W.).> < 9.0.7.7.7.7.7.7.7.7.e.9.3.8.C > l.Q.W.W.Q.W.W.W.W.W.W.W.W.W.W.W.W.W.W.W.W.W.I.I.U.U.Z.> m.W.W.R.R.R.F.F.W 1 Q.A.I.C.",
"^.K.(.W.r < 7.5.8.8.8.8.8.8.8.8.9.6.V 8.C , c.F.W.W.W.W.W.W.W.W.Q.Q.W.W.W.W.W.W.W.W.W.G.G.G.W.W.V.1 b.W.I.W.A.W.P.W.R , W.A.A.A.",
"^.W.W.}.@ * e.8.9.9.9.3.3.3.9.9.7.3.u.4.q.& v.F.W.W.W.W.W.W.W.W.W.W.W.W.W.W.W.W.W.W.W.W.W.W.W.W.Z.> m.I.^.W.W.I.P.W.E > W.A.A.A.",
"^./.~.^.; * 7.y.8.8.8.8.8.8.8.8.6.N 8.5.w.= v.Q.W.W.W.W.W.W.W.W.W.W.W.W.W.W.W.W.W.W.W.W.W.W.W.W.Z.1 b.^.C.W.W.P.W.P.R 1 Q.I.C.A.",
"W.W.K./.1 u w.q.B B B B B B B B 5.a.V M n < c.)././.Q.Q.Q.Q.Q.Q.).).)./././././.^.^.^.^.^.^.^.^.N.= B.W.).W.W.W.^.).E = W.W.C.A.",
"^.^.^.^.- . y < , , , > > , , , < X < t y o - 1 1 1 1 1 1 1 1 1 , , , , , , , - , , , , , , , , 1 - 1 = 1 , > - > 1 - , W.C.W.C.",
"K.K.!..XL L I F K K K K K K K K J T J I J K U P K K K K K K K K K K K K K K K K K K K K K K K K H K K K K G K K T K G K ).I.A.C.",
"{.^.W.).F.~.!.!.^.^.^.^.^.^.^.^.Q.J.Q.S.Q.^.W.Y.^.^.W.W.W.W.W.W.W.W.W.W.W.W.W.W.W.W.W.W.W.W.W.W.^.A./.W.C.W.I.C.Z.C.^.C.C.Z.Q.C.",
"W.Q.^.G.~.(.E.{./././././.Q.Q.Q.^.!.R.G.J.F.L.H.W.W.W.W.W.W.W.W.W.W.W.W.I.A.I.I.W.W.W.W.I.I.W.W.A.W.W.C.I.Q.C.C.W.W.C.W.A.G.V.C.",
"G.W.}./.W.Q.H.Q.W.W.W.W.W.W.W.W.U.G./.U.A.{.Z.U.C.C.C.C.C.C.C.C.A.A.A.A.A.C.A.A.C.C.C.C.C.C.C.C.W.C.C.I.C.C.A.C.C.W.A.A.C.A.Z.B."
};
