/* XPM */
static char *_b32481426a84a3fadcfe798e63bac038qbrlQLsLdbiMxeW[] = {
/* columns rows colors chars-per-pixel */
"64 64 180 2 ",
"   c #010001",
".  c #080607",
"X  c #0A0A0D",
"o  c #0C0B10",
"O  c #100F15",
"+  c #131216",
"@  c #16151B",
"#  c #18171C",
"$  c #1A191E",
"%  c #27170A",
"&  c #210C1D",
"*  c #261214",
"=  c #211E19",
"-  c #2B181E",
";  c #111723",
":  c #1C1523",
">  c #161F26",
",  c #1D1C22",
"<  c #1C1028",
"1  c #221526",
"2  c #201F24",
"3  c #2A1F25",
"4  c #231B2B",
"5  c #142326",
"6  c #1A2425",
"7  c #1F212E",
"8  c #222225",
"9  c #2E2A27",
"0  c #242329",
"q  c #28272D",
"w  c #2A292E",
"e  c #2D342D",
"r  c #2E2D32",
"t  c #272638",
"y  c #272A39",
"u  c #362430",
"i  c #302F34",
"p  c #3F283C",
"a  c #313035",
"s  c #36353A",
"d  c #38373C",
"f  c #3A3A3D",
"g  c #3D3C41",
"h  c #434346",
"j  c #474749",
"k  c #49494B",
"l  c #B4342A",
"z  c #BC372E",
"x  c #B53B2E",
"c  c #BD382F",
"v  c #BE3E33",
"b  c #B13E39",
"n  c #CF1806",
"m  c #D31603",
"M  c #D31A06",
"N  c #D61C0C",
"B  c #D91D0C",
"V  c #DA1E11",
"C  c #D7220F",
"Z  c #DA210D",
"A  c #D72513",
"S  c #DA2514",
"D  c #D72C15",
"F  c #DA2816",
"G  c #DC2619",
"H  c #D62B1A",
"J  c #DB2C1B",
"K  c #D5301A",
"L  c #DB311E",
"P  c #DD3422",
"I  c #DB3827",
"U  c #D3373B",
"Y  c #A94835",
"T  c #BC4036",
"R  c #BF433A",
"E  c #BC4848",
"W  c #AF5D52",
"Q  c #A2A4A1",
"!  c #A8AAA7",
"~  c #ADAFAC",
"^  c #B4B3AC",
"/  c #B8ACBA",
"(  c #B8BAB7",
")  c #BABCB9",
"_  c #A8B6A7",
"`  c #C3C5C2",
"'  c #DDDEDC",
"]  c #E9DBDB",
"[  c #DAE1D9",
"{  c #DFDFE1",
"}  c #E3DFE3",
"|  c #DCE2E0",
" . c #DEE9E1",
".. c #DEF2E9",
"X. c #E4E4E4",
"o. c #EDE4E5",
"O. c #E4EDE6",
"+. c #E9ECE6",
"@. c #E6E5EA",
"#. c #E8E6E9",
"$. c #E7ECE8",
"%. c #EDEDEE",
"&. c #F0E6E5",
"*. c #F9EAE7",
"=. c #F1EDED",
"-. c #FAEBEB",
";. c #E4F3EC",
":. c #EDF1EC",
">. c #EDF9EB",
",. c #F1F1EE",
"<. c #FFFFEF",
"1. c #E7EFF2",
"2. c #EEEEF1",
"3. c #EAEEF9",
"4. c #F6E6F0",
"5. c #F2EDF2",
"6. c #F9EEF2",
"7. c #FAE5F8",
"8. c #F3EDFA",
"9. c #E7F5F5",
"0. c #EBF0F6",
"q. c #EFF2F7",
"w. c #EEF1F2",
"e. c #EEF3F9",
"r. c #ECF0FB",
"t. c #E7FFFF",
"y. c #EDFFFE",
"u. c gray94",
"i. c #F1F1F1",
"p. c #F0F0F2",
"a. c #F1F1F3",
"s. c gray95",
"d. c #F3F3F3",
"f. c #F2F2F0",
"g. c #F5F0F4",
"h. c #F4F4F4",
"j. c gray96",
"k. c #F7F7F7",
"l. c #F1F1F2",
"z. c #F8F2F4",
"x. c #F8F6F6",
"c. c #F6F8F2",
"v. c #F7FFF3",
"b. c #FFFCF3",
"n. c #FAFFF7",
"m. c #FDFFF6",
"M. c #FBFCF5",
"N. c #F3F4F9",
"B. c #F4F3F9",
"V. c #FAF3FE",
"C. c #FFF6FF",
"Z. c #FAF5FB",
"A. c #F5FFF8",
"S. c azure",
"D. c #F7FDFD",
"F. c #F7FFFF",
"G. c #F3FDFC",
"H. c #FBFBFB",
"J. c #F8F8F8",
"K. c #F9FFF8",
"L. c #FAFFF9",
"P. c #FEFFFB",
"I. c #FFF9FF",
"U. c #FDFBFF",
"Y. c #FFFAFF",
"T. c #FFFBFF",
"R. c #F8FFFF",
"E. c #FBFFFF",
"W. c #FBFCFF",
"Q. c #FDFDFD",
"!. c gray99",
"~. c #FDFDFF",
"^. c #FEFCFF",
"/. c #FFFCFF",
"(. c #FEFDFF",
"). c #FCFFFF",
"_. c #FEFEFE",
"`. c white",
"'. c #FFFEFF",
"]. c #FEFEFE",
/* pixels */
"f.%.5.z.4.N.e.q.5.5.5.5.5.5.g.g.;.,.8.&.>.3...6.%.%.%.%.%.%.%.%.,.,.,.,.,.f.f.f.f.f.f.f.f.f.f.f.j.j.j.j.j.j.j.j.j.j.f.j.f.j.f.  ",
"%.w.w.+.,.:.+.-.:.:.:.:.:.:.:.:.4.-.3.,.$.4.;.5.f.f.f.f.f.f.f.f.f.f.f.f.f.f.f.f.f.f.f.f.f.f.f.f.f.f.N.N.f.N.f.f.f.f.f.f.f.j.f.  ",
"#.;.;.X.$.O. .X.X.X.X.X.X.X.X.X.@.] | X.} } [ X.X.X.X.X.X.X.X.X.X.X.X.X.X.X.X.X.X.X.X.X.X.X.X.X.+.+.+.+.+.+.+.+.+.+.+.%.%.f.f.  ",
"j.$.+.C.I.I.W.(.(.(.(.H.H.H.H.H.t.W.K.M.(.(.n.(.(.(.(.(.(.(.(.(.(.(.(.(.(.(.(.(.(.(.(.(.(.(.(.(.(.(.(.(.(.(.(.(.(.(.(.(.(.H.j.  ",
"=.,.d.I.S.c.m.A.F.F.F.F.F.F.W.W.b.(.K.P.V.F.P.(.(.(.(.(.(.(.(.(.(.(.(.(.(.(.(.(.(.(.(.(.(.(.(.(.(.(.(.(.(.(.(.(.(.(.(.(.(.j.f.  ",
"1.$.;.I.c.W x v v v v T T T R R E u f X.V.f.+.2.f.f.f.f.f.f.f.f.%.:.%.%.%.%.%.2.2.2.2.2.2.2.2.2.f.f.f.f.f.f.f.N.f.f.(.(.(.j.j.  ",
"0.,.>.(.m.l m B M M M N N B B B G & 4 %.1.=.5.f.2.2.2.2.2.2.2.2.:.:.%.%.%.%.%.%.2.2.2.2.2.2.2.2.2.2.2.2.2.2.2.2.%.f.(.(.(.f.f.  ",
"2.*.%.I.K.l B n N N B B V V V V Z @ < o.w.%.w.%.2.2.2.2.2.2.2.2.w.w.2.2.2.2.2.2.2.2.2.2.2.2.2.%.2.2.2.2.2.2.2.2.%.%.(.(.(.f.j.  ",
"2.=.w.(.(.z C B B B B B V S S G H : @ %.%.5.2.%.%.%.%.%.%.%.%.%.%.%.%.2.2.2.2.2.%.%.%.%.%.%.%.%.2.2.2.2.2.2.2.2.2.f.(.(.(.j.j.  ",
"2.%.2.(.I.z C V C C C S S S S S H : # %.%.=.2.:.%.%.%.%.%.%.%.%.%.%.%.2.2.2.2.2.%.%.%.%.%.%.%.%.2.2.2.2.2.2.2.2.2.f.(.(.(.j.j.  ",
"2.%.2.(.I.c S S S S S S S G S S H 1 # 2.%.%.2.:.%.%.%.%.%.%.%.%.%.%.%.2.f.2.2.2.%.%.%.%.%.%.%.%.2.2.2.2.2.2.2.2.2.f.(.(.(.j.j.  ",
"f.=.2.(.(.v S S S S S G G G F S J 1 # 2.%.%.2.%.%.%.%.%.,.%.%.%.f.f.f.2.f.f.f.f.%.%.,.%.%.,.%.%.2.2.2.2.2.2.2.2.2.f.(.(.(.j.j.  ",
"f.,.2.(.(.v S S S S S F F J G F J 1 # 2.%.=.2.%.%.%.%.%.,.,.f.f.f.f.f.f.f.f.f.f.%.%.%.%.%.%.%.%.2.2.2.2.2.2.2.2.2.f.(.(.(.j.j.  ",
"f.,.2.(.I.v S S G S F F J J J J J 1 # 2.:.=.2.%.2.2.2.2.f.f.2.f.f.f.f.f.N.f.f.f.2.2.f.f.2.2.2.2.2.2.2.2.2.2.2.2.2.f.(.(.(.j.j.  ",
"f.,.2.(.(.v S S G G F F J J J J J 1 $ %.:.=.2.%.2.2.2.2.2.2.2.2.f.f.f.N.f.N.f.N.2.2.f.f.2.2.2.2.2.2.2.2.2.2.2.2.2.f.(.(.(.j.j.  ",
"f.,.w.(.(.v F S G G F F J J J J J 1 $ 2.:.=.2.:.2.2.2.2.2.2.2.2.2.2.f.N.N.N.f.f.2.2.f.f.2.2.2.2.2.2.2.2.2.2.2.2.2.f.(.(.(.j.j.  ",
"q.:.f.(.(.v F G G G G J J J J J P : $ 2.f.5.2.:.2.2.2.2.2.2.2.f.f.f.f.f.f.f.f.f.2.2.2.2.2.f.f.f.f.f.2.2.2.2.f.N.f.f.(.(.(.j.j.  ",
"q.:.f.(.(.v F G G F G J J J J J L : $ 2.:.5.2.w.2.2.f.2.2.2.2.f.f.f.f.f.f.f.f.f.2.2.2.2.2.f.f.f.f.f.f.2.2.w.f.N.f.f.(.(.(.j.j.  ",
"q.:.f.(.(.v F G F F J J J J J J P : $ 2.:.5.3.w.2.2.f.2.2.2.2.f.f.f.f.f.f.f.f.f.2.2.2.2.f.f.f.f.f.f.5.5.w.w.f.N.f.f.(.(.(.j.j.  ",
"q.:.f.(.(.v F G J J J J J J J J P 1 , 5.:.5.3.:.2.2.f.2.2.2.f.f.f.f.f.f.f.f.f.f.f.f.w.w.f.w.f.f.f.f.5.f.f.f.f.f.f.f.(.(.(.j.j.  ",
"N.:.f.(.(.v F G D J J J J J J J P 1 8 N.:.5.3.:.2.2.w.2.2.2.f.N.f.f.f.f.f.f.f.f.f.f.f.f.f.f.f.f.f.f.f.f.f.f.f.f.f.f.(.(.(.j.j.  ",
"N.:.f.(.(.v F G F F J J J J J J P 1 8 N.%.5.3.w.2.2.2.2.2.2.f.f.f.f.f.f.f.f.f.f.N.N.f.f.f.f.f.f.f.f.f.f.f.f.f.f.f.f.(.(.(.j.j.  ",
"w.:.f.P.(.v F G S S F J J J J L P 4 8 N.%.5.3.,.2.2.f.2.2.2.f.f.f.f.f.f.f.f.f.f.f.f.f.f.f.f.f.f.f.f.f.f.f.f.f.f.f.f.(.(.(.j.j.  ",
"w.%.f.P.(.v S G A S S F F J J J I 4 0 N.:.5.3.%.2.2.f.f.2.f.f.f.f.f.f.f.N.f.f.f.f.f.f.5.f.f.f.f.f.f.f.f.f.f.f.f.f.f.(.(.(.j.j.  ",
";.:.w.(.M.b G A H H J H H J H P I = t =.:.7.e.=.f.2.2.2.2.f.f.f.f.f.f.f.f.f.f.f.f.f.f.f.f.f.f.N.N.f.f.f.f.f.f.f.f.f.(.(.(.j.j.  ",
"4.x.$.W.<.Y K D L H H H H J L L U - y O.;.2.9.%.2.2.2.2.2.%.f.f.f.f.f.f.f.f.f.f.f.f.f.f.f.f.f.N.N.f.f.f.f.f.f.f.f.f.(.(.(.j.j.  ",
"%.,.5.C.S.3 * + + @ $ $ @ # , # % 5 4 -.5.2.:.*.2.2.2.2.2.%.f.f.f.f.f.f.f.f.f.f.f.f.f.f.f.f.f.N.f.f.f.f.f.f.f.f.f.f.(.(.(.j.g.  ",
"5.;.j.I.G.0 @ ; , , : : @ : 0 : 6 > 8 f.8.5.,.%.2.2.2.2.2.%.f.f.f.f.f.f.f.f.f.f.f.f.f.f.f.f.f.f.f.f.f.f.f.f.f.f.f.f.(.(.(.j.j.  ",
"4.w.;.n.v._ ^ ^ ~ ! ' ` ~ ) Q ( / 1 e ;.3.3.%.1.f.2.2.2.2.f.f.f.f.f.f.f.f.f.f.f.f.f.f.f.f.f.f.f.f.f.f.f.f.f.f.f.f.f.(.(.(.j.j.  ",
":.e.%.M.H.3.8.8.g.N.g.5.%.2.f.5.y.2 9 :.8.5.=.N.f.2.2.2.2.f.f.f.f.f.f.f.f.f.f.f.f.f.f.f.f.f.f.f.f.f.f.f.f.f.f.f.f.f.(.(.(.j.j.  ",
"%.%.z.A.P.w.5.%.%.N.%.f.2.%.j.2.o.0 0 w.N.4.=.e.2.2.2.2.2.f.f.f.f.f.f.f.f.f.f.f.f.f.f.f.f.f.f.f.f.f.f.f.f.f.f.f.f.f.(.(.(.j.j.  ",
";.5.4.W.H.N.4.,.f.f.f.f.f.f.%.f.:.7 p =.;.%.,.%.2.2.2.2.2.%.f.f.f.f.f.f.f.f.f.f.f.f.f.f.f.f.f.f.f.f.f.f.f.f.f.f.f.f.(.(.(.j.g.  ",
"%.%.f.(.(.w.2.w.f.N.f.5.2.2.2.2.f.8 d 2.2.2.f.2.2.2.2.2.2.2.2.f.f.f.f.f.f.f.f.f.f.f.f.f.f.f.f.f.f.f.f.f.f.f.f.f.f.w.(.(.(.j.j.  ",
"%.%.f.(.(.f.w.w.f.f.f.f.2.2.f.w.f.8 d 2.2.2.f.2.f.f.2.2.2.2.f.f.f.f.f.f.f.f.f.f.f.f.f.f.f.f.f.f.f.f.f.f.f.f.f.f.f.w.(.(.(.j.j.  ",
"%.%.f.(.(.f.f.f.f.f.f.f.f.f.f.N.2.8 f 2.2.2.f.f.f.f.2.2.2.2.N.N.f.f.f.f.f.f.f.f.f.f.f.f.f.f.f.f.f.f.f.f.f.f.f.f.f.f.(.(.(.j.j.  ",
"%.%.f.(.(.2.f.f.f.f.f.f.f.f.f.N.2.8 h 2.2.2.2.f.2.2.2.2.2.2.f.f.f.f.f.f.f.f.f.f.f.f.f.f.f.f.f.f.f.f.f.f.f.f.f.f.f.f.(.(.(.j.j.  ",
"%.%.f.(.(.2.f.f.2.2.2.2.2.2.5.f.f.8 h 2.f.2.2.f.2.2.2.2.2.2.f.f.f.f.f.f.f.f.f.f.f.f.f.f.f.f.f.f.f.f.f.f.f.f.f.f.f.f.(.(.(.h.j.  ",
"%.f.f.(.(.2.f.f.2.2.2.2.2.2.2.f.N.8 j 2.f.2.2.2.2.2.2.2.2.f.f.f.f.N.f.N.N.N.f.f.f.N.N.f.N.N.f.f.f.f.f.f.f.f.f.f.f.f.(.(.(.h.j.  ",
"%.f.f.(.(.2.2.2.2.2.2.2.2.2.2.2.f.8 j %.f.2.2.2.2.2.2.2.f.f.f.f.f.w.N.N.N.N.f.f.f.f.2.f.2.2.f.f.f.f.f.f.f.f.f.f.f.f.(.(.(.j.j.  ",
"%.f.f.(.(.2.2.2.2.2.2.2.2.2.w.f.f.8 j %.N.f.2.2.2.2.2.2.2.2.f.f.2.w.f.f.f.f.f.2.f.f.2.2.2.2.2.f.f.w.2.2.2.f.f.f.f.f.(.(.(.j.j.  ",
"f.%.f.(.(.%.f.%.%.%.%.%.%.%.%.%.N., h %.%.%.j.%.%.%.%.,.,.%.%.%.%.%.%.%.%.%.%.%.f.2.2.2.5.f.2.%.f.%.%.N.%.%.B.%.f.%.(.(.(.f.j.  ",
"%.f.%.(.(.%.%.N.2.2.2.2.2.2.2.2.%.8 h %.%.f.+.%.f.f.%.%.%.%.%.%.f.f.f.%.%.%.%.%.%.2.N.N.2.2.f.g.2.j.2.2.2.g.@.N.f.%.(.(.(.f.j.  ",
"f.%.j.(.H.N.f.2.2.2.2.5.5.N.N.N.2.2 h 2.f.N.N.2.f.f.2.2.2.2.f.f.%.%.%.%.2.f.f.f.N.2.2.2.5.5.2.2.%.2.2.2.B.@.Z.%.%.%.(.(.(.j.f.  ",
"%.%.%.(.(.8 , $ @ @ @ # $ $ , , q 0 q i a a r r w w w w w w r r s s d d f g g g h f s s g g d r a s a r w 0 , 8 8 8 H.(.(.f.j.  ",
"%.%.%.(.(.8 , $ , , , , 2 8 8 8 8 , , 0 0 0 2 8 2 2 2 2 8 8 0 0 2 8 8 2 2 8 8 2 8 , , , 2 2 , , $ # 2 , $ 2 $ , 8 8 (.(.(.j.j.  ",
"f.%.j.(.H.N.2.2.f.f.2.2.2.2.2.2.3.8 h %.2.2.2.2.2.2.2.2.2.2.2.2.2.2.2.2.2.2.2.2.2.2.5.2.2.2.2.N.N.f.%.5.2.2.2 $ $ X (.(.P.f.j.  ",
"%.2.%.(.(.%.%.f.%.%.%.%.%.%.%.%.%.2 h %.2.f.%.f.2.2.2.2.2.2.2.2.%.%.%.%.%.f.f.f.f.f.f.f.f.f.2.2.%.%.%.2.2.%.$ @ O , H.(.(.j.f.  ",
"f.%.f.(.(.%.f.%.%.%.%.%.%.%.%.%.N.2 h f.5.%.j.%.%.%.%.%.%.%.%.%.%.,.,.%.%.%.%.%.2.2.2.2.2.2.2.2.%.f.f.%.%.%.# $ , + (.(.P.j.j.  ",
"%.%.f.(.(.%.%.%.2.2.2.2.2.2.2.2.2.8 h %.2.2.%.2.2.2.2.2.2.2.2.2.2.2.2.2.2.2.2.2.2.2.2.2.2.2.2.2.f.%.f.2.B.@., , # + (.(.(.g.g.  ",
"%.%.f.(.(.%.%.%.2.2.2.2.2.2.2.2.%.8 h %.%.2.%.2.2.2.2.2.2.2.2.2.2.2.2.2.2.2.2.2.2.2.2.2.2.2.2.2.2.+.f.%.@.2.# # + @ (.(.(.H.%.. ",
"%.%.f.(.(.%.%.%.2.2.2.2.2.2.2.2.%.8 h %.%.2.%.2.2.2.%.2.2.2.2.2.2.2.2.2.2.2.2.2.2.2.2.2.2.2.2.2.2.j.%.N.2.@., # $ o (.(.(.%.x.  ",
"%.+.f.(.(.%.%.%.2.2.2.2.2.2.2.2.2.8 h %.%.2.%.%.%.%.%.%.2.2.2.2.2.2.2.2.2.2.2.2.2.2.2.2.2.2.2.2.2.+.2.%.2.@., $ $ + !.(.(.J.f.  ",
"%.+.f.(.(.%.%.%.%.%.%.%.%.%.%.%.2.8 h %.%.%.%.%.%.%.%.%.2.2.2.2.2.2.%.%.%.%.%.%.2.2.2.2.2.2.2.2.%.f.N.f.2.@.@ # @ # H.(.(.g.g.  ",
"%.+.f.(.(.%.%.%.%.%.%.%.%.%.%.%.2.8 j %.%.%.%.%.%.%.%.2.%.2.2.2.2.%.%.%.%.%.%.%.%.%.%.%.%.%.%.%.f.2.%.X.2.@.@ 2.@.%.H.(.(.=.f.  ",
"%.+.f.(.(.%.%.%.%.%.2.2.%.%.%.%.%.8 h %.%.%.%.%.%.%.%.%.%.%.%.%.2.2.%.%.%.%.%.%.%.%.%.%.%.%.%.%.2.%.N.j.+.+.@ @.%.X.(.P.H.j.%.. ",
"%.+.f.(.(.%.%.%.%.%.2.2.%.%.%.%.%.8 h +.%.%.%.%.%.%.%.%.%.%.%.%.2.2.%.%.%.%.%.%.2.2.2.2.2.2.2.2.%.2.%.+.%.@.@ 2.+.X.P.(.P.f.j.  ",
"%.+.f.(.(.%.%.%.%.%.%.%.%.%.%.%.2.$ k f.%.%.+.+.%.%.%.%.%.%.%.%.%.%.%.%.%.%.%.%.%.%.%.%.%.%.%.%.f.%.2.2.2.+.+ %.X.+.(.(.H.f.f.  ",
"%.%.f.(.H.%.+.+.+.+.+.+.+.+.%.%.X.$ h @.+.+.%.%.%.%.%.%.%.%.%.%.+.+.+.+.+.+.+.+.%.%.%.%.%.%.%.%.+.f.%.%.X.{ X X.X.' (.(.(.f.f.. ",
"+.+.f.(.(.(.(.(.(.(.(.(.(.(.(.(.(.H.(.(.(.(.H.(.(.(.(.(.(.(.(.(.(.(.(.(.(.(.(.(.(.(.(.(.(.(.(.(.(.H.(.(.(.(.!.(.(.(.(.H.(.f.%.  ",
"%.%.f.(.(.(.(.(.(.(.(.(.(.(.(.(.(.(.(.(.(.(.(.(.(.(.(.(.(.(.(.(.(.(.(.(.(.(.(.(.(.(.(.(.(.(.(.(.(.(.H.!.(.(.(.(.(.(.(.(.H.f.j.  ",
"%.%.+.f.%.%.f.+.2.2.%.%.%.%.%.%.f.f.f.f.f.%.%.%.%.%.%.%.%.%.%.%.%.%.%.%.%.%.%.%.%.%.%.%.%.%.%.%.+.f.j.j.%.%.f.%.f.%.f.+.+.j.%.  ",
"+.%.+.%.%.%.f.%.%.%.%.%.%.%.%.%.+.%.%.%.%.+.%.%.%.%.%.%.%.%.%.%.f.f.f.f.f.f.f.f.%.%.f.f.f.f.f.f.j.+.%.j.o.f.j.5.f.j.f.f.H.f.f.  ",
"%.%.+.%.%.+.%.%.%.%.%.%.%.%.%.%.%.,.%.%.f.f.%.f.%.%.%.%.%.%.%.%.%.%.%.%.%.%.%.%.%.%.:.%.%.f.f.f.%.g.g.=.j.%.=.f.j.j.f.f.%.H.f.  ",
"                                                                                                                      .         "
};
